<svg width="2174" height="2174" viewBox="0 0 2174 2174" fill="none" xmlns="http://www.w3.org/2000/svg">
<g clip-path="url(#clip0_403_811)">
<rect width="2174" height="2174" fill="black"/>
<path d="M-141.306 -33.4271L-132.342 -36.8975L-109.929 -38.6351L-87.515 -34.2959L-21.1668 -6.51875L1.24677 11.7113L48.7659 75.0799L52.3503 128.897L67.5902 164.488L90.0037 182.718L133.938 189.659L178.766 213.097L201.179 215.703L211.937 200.075L199.384 146.258L180.56 22.1272L157.249 -5.64998L112.422 -27.3504L91.7984 -49.0509L52.3503 -137.59L49.6583 -155.82L55.9347 -173.182L89.1113 -226.998L92.6957 -244.36L81.0403 -262.59L1.24678 -290.367L-32.8222 -315.538L-99.1705 -404.946L-127.86 -457.899L-126.963 -494.354L-118.892 -512.584L-102.755 -530.814L-64.2041 -555.985L2.14412 -571.609L32.6239 -583.762L37.1105 -601.123L32.6239 -619.354L1.2468 -676.641L-21.1668 -698.346L-42.6879 -696.608L-83.0333 -637.579L-109.031 -621.955L-140.413 -615.014" stroke="#EB0A1E" stroke-opacity="0.4" stroke-width="2" stroke-linecap="round" stroke-linejoin="round"/>
<path d="M-141.307 239.136L-132.344 242.611L-109.93 260.841L-60.6162 288.618L-18.481 359.797L1.24544 370.212L23.659 375.42L90.8997 368.475L112.421 373.683L129.455 413.613L156.351 438.789L178.764 443.128L246.005 439.653L289.94 422.296L312.353 401.46L334.767 371.081L347.32 343.304L350.904 307.713L333.869 236.535L332.075 112.404L321.317 58.5871L324.906 23.8645L322.214 5.63442L285.453 -48.1823L260.352 -136.722L280.074 -207.9L276.49 -278.214L266.629 -313.805L246.005 -345.053L223.591 -358.075L156.351 -362.414L141.111 -367.622L114.211 -385.852L101.658 -403.213L119.59 -421.439L164.417 -438.8L178.764 -450.953L191.317 -474.391L196.696 -509.978L189.522 -598.522L184.143 -616.747L168.903 -634.977L111.524 -688.794L86.418 -741.747L60.42 -776.469L53.2463 -794.695L48.7646 -848.516L57.7281 -919.694L55.9334 -937.056L46.9699 -955.286L22.7618 -977.855L0.34817 -989.139L-88.4136 -1009.97L-110.827 -1013.44L-133.241 -1009.97L-130.549 -991.741L-117.104 -956.154L-111.725 -921.432L-114.412 -903.202L-132.343 -884.972L-142.204 -883.239" stroke="#EB0A1E" stroke-opacity="0.4" stroke-width="2" stroke-linecap="round" stroke-linejoin="round"/>
<path d="M1876.86 645.377L1889.41 663.603L1909.14 677.494L1931.55 686.172L1940.51 680.964L1945.89 645.377L1940.51 628.016L1931.55 618.464L1909.14 610.655L1886.72 612.387L1873.27 628.016L1876.86 645.377" stroke="#EB0A1E" stroke-opacity="0.4" stroke-width="2" stroke-linecap="round" stroke-linejoin="round"/>
<path d="M1963.82 367.607L1931.55 329.414L1909.13 285.144L1877.75 237.404L1846.37 166.226L1820.37 130.635L1798.85 76.8183L1781.82 5.63559L1772.85 -11.7257L1733.4 -47.3123L1725.34 -65.5424L1724.44 -101.134L1719.95 -118.49L1710.99 -130.644L1645.54 -172.312L1614.16 -207.898L1590.85 -226.129L1555.89 -237.413L1488.64 -246.096L1456.37 -260.851L1339.82 -349.39L1324.57 -367.621L1312.02 -396.266L1289.6 -413.628L1280.64 -404.076L1278.85 -386.715L1262.71 -351.128L1260.91 -332.898L1269.88 -315.537L1301.26 -297.307L1312.92 -279.081L1314.71 -261.72L1309.33 -207.898L1312.02 -154.082L1320.09 -136.72L1334.43 -123.698L1379.26 -103.735L1425.89 -65.5424L1445.61 -43.842L1479.68 6.50434L1486.85 24.7344L1485.06 42.9645L1463.54 77.6823L1460.85 95.9124L1466.23 114.143L1489.54 156.675L1511.96 183.583L1556.78 212.229L1585.47 238.273L1593.54 256.499L1593.54 274.729L1580.99 345.907L1584.58 364.137L1633.88 417.089L1642.85 435.315L1641.96 489.136L1646.44 507.362L1698.44 595.906L1700.23 609.792L1693.96 628.022L1650.03 663.608L1645.54 681.839L1646.44 690.522" stroke="#EB0A1E" stroke-opacity="0.4" stroke-width="2" stroke-linecap="round" stroke-linejoin="round"/>
<path d="M1963.82 424.032L1930.65 378.894L1889.41 307.715L1840.99 236.537L1820.37 195.738L1797.96 175.775L1750.44 147.129L1742.37 128.899L1733.41 75.0826L1732.51 22.1299L1713.68 3.90448L1686.78 -4.77851L1677.82 -13.4568L1667.96 -31.6869L1651.82 -85.5036L1639.27 -103.734L1598.92 -133.248L1554.99 -183.595L1532.58 -192.273L1510.16 -187.065L1441.13 -157.55L1431.27 -136.719L1481.47 -83.7708L1501.19 -29.9494L1530.78 23.8674L1532.58 42.0975L1518.23 95.0454L1526.3 130.637L1538.85 147.998L1607.89 201.815L1633.89 236.537L1640.16 272.129L1633.89 325.946L1636.58 344.176L1684.99 397.124L1693.96 415.354L1696.65 433.584L1679.61 487.4L1684.1 505.631L1702.03 541.217L1745.96 594.17L1751.34 612.4L1746.86 647.987L1708.3 693.125" stroke="#EB0A1E" stroke-opacity="0.4" stroke-width="2" stroke-linecap="round" stroke-linejoin="round"/>
<path d="M1963.82 553.368L1939.61 537.744L1937.82 519.514L1948.58 483.923L1942.31 448.336L1909.13 399.728L1864.3 311.183L1797.96 230.458L1775.55 220.911L1730.72 225.25L1714.58 234.798L1698.44 305.976L1706.51 341.567L1737.89 394.52L1744.16 412.745L1744.16 448.336L1735.2 483.928L1736.99 503.022L1744.16 521.252" stroke="#EB0A1E" stroke-opacity="0.4" stroke-width="2" stroke-linecap="round" stroke-linejoin="round"/>
<path d="M1743.26 521.253L1780.92 555.976L1788.1 574.201L1796.16 645.384L1814.99 680.97L1822.17 689.653" stroke="#EB0A1E" stroke-opacity="0.4" stroke-width="2" stroke-linecap="round" stroke-linejoin="round"/>
<path d="M1815 450.075L1842.79 495.213L1855.34 503.023L1864.31 506.493L1886.73 497.815L1898.38 485.661L1899.27 468.3L1871.48 432.714L1865.2 379.761L1853.55 344.174L1842.79 323.338L1820.38 301.637L1797.96 290.353L1775.55 297.298L1759.41 325.944L1758.52 344.174L1765.69 362.4L1790.79 397.122L1815 450.075" stroke="#EB0A1E" stroke-opacity="0.4" stroke-width="2" stroke-linecap="round" stroke-linejoin="round"/>
<path d="M1572.92 -13.4613L1590.85 3.89997L1594.44 22.1253L1591.75 75.078L1598.93 103.724L1643.75 150.595L1666.17 156.672L1670.65 146.256L1667.96 128.026L1657.2 109.801L1644.65 55.9792L1621.34 27.3333L1611.47 22.1253L1604.3 3.89997L1598.93 -44.7135L1576.51 -67.2828L1555.89 -49.0527L1561.27 -30.8226L1572.92 -13.4613" stroke="#EB0A1E" stroke-opacity="0.4" stroke-width="2" stroke-linecap="round" stroke-linejoin="round"/>
<path d="M1271.68 307.711L1243.89 329.411L1234.02 343.302L1228.65 361.527L1230.44 379.757L1243.89 394.517L1265.4 403.195L1290.51 397.119L1304.85 379.757L1321.89 344.171L1357.75 308.579L1362.23 290.349L1355.06 281.671L1332.65 272.988L1310.23 272.119L1271.68 307.711" stroke="#EB0A1E" stroke-opacity="0.4" stroke-width="2" stroke-linecap="round" stroke-linejoin="round"/>
<path d="M-141.304 103.723L-128.757 77.6783L-110.825 56.8466L-88.4112 55.9778L-65.9927 62.9233L-38.2001 94.1708L-32.821 112.401L-34.6157 130.631L-50.7529 166.222L-54.3373 184.448L-48.0658 202.678L-22.0629 236.532L10.2115 291.217L22.7642 302.502L45.1778 305.108L90.0049 293.823L133.94 301.633L156.353 312.918L171.593 325.94L189.525 344.17L207.457 379.756L224.491 391.041L246.905 391.041L290.839 375.417L313.253 344.17L315.043 308.578L300.7 254.762L297.111 166.222L270.216 95.0396L278.287 42.0916L274.697 23.8616L224.491 -60.3386L158.148 -118.494L159.938 -136.725L207.457 -190.546L225.389 -226.133L228.973 -243.494L221.804 -274.741L201.18 -296.447L176.972 -307.731L88.2152 -330.296L35.317 -349.395L13.8008 -367.625L-16.6838 -421.441L-20.2683 -438.803L-10.4074 -457.033L-0.546644 -463.978L44.2805 -482.204L133.042 -483.072L155.456 -499.565L162.63 -527.342L155.456 -581.163L148.282 -598.525L134.837 -616.75L77.4571 -670.572L13.8008 -777.336L0.350698 -844.18L-12.2021 -866.744L0.3507 -885.843L3.93512 -902.336L0.350701 -920.566L-22.9602 -930.113L-34.6156 -920.566L-35.513 -902.336L-27.4419 -866.744L-38.2001 -847.65L-66.89 -835.497L-89.3036 -831.158L-143.099 -829.42" stroke="#EB0A1E" stroke-opacity="0.4" stroke-width="2" stroke-linecap="round" stroke-linejoin="round"/>
<path d="M-142.203 18.6535L-133.239 9.97046L-110.826 4.76254L-88.4119 8.23762L-43.58 25.5989L-1.44477 76.8093L8.42088 95.0394L19.179 166.217L34.4189 201.809L44.2797 214.831L66.6981 226.984L110.628 232.192L221.803 291.217L244.217 293.823L259.457 272.118L263.041 218.301L253.18 165.353L227.182 111.532L224.49 93.3066L228.075 40.3539L223.593 22.1239L192.216 -31.6929L176.971 -43.8463L132.144 -67.2843L109.731 -88.9847L94.4907 -120.232L91.7988 -138.462L95.3832 -156.692L109.731 -181.863L154.558 -206.17L175.182 -227.87L176.074 -252.172L168.905 -263.457L153.66 -273.009L23.6608 -316.41L-2.34208 -331.165L-74.9618 -424.048L-91.099 -458.771L-90.2017 -476.996L-78.5463 -494.357L-46.2719 -517.795L-2.34207 -526.473L86.4197 -529.08L108.833 -547.31L99.8698 -582.896L35.3162 -671.436L-25.6481 -768.658L-47.1692 -791.227L-69.5828 -795.567L-114.41 -790.359L-137.721 -777.337L-144.894 -759.98L-141.305 -741.75L-117.994 -706.158L-111.718 -687.928L-113.513 -669.703L-135.029 -648.003L-143.997 -645.396" stroke="#EB0A1E" stroke-opacity="0.4" stroke-width="2" stroke-linecap="round" stroke-linejoin="round"/>
<path d="M-141.306 441.392L-109.929 438.79L-87.515 447.469L-17.5823 502.154L22.7631 523.855L45.1766 522.991L67.5902 508.231L90.0038 501.285L156.352 520.384L201.179 506.493L312.355 485.662L357.182 482.191L379.595 490.001L401.112 531.669L430.699 626.285L454.907 662.74L479.115 689.653" stroke="#EB0A1E" stroke-opacity="0.4" stroke-width="2" stroke-linecap="round" stroke-linejoin="round"/>
<path d="M1963.82 315.524L1956.65 307.71L1941.41 271.255L1906.44 217.433L1861.62 110.664L1823.96 -31.6922L1789 -67.2835L1777.34 -84.6448L1772.85 -102.001L1774.65 -136.724L1767.47 -154.954L1753.13 -166.239L1692.16 -191.41L1641.96 -253.041L1619.54 -270.402L1597.13 -275.61L1530.78 -279.085L1508.37 -285.161L1488.65 -297.31L1413.33 -368.493L1375.68 -398.872L1360.44 -422.31L1346.99 -457.032L1342.5 -510.849L1337.13 -529.079L1305.74 -564.67L1271.67 -617.618L1229.54 -653.21L1199.05 -693.14L1176.64 -698.348L1131.81 -686.195L1110.29 -684.457L1043.05 -706.158L1020.64 -702.687L999.122 -687.928L998.225 -666.227L1024.22 -634.98L1045.74 -599.388L1079.81 -564.67L1097.74 -510.849L1124.64 -475.262L1142.57 -422.31L1176.64 -386.718L1188.3 -368.493L1198.16 -310.332L1207.13 -296.446L1250.16 -261.724L1258.23 -243.493L1257.33 -189.677L1275.26 -118.494L1309.33 -76.8306L1376.57 -45.5784L1399.88 -29.9546L1432.16 5.63201L1437.54 23.8621L1435.75 42.0922L1417.82 76.8148L1416.92 95.0402L1474.3 219.171L1532.58 255.631L1537.06 272.988L1535.27 362.396L1545.13 380.626L1578.3 415.348L1598.03 447.465L1607.89 505.625L1641.96 575.935L1643.75 594.165L1632.1 612.395L1594.44 629.756L1578.3 647.113L1578.3 665.343L1584.58 692.251" stroke="#EB0A1E" stroke-opacity="0.4" stroke-width="2" stroke-linecap="round" stroke-linejoin="round"/>
<path d="M555.324 452.671L542.771 468.295L527.532 503.886L521.255 539.478L526.634 556.834L555.324 592.426L578.635 610.656L623.462 627.148L645.876 626.28L668.289 616.733L688.913 591.557L714.014 503.018L734.638 468.295L763.327 431.84L778.567 377.154L800.981 365.87L822.497 365.87L888.845 383.231L911.259 384.964L933.672 379.756L1000.02 307.709L1064.57 269.516L1082.5 251.286L1084.3 233.061L1077.12 214.83L1048.43 180.108L1033.19 126.291L1024.22 108.061L969.536 54.2443L932.775 -2.17872L916.638 -16.9384L887.948 -29.9559L865.534 -30.8247L778.567 -16.0697L755.256 1.29165L751.672 19.5217L754.359 54.2443L719.393 108.061L720.29 143.652L685.324 197.469L682.637 214.83L712.219 251.286L719.393 269.516L736.427 358.924L710.429 373.679L644.081 395.38L576.84 432.708L555.324 452.671" stroke="#EB0A1E" stroke-opacity="0.4" stroke-width="2" stroke-linecap="round" stroke-linejoin="round"/>
<path d="M822.5 76.8179L790.225 112.405L786.641 130.635L789.328 166.226L781.257 219.174L790.225 254.765L804.568 289.483L821.602 307.713L875.398 343.305L889.745 349.381L912.159 351.114L934.572 338.097L944.433 325.075L978.502 269.52L1008.99 235.667L1009.88 217.436L981.194 147.127L912.159 54.2486L889.745 39.4889L867.332 41.2265L822.5 76.8179" stroke="#EB0A1E" stroke-opacity="0.4" stroke-width="2" stroke-linecap="round" stroke-linejoin="round"/>
<path d="M866.431 292.087L888.844 301.634L911.258 300.765L933.671 274.725L951.603 236.532L955.188 218.302L947.122 183.58L932.774 161.879L910.361 141.048L887.947 133.233L865.533 139.31L826.085 201.81L821.599 219.171L825.188 237.401L843.12 272.988L866.431 292.087" stroke="#EB0A1E" stroke-opacity="0.4" stroke-width="2" stroke-linecap="round" stroke-linejoin="round"/>
<path d="M873.599 236.532L887.946 246.079L900.499 236.532L904.083 218.302L888.843 200.941L868.22 218.302L873.599 236.532" stroke="#EB0A1E" stroke-opacity="0.4" stroke-width="2" stroke-linecap="round" stroke-linejoin="round"/>
<path d="M559.807 503.025L554.427 521.255L555.325 539.485L576.841 574.203L599.255 590.695L621.668 595.903L644.082 590.695L666.495 565.525L673.669 540.349L670.085 504.762L662.911 486.532L644.082 466.569L621.668 463.963L599.255 470.04L576.841 482.193L559.807 503.025" stroke="#EB0A1E" stroke-opacity="0.4" stroke-width="2" stroke-linecap="round" stroke-linejoin="round"/>
<path d="M621.665 556.84L642.289 538.614L641.392 520.384L621.665 499.553L599.252 504.761L589.391 520.384L592.078 538.614L599.252 546.424L621.665 556.84" stroke="#EB0A1E" stroke-opacity="0.4" stroke-width="2" stroke-linecap="round" stroke-linejoin="round"/>
<path d="M1962.93 22.9974L1935.13 4.76733L1925.27 -12.5893L1917.2 -48.1806L1908.24 -63.8044L1875.07 -101.997L1870.58 -119.359L1872.37 -190.541L1858.92 -226.128L1838.3 -243.489L1774.65 -259.113L1752.23 -270.398L1734.3 -296.442L1716.37 -350.259L1685.89 -378.036L1663.47 -388.452L1641.06 -390.189L1596.23 -353.729L1573.82 -356.335L1530.78 -404.076L1485.95 -438.798L1450.99 -475.258L1440.23 -492.615L1433.06 -528.206L1442.02 -598.515L1418.71 -612.406L1374.78 -623.691L1356.85 -652.337L1346.99 -687.924L1320.99 -723.515L1320.09 -741.745L1339.82 -794.693L1351.47 -812.054L1413.33 -847.646L1426.78 -865.876L1428.57 -883.232L1417.82 -918.824L1419.61 -953.546L1435.75 -989.133L1468.02 -1024.72L1457.26 -1060.32L1455.47 -1113.26L1418.71 -1161.01L1413.33 -1187.05L1420.5 -1213.96L1462.64 -1275.59L1468.92 -1292.95L1468.92 -1311.18L1455.47 -1365L1454.58 -1400.59L1459.06 -1435.3L1479.68 -1470.9L1482.37 -1489.13L1469.82 -1507.36L1433.06 -1524.71L1376.57 -1561.17L1354.16 -1565.51L1331.75 -1565.51L1264.51 -1548.15L1242.98 -1547.28L1220.57 -1552.49L1153.33 -1593.29L1064.57 -1625.41L931.877 -1700.06L887.05 -1717.42L864.636 -1736.52L833.254 -1773.84L798.293 -1795.54L753.461 -1811.17L664.704 -1830.27L642.29 -1831.13L619.877 -1822.45L552.631 -1768.63L508.701 -1749.54L463.874 -1738.25L441.456 -1726.1L418.15 -1702.66L389.46 -1648.84L374.215 -1577.67L373.318 -1542.94L397.526 -1468.29L419.94 -1431.83L458.495 -1329.4L462.08 -1275.59L468.356 -1257.36L487.185 -1230.45L509.599 -1218.3L531.115 -1215.69L553.528 -1219.16L598.356 -1236.53L620.769 -1238.26L643.183 -1233.06L666.494 -1222.64L687.117 -1204.41L696.978 -1187.05L697.876 -1168.82L691.599 -1150.59L665.601 -1115L662.909 -1096.77L670.083 -1079.41L684.425 -1061.18L731.945 -1014.31L741.805 -989.133L740.016 -970.908L731.945 -959.623L682.636 -917.955L676.359 -899.725L676.359 -881.499L687.117 -859.799L731.945 -840.7L776.772 -806.846L931.877 -832.022L954.295 -826.809L980.293 -809.453L987.467 -792.091L973.12 -773.861L931.877 -746.084L887.947 -703.552L878.086 -685.322L879.876 -667.092L908.566 -602.859L997.328 -516.053L1034.98 -435.328L1052.91 -382.375L1086.98 -346.788L1097.75 -328.558L1093.26 -274.737L1097.75 -257.38L1112.98 -239.15L1152.43 -220.92L1165.88 -203.559L1179.33 -149.742L1177.54 -79.4282L1183.81 -62.0669L1199.95 -43.8415L1241.19 -18.6659L1285.12 16.0566L1309.33 27.3413L1328.16 45.5666L1329.95 62.9279L1303.95 116.745L1298.57 152.336L1285.12 170.566L1241.19 183.584L1196.36 204.42L1173.95 206.153L1151.54 199.212L1107.61 174.036L1084.29 151.467L1072.64 97.6505L1025.12 44.6978L996.43 23.8661L930.087 -62.9356L907.674 -80.297L885.255 -85.5048L861.052 -97.6583L851.186 -115.02L841.325 -153.212L797.395 -222.658L757.947 -258.244L708.634 -313.799L654.838 -365.014L598.356 -462.236L575.942 -476.122L553.528 -476.991L531.115 -464.838L518.562 -453.553L498.84 -418.835L493.457 -383.244L510.496 -312.066L520.357 -293.836L565.184 -240.883L585.803 -205.296L589.392 -187.066L571.46 -133.25L577.737 -115.888L595.668 -98.5271L620.769 -83.7721L687.117 -84.6361L699.67 -80.297L710.428 -62.9356L688.015 -44.7103L680.841 -26.4802L679.944 44.6978L672.77 62.0591L642.29 95.0441L596.566 115.881L589.392 134.106L598.356 148.866L620.769 169.697L608.216 205.289L607.324 222.65L612.703 240.875L643.183 282.543L647.669 294.697L647.669 312.922L636.911 331.152L620.769 344.174L553.528 378.897L529.32 402.33L503.322 456.152L494.354 491.738L488.975 545.56L503.322 580.278L532.012 615.869L575.045 648.854L597.458 658.401L619.872 661.876L664.704 658.401L686.22 647.985L699.67 633.23L720.289 597.639L747.184 527.33L803.672 473.513L827.875 437.922L840.428 430.107L885.255 431.845L930.087 425.768L978.499 402.33L1018.84 365.006L1063.67 350.251L1082.5 366.744L1067.26 401.466L1080.71 472.644L1078.02 508.231L1069.95 526.461L1028.7 561.184L1021.54 579.414L1021.54 597.639L1028.7 616.738L1040.36 626.285L1085.19 641.913L1107.61 645.384L1129.12 641.045L1199.05 598.508L1218.78 580.282L1247.47 527.33L1262.71 509.1L1307.54 500.421L1329.95 489.137L1358.64 456.152L1396.3 394.521L1417.82 381.499L1440.23 384.974L1453.68 403.199L1471.61 457.02L1506.58 498.684L1516.44 529.067L1511.06 547.293L1463.54 582.015L1450.99 600.245L1449.19 609.792L1449.19 627.154L1461.75 680.97L1458.16 689.653" stroke="#EB0A1E" stroke-opacity="0.4" stroke-width="2" stroke-linecap="round" stroke-linejoin="round"/>
<path d="M1962.93 168.825L1961.14 165.355L1962.93 153.201" stroke="#EB0A1E" stroke-opacity="0.4" stroke-width="2" stroke-linecap="round" stroke-linejoin="round"/>
<path d="M1963.82 237.405L1933.34 200.945L1924.38 182.719L1915.41 147.128L1916.3 75.9501L1884.93 22.9974L1877.75 -30.8194L1870.58 -49.0494L1832.93 -84.6408L1822.17 -102.866L1823.96 -155.819L1814.99 -191.405L1797.06 -206.165L1752.24 -214.843L1719.96 -226.997L1702.03 -244.358L1663.47 -297.306L1641.96 -306.858L1553.2 -310.328L1530.78 -319.011L1486.85 -369.358L1406.16 -439.667L1395.4 -457.897L1383.75 -547.305L1371.2 -564.666L1331.75 -599.384L1309.33 -649.731L1273.47 -688.792L1269.89 -724.384L1274.37 -742.614L1297.68 -777.332L1319.19 -832.022L1365.82 -885.839L1371.2 -904.069L1372.09 -957.017L1397.2 -1010.84L1400.78 -1029.06L1398.09 -1082.88L1378.37 -1171.42L1375.68 -1213.96L1381.95 -1242.6L1413.34 -1295.55L1416.02 -1313.78L1410.64 -1367.6L1428.58 -1474.37L1419.61 -1485.66L1405.26 -1492.6L1330.85 -1507.36L1308.44 -1505.62L1263.61 -1488.26L1242.09 -1489.99L1152.43 -1547.28L1108.5 -1557.7L1063.67 -1555.1L1041.26 -1559.44L1018.85 -1571.59L982.089 -1616.73L939.052 -1652.32L907.675 -1673.15L862.843 -1690.51L818.913 -1727.84L751.672 -1763.43L729.254 -1765.16L618.083 -1752.14L550.837 -1720.89L484.494 -1699.19L462.081 -1683.57L427.114 -1634.96L416.356 -1599.37L416.356 -1577.67L430.699 -1524.71L469.254 -1453.53L482.699 -1383.23L517.666 -1312.04L530.219 -1293.82L552.632 -1299.03L575.046 -1297.29L697.877 -1258.23L730.151 -1236.53L745.396 -1205.27L755.256 -1169.69L754.359 -1151.46L742.704 -1115.87L742.704 -1097.64L787.531 -1027.33L803.673 -991.739L802.776 -973.509L776.773 -920.556L774.086 -902.331L783.049 -884.101L809.949 -866.74L841.326 -858.061L863.74 -856.324L930.981 -869.346L974.915 -866.74L997.329 -858.926L1019.74 -847.646L1064.57 -799.032L1097.75 -777.332L1107.61 -759.97L1096.85 -741.745L1086.98 -740.007L1042.16 -747.817L1019.74 -744.347L974.915 -726.985L946.225 -706.154L932.775 -687.924L931.878 -665.354L936.364 -652.337L975.813 -611.538L1042.16 -528.206L1059.19 -491.746L1085.19 -456.159L1100.43 -403.207L1138.09 -367.615L1148.85 -349.39L1152.43 -292.098L1161.4 -277.343L1204.43 -242.621L1211.61 -225.259L1225.95 -117.621L1242.09 -82.8986L1286.02 -39.4976L1308.44 -26.4802L1353.26 -13.458L1375.68 -0.435925L1391.81 24.7349L1390.02 42.965L1375.68 77.6876L1374.78 95.913L1405.26 167.096L1403.47 202.682L1396.3 216.573L1373.89 230.46L1351.47 232.197L1262.71 223.519L1241.2 228.727L1203.54 255.635L1177.54 309.452L1162.29 380.63L1147.05 415.352L1122.85 557.713L1130.02 575.938L1152.43 565.523L1174.85 548.161L1197.26 518.651L1220.57 469.174L1242.09 454.414L1286.02 449.206L1314.71 434.451L1329.95 416.221L1353.26 376.291L1399.89 327.682L1419.61 300.773L1442.03 282.543L1464.44 284.281L1486.85 305.981L1493.13 327.682L1497.61 381.499L1509.27 403.199L1557.68 470.038L1583.68 555.976L1583.68 574.201L1575.61 582.884L1531.68 595.037L1506.58 609.792L1506.58 627.154L1524.51 662.74L1529.89 689.653" stroke="#EB0A1E" stroke-opacity="0.4" stroke-width="2" stroke-linecap="round" stroke-linejoin="round"/>
<path d="M65.7982 22.9926L91.7962 57.7151L95.3855 75.9452L90.8989 111.532L112.42 134.97L134.834 131.499L149.176 111.532L150.073 93.3064L134.834 38.6163L116.004 22.1238L90.8989 13.4455L68.4853 12.5768L65.7982 22.9926" stroke="#EB0A1E" stroke-opacity="0.4" stroke-width="2" stroke-linecap="round" stroke-linejoin="round"/>
<path d="M1104.91 690.517L1120.16 681.839L1243.88 639.307L1276.16 610.661L1287.82 585.485L1308.43 557.708L1354.16 536.008L1376.57 531.668L1387.33 540.347L1390.92 557.708L1370.3 610.661L1373.89 664.477L1363.12 682.707L1346.09 691.386" stroke="#EB0A1E" stroke-opacity="0.4" stroke-width="2" stroke-linecap="round" stroke-linejoin="round"/>
<path d="M954.29 -2116.71L958.777 -2110.64L960.566 -2057.69L967.74 -2039.46L982.087 -2021.23L1019.74 -1994.32L1042.15 -1986.51L1086.98 -1980.43L1107.61 -1967.41L1125.54 -1897.1L1176.64 -1818.11L1221.47 -1772.1L1227.74 -1754.74L1176.64 -1711.34L1154.23 -1704.4L1087.88 -1730.44L1065.47 -1734.78L998.225 -1733.04L954.29 -1758.21L909.463 -1772.1L820.706 -1839.81L798.292 -1848.49L709.531 -1869.32L643.182 -1904.91L620.769 -1904.91L605.529 -1897.1L587.597 -1878.87L554.425 -1825.05L531.114 -1812.9L509.598 -1810.3L442.353 -1817.24L419.939 -1812.03L397.526 -1799.01L389.459 -1789.47L336.561 -1647.1L328.49 -1558.57L339.248 -1487.39L324.008 -1433.57L336.561 -1345.03L354.493 -1325.06L390.352 -1309.44L400.217 -1299.89L429.8 -1222.64L450.424 -1187.92L465.664 -1170.55L488.077 -1159.27L545.457 -1151.46L576.839 -1140.17L584.013 -1133.23L584.91 -1080.28L627.045 -990.869L626.148 -884.1L633.321 -848.513L644.08 -830.283L666.493 -808.583L695.183 -794.692L731.944 -766.914L752.563 -759.969L844.909 -759.969L847.601 -741.744L825.188 -706.152L821.598 -687.922L844.017 -581.153L856.565 -562.928L923.81 -509.106L937.255 -490.881L952.5 -437.059L1029.6 -312.933L1032.29 -241.751L1037.67 -224.389L1065.47 -183.595L1110.29 -137.587L1118.36 -116.756L1124.64 -82.0332L1121.05 -64.6719L1110.29 -43.8402L1087.88 -22.1397L1065.47 -18.6647L1043.05 -46.4418L1029.6 -82.0332L1011.67 -100.263L954.29 -147.135L909.463 -155.818L894.223 -170.573L863.738 -224.389L798.292 -294.703L754.358 -330.29L687.117 -401.473L626.148 -490.012L599.252 -511.712L532.012 -549.905L465.664 -627.16L398.423 -677.506L358.077 -722.645L309.661 -762.575L287.247 -774.729L272.008 -759.105L272.008 -740.875L277.387 -722.645L311.456 -668.828L322.214 -633.237L324.906 -526.467L353.596 -457.027L382.286 -419.703L385.87 -348.52L397.525 -330.29L423.528 -312.933L475.529 -224.389L471.94 -206.164L425.318 -170.573L411.873 -134.981L405.597 -46.4418L408.284 -28.2165L419.939 -14.3255L442.353 -3.90968L487.185 -5.64727L531.114 -14.3255L536.493 -9.9864L540.975 8.24369L539.185 43.835L499.732 114.144L487.185 156.676L442.353 164.491L419.939 173.169L409.181 203.552L411.873 220.914L419.939 236.537L457.597 273.862L490.769 345.044L457.597 451.809L453.116 487.4L458.495 541.217L479.114 594.17L522.151 647.987L553.528 673.162L598.355 687.917L665.601 691.387L687.117 687.917L709.53 675.764L731.047 648.855L766.91 595.039L782.15 559.447L798.292 539.484L887.049 503.024L954.295 483.93L975.811 478.722L998.224 486.532L991.051 505.631L973.119 523.856L965.053 542.086L961.463 595.039L954.295 622.816L948.018 631.494L887.049 674.895L874.496 693.125" stroke="#EB0A1E" stroke-opacity="0.4" stroke-width="2" stroke-linecap="round" stroke-linejoin="round"/>
<path d="M-142.205 2270.34L-133.241 2254.72L-71.3794 2210.45L-53.4476 2192.22L-22.0657 2127.99L22.7614 2106.29L43.3852 2085.45L69.3832 2014.27L81.936 1925.73L98.0732 1907.5L110.626 1900.56L133.04 1902.3L155.453 1913.58L263.039 1979.55L332.972 2047.26L355.385 2040.31L377.799 2015.14L392.146 1979.55L393.941 1925.73L367.041 1837.2L354.493 1826.78L309.661 1808.55L287.247 1791.19L243.318 1745.18L220.904 1736.5L109.729 1724.35L88.2124 1715.67L77.4542 1694.83L76.5569 1623.66L67.5886 1599.35L45.175 1583.73L0.34788 1577.65L-22.0657 1569.84L-34.6185 1551.61L-38.2029 1534.25L-6.82582 1445.71L-8.6156 1427.48L-21.1684 1415.33L-42.6846 1415.33L-87.5166 1433.56L-109.93 1435.29L-141.307 1427.48" stroke="#EB0A1E" stroke-opacity="0.4" stroke-width="2" stroke-linecap="round" stroke-linejoin="round"/>
<path d="M-142.205 2227.82L-88.414 2189.62L-75.8612 2174.86L-43.582 2102.82L0.347856 2073.3L18.2797 2050.74L41.5906 1980.42L34.4169 1926.61L40.6933 1908.38L83.7306 1872.78L111.523 1861.5L133.937 1859.77L155.453 1869.31L200.28 1905.77L245.112 1929.21L311.456 1955.25L320.419 1944.84L308.764 1873.65L299.8 1855.43L243.318 1785.11L222.694 1770.36L200.28 1766.02L133.04 1764.28L66.6913 1767.75L44.2777 1753.87L36.2115 1732.17L35.3142 1643.63L24.5561 1625.4L-22.0657 1616.71L-43.5819 1608.04L-64.2057 1589.81L-80.3429 1571.58L-89.3064 1553.35L-86.6193 1500.4L-93.793 1482.17L-142.205 1460.47" stroke="#EB0A1E" stroke-opacity="0.4" stroke-width="2" stroke-linecap="round" stroke-linejoin="round"/>
<path d="M-142.202 2193.09L-100.959 2159.24L-88.4112 2141.01L-66.8901 2087.19L-32.821 2050.74L-22.0629 2032.51L-7.72036 1997.78L-5.0284 1979.55L-8.61283 1961.33L-34.6157 1907.51L-32.821 1889.28L-22.9602 1874.52L-0.546653 1861.5L44.2805 1849.35L66.6989 1838.07L84.6259 1819.84L21.8669 1796.4L-0.546649 1772.96L-10.4075 1748.66L-12.2021 1694.84L-17.5812 1677.48L-35.513 1659.25L-66.89 1641.02L-117.101 1587.2L-128.757 1568.97L-137.72 1516.02L-143.099 1503.87" stroke="#EB0A1E" stroke-opacity="0.4" stroke-width="2" stroke-linecap="round" stroke-linejoin="round"/>
<path d="M1585.47 690.513L1591.75 716.557L1589.95 734.787L1581.88 753.012L1554.99 788.604L1563.96 806.834L1598.03 838.081L1610.58 860.651L1626.72 913.599L1624.92 949.19L1611.47 967.42L1598.03 975.23L1575.61 980.442L1505.68 984.781L1490.43 1003.01L1531.68 1027.31L1576.5 1091.55L1597.13 1099.36L1619.54 1098.49L1664.37 1087.21L1686.78 1086.34L1709.2 1093.28L1730.72 1116.72L1739.68 1144.5L1739.68 1162.73L1720.85 1215.68L1722.65 1233.91L1775.54 1270.37L1797.96 1274.71L1820.37 1266.89L1834.72 1252.14L1842.78 1233.91L1860.72 1163.6L1865.2 1126.27L1887.61 1109.78L1964.72 1161.86" stroke="#EB0A1E" stroke-opacity="0.4" stroke-width="2" stroke-linecap="round" stroke-linejoin="round"/>
<path d="M603.737 1871.92L566.981 1925.73L560.704 1943.1L564.289 1961.33L613.603 2014.27L644.082 2073.3L666.496 2090.66L684.428 2086.32L689.807 2068.09L671.875 2032.5L668.29 2015.14L669.188 1908.37L662.014 1872.78L644.082 1843.27L621.669 1845L603.737 1871.92" stroke="#EB0A1E" stroke-opacity="0.4" stroke-width="2" stroke-linecap="round" stroke-linejoin="round"/>
<path d="M932.773 770.379L946.223 752.149L952.5 716.562L932.773 696.594L908.565 715.693L902.289 733.923L902.289 752.149L910.36 770.379L932.773 770.379" stroke="#EB0A1E" stroke-opacity="0.4" stroke-width="2" stroke-linecap="round" stroke-linejoin="round"/>
<path d="M575.045 823.326L584.911 841.551L600.151 852.836L622.564 850.234L635.117 841.551L640.496 823.326L639.599 805.965L622.564 777.319L600.151 764.297L577.737 769.505L571.461 787.735L575.045 823.326" stroke="#EB0A1E" stroke-opacity="0.4" stroke-width="2" stroke-linecap="round" stroke-linejoin="round"/>
<path d="M477.321 690.515L487.187 701.8L531.116 734.789L553.53 745.205L575.944 748.676L620.771 741.73L665.603 746.938L683.53 753.015L714.912 788.606L746.293 842.423L776.773 861.522L812.637 877.145L834.153 895.375L821.6 904.054L776.773 906.66L753.462 912.737L709.532 937.908L665.603 943.116L598.357 967.422L575.944 968.291L509.6 932.7L488.976 930.962L486.289 930.962L464.768 950.93L442.355 962.214L419.941 957.871L410.08 949.192L402.906 930.962L406.496 912.737L419.044 891.032L436.078 877.145L419.941 859.784L396.63 855.445L352.7 876.277L330.287 873.675L305.181 841.554L285.46 829.405L219.111 819.854L151.871 794.683L107.039 789.475L63.1088 796.416L48.7663 805.967L35.3162 841.554L43.3872 894.507L40.6953 912.737L18.2817 937.908L5.72892 948.323L-25.6481 958.739L-91.9964 963.083L-111.723 930.962L-99.1701 895.375L-78.5463 860.653L-72.2699 842.423L-72.2699 824.197L-88.4119 753.015L-113.513 727.844L-135.926 720.03L-144.895 720.03" stroke="#EB0A1E" stroke-opacity="0.4" stroke-width="2" stroke-linecap="round" stroke-linejoin="round"/>
<path d="M1060.98 2272.95L1073.54 2246.04L1075.33 2227.81L1071.74 2173.99L1064.57 2156.63L999.123 2108.02L938.154 2050.74L906.777 1980.42L903.188 1944.84L911.259 1909.24L925.601 1873.65L918.432 1766.88L904.982 1731.3L867.329 1675.74L837.742 1607.17L821.6 1582L799.186 1570.71L754.359 1567.24L709.532 1556.82L643.183 1525.57L620.77 1519.5L575.943 1517.76L487.186 1524.7L477.32 1516.02L475.53 1497.79L501.528 1408.39L537.392 1354.57L540.976 1337.2L533.803 1301.62L521.255 1284.26L443.251 1208.74L400.219 1141.9L356.284 1106.31L310.56 1055.96L288.146 1047.28L265.732 1054.22L251.385 1070.72L221.803 1123.67L199.384 1120.19L176.971 1092.42L154.557 1078.53L132.143 1079.4L88.2136 1105.44L65.8 1103.7L20.968 1061.17L-1.44555 1050.75L-45.3754 1064.64L-112.616 1078.53L-127.861 1088.08L-143.998 1115.86" stroke="#EB0A1E" stroke-opacity="0.4" stroke-width="2" stroke-linecap="round" stroke-linejoin="round"/>
<path d="M1963.82 1549.01L1953.96 1556.82L1931.55 1564.63L1864.3 1561.16L1842.79 1564.63L1820.37 1575.92L1797.96 1609.77L1775.55 1623.66L1753.13 1613.24L1686.78 1543.8L1664.37 1533.38L1641.96 1531.65L1597.13 1536.86L1574.72 1544.67L1530.78 1586.33L1442.03 1606.3L1353.26 1653.17L1330.85 1650.57L1308.44 1639.28L1286.02 1635.81L1263.61 1644.49L1242.09 1664.46L1234.02 1677.48L1229.54 1694.84L1258.23 1801.61L1287.82 1845.88L1309.33 1859.77L1354.16 1870.18L1361.33 1890.15L1361.33 1908.38L1354.16 1928.34L1332.64 1940.49L1287.82 1924.87L1265.4 1923.13L1243.88 1928.34L1216.99 1943.97L1205.33 1962.19L1203.54 1980.42L1208.02 2068.09L1246.57 2192.22L1297.68 2272.95" stroke="#EB0A1E" stroke-opacity="0.4" stroke-width="2" stroke-linecap="round" stroke-linejoin="round"/>
<path d="M999.123 2272.95L1013.47 2246.04L1014.36 2210.45L1005.4 2192.22L972.223 2157.5L956.086 2121.91L940.846 2103.68L896.019 2068.09L855.673 1979.55L854.776 1961.33L870.016 1871.92L872.708 1783.38L861.945 1747.79L800.083 1641.02L711.326 1600.22L622.564 1575.92L577.737 1575.92L555.324 1588.94L544.566 1605.43L524.839 1622.79L488.976 1634.07L466.562 1625.4L444.148 1601.96L421.735 1588.94L377.805 1578.52L359.873 1569.84L366.15 1551.61L400.219 1516.89L413.664 1481.3L415.458 1463.07L382.287 1391.89L378.697 1356.3L384.974 1338.94L400.219 1318.11L445.046 1310.3L453.112 1303.35L454.009 1285.99L438.769 1250.4L410.079 1214.81L377.805 1162.73L332.973 1131.48L310.559 1121.06L288.146 1128.01L244.216 1228.7L221.802 1251.27L199.389 1246.06L154.557 1179.22L132.143 1174.88L88.2136 1180.09L65.8 1177.49L43.3864 1167.94L-1.44557 1139.29L-23.8591 1135.82L-45.3754 1137.56L-67.789 1146.24L-112.616 1202.66L-135.03 1204.39L-143.998 1199.19" stroke="#EB0A1E" stroke-opacity="0.4" stroke-width="2" stroke-linecap="round" stroke-linejoin="round"/>
<path d="M1963.82 1613.24L1931.55 1625.4L1886.72 1630.6L1864.3 1640.15L1842.79 1674.87L1820.37 1687.03L1753.13 1675.74L1730.72 1667.06L1710.99 1642.76L1692.16 1607.17L1674.23 1588.94L1641.96 1574.18L1619.54 1575.05L1597.13 1587.2L1587.27 1606.3L1579.2 1660.12L1574.72 1666.19L1553.2 1666.19L1508.37 1647.1L1485.95 1644.49L1463.54 1651.44L1436.65 1678.34L1433.06 1695.71L1461.75 1731.3L1468.92 1766.88L1455.47 1820.7L1457.26 1855.43L1472.5 1873.65L1508.37 1894.48L1547.82 1908.38L1563.96 1926.61L1551.41 1943.97L1520.92 1961.33L1509.27 1976.95L1510.16 2031.64L1501.19 2049.87L1442.92 2067.23L1398.99 2071.57L1376.57 2068.96L1357.75 2049L1346.09 2013.41L1325.47 1996.05L1287.82 1976.08L1265.4 1976.08L1256.44 1996.05L1274.37 2138.41L1286.92 2167.92L1314.71 2210.45L1332.64 2228.68L1354.16 2239.97L1420.5 2234.76L1435.75 2246.91L1447.4 2264.27L1448.3 2272.95" stroke="#EB0A1E" stroke-opacity="0.4" stroke-width="2" stroke-linecap="round" stroke-linejoin="round"/>
<path d="M922.913 2272.95L961.464 2246.04L968.637 2227.81L965.053 2209.58L938.153 2173.99L912.155 2121.05L864.636 2085.45L852.083 2067.23L810.84 1978.68L808.153 1943.1L828.772 1871.92L830.567 1783.38L820.706 1747.79L790.221 1694.84L768.705 1677.48L688.014 1635.81L644.08 1623.66L614.492 1624.53L544.564 1660.12L488.974 1676.61L466.561 1672.27L421.734 1639.28L399.32 1631.47L355.385 1629.74L332.972 1623.66L289.042 1606.3L268.423 1588.07L266.628 1569.84L273.802 1551.61L343.735 1480.43L344.627 1462.2L330.285 1426.61L328.49 1408.39L349.114 1284.26L369.733 1248.66L372.425 1230.44L358.975 1194.85L333.869 1179.22L311.456 1190.51L290.837 1230.44L255.87 1390.16L245.112 1408.39L223.591 1430.09L201.178 1441.37L178.764 1443.1L163.524 1425.75L163.524 1338.94L158.145 1267.76L150.971 1249.53L133.937 1231.3L111.523 1226.96L45.175 1235.65L-22.0657 1212.21L-43.5819 1220.89L-65.9955 1249.53L-88.4091 1264.29L-110.827 1271.23L-133.241 1269.5L-142.205 1262.56" stroke="#EB0A1E" stroke-opacity="0.4" stroke-width="2" stroke-linecap="round" stroke-linejoin="round"/>
<path d="M863.74 2272.08L873.6 2263.4L901.398 2227.81L906.777 2209.58L887.948 2146.21L844.018 2102.81L831.465 2085.45L781.254 1996.91L766.912 1961.32L767.809 1943.09L785.741 1889.27L787.531 1782.51L777.67 1751.25L762.43 1728.69L726.566 1693.1L700.564 1675.74L667.392 1664.45L644.978 1666.19L556.221 1697.44L535.598 1711.32L512.287 1746.05L489.873 1752.12L422.632 1682.68L400.219 1674L356.284 1681.81L334.768 1676.61L289.941 1646.22L223.593 1631.47L208.353 1622.78L198.492 1605.42L198.492 1587.2L212.834 1551.61L250.493 1498.66L252.283 1480.43L245.114 1476.09L177.868 1489.11L155.455 1489.11L126.765 1480.43L112.422 1462.2L110.627 1444.84L117.801 1391.02L117.801 1337.2L105.248 1301.61L90.0086 1280.78L1.24678 1272.1L-21.1668 1277.31L-87.515 1308.56L-109.929 1313.77L-132.342 1312.03L-141.306 1308.56" stroke="#EB0A1E" stroke-opacity="0.4" stroke-width="2" stroke-linecap="round" stroke-linejoin="round"/>
<path d="M422.633 2272.08L428.909 2227.81L443.252 2178.33L465.665 2153.16L488.079 2160.97L576.841 2233.02L621.668 2261.66L688.016 2269.47L700.564 2272.08" stroke="#EB0A1E" stroke-opacity="0.4" stroke-width="2" stroke-linecap="round" stroke-linejoin="round"/>
<path d="M-21.1687 2272.95L22.7611 2230.42L45.1747 2213.06L90.8991 2192.22L124.076 2157.5L155.453 2107.15L177.866 2105.42L215.525 2192.22L228.073 2210.45L302.492 2272.95" stroke="#EB0A1E" stroke-opacity="0.4" stroke-width="2" stroke-linecap="round" stroke-linejoin="round"/>
<path d="M-66.8912 2272.95L-15.7877 2228.68L22.7631 2183.55L67.5902 2160.11L90.0038 2142.75L133.938 2062.02L156.352 2033.37L178.766 2029.9L201.179 2034.24L220.008 2049L224.49 2067.23L227.182 2121.05L238.837 2156.63L248.698 2173.99L266.63 2196.56L311.457 2237.36L333.871 2254.72L355.387 2264.27L377.805 2259.06L385.872 2246.04L397.527 2210.45L412.767 2121.91L422.633 2101.95L445.046 2090.66L467.46 2093.27L489.873 2103.68L578.635 2186.15L623.462 2214.79L645.876 2221.74L756.154 2235.62L800.981 2248.65L826.087 2246.04L844.911 2231.29L855.674 2210.45L859.258 2174.86L821.6 2121.91L742.704 1979.55L739.119 1943.97L751.672 1890.15L753.462 1854.56L739.119 1766.02L717.603 1730.43L690.703 1706.99L669.187 1698.31L646.773 1699.18L602.839 1712.2L574.149 1730.43L534.7 1793.8L513.184 1817.23L490.771 1817.23L468.357 1801.61L423.53 1746.92L401.116 1735.64L334.768 1732.17L267.527 1686.16L178.766 1677.48L161.731 1660.12L157.249 1649.7L142.902 1588.94L127.662 1553.35L111.525 1535.99L82.8349 1518.63L69.3849 1500.4L76.5586 1410.99L68.4875 1370.19L53.2477 1339.81L23.6604 1324.19L1.24683 1321.58L-21.1667 1326.79L-87.515 1352.83L-132.342 1351.96L-141.306 1349.36" stroke="#EB0A1E" stroke-opacity="0.4" stroke-width="2" stroke-linecap="round" stroke-linejoin="round"/>
<path d="M-112.616 2272.95L-109.929 2269.48L-65.1022 2238.23L-34.6176 2210.45L1.24607 2157.5L46.0732 2133.2L68.4868 2114.97L98.9714 2049.87L116.006 1979.55L133.938 1955.25L156.351 1958.72L223.592 1992.58L253.179 2014.28L267.527 2031.64L274.696 2049.87L261.25 2103.68L265.732 2139.28L289.94 2172.26L334.767 2206.11L357.181 2202.64L376.01 2104.55L394.839 2068.09L423.529 2042.92L445.943 2035.98L468.356 2039.45L523.942 2068.09L581.322 2139.28L623.462 2172.26L645.875 2183.55L689.805 2189.62L757.051 2187.02L779.464 2182.68L792.017 2173.99L792.909 2156.63L770.496 2085.45L753.461 2049.87L730.15 2014.28L717.603 1979.55L714.911 1943.97L722.084 1890.15L722.084 1854.56L713.116 1784.24L708.634 1766.88L697.876 1748.66L669.186 1727.82L646.772 1726.09L624.359 1733.03L601.048 1747.79L580.424 1775.57L549.944 1836.33L535.597 1856.29L514.081 1867.58L491.667 1867.58L465.664 1853.69L424.422 1799.87L402.008 1782.51L335.665 1776.44L313.251 1767.75L268.419 1725.22L246.903 1713.07L179.662 1707.86L134.835 1694.84L120.488 1675.74L113.314 1621.92L100.766 1586.33L86.4187 1568.1L69.3841 1555.95L23.6597 1532.51L18.2806 1515.16L20.9677 1496.93L35.3151 1461.33L39.7969 1425.75L33.5205 1407.52L20.9677 1389.29L3.04075 1374.53L-12.204 1371.06L-40.8939 1371.93L-108.135 1394.5L-130.548 1392.76L-139.517 1388.42" stroke="#EB0A1E" stroke-opacity="0.4" stroke-width="2" stroke-linecap="round" stroke-linejoin="round"/>
<path d="M1963.82 1918.79L1953.96 1917.92L1915.41 1925.74L1891.2 1943.1L1884.93 1996.92L1866.99 2031.64L1864.3 2049.87L1875.96 2068.09L1909.13 2099.35L1959.34 2157.5L1963.82 2163.58" stroke="#EB0A1E" stroke-opacity="0.4" stroke-width="2" stroke-linecap="round" stroke-linejoin="round"/>
<path d="M1963.82 1978.69L1953.96 1974.35L1931.55 1992.58L1918.99 2031.64L1923.48 2049.87L1947.68 2085.45L1963.82 2106.29" stroke="#EB0A1E" stroke-opacity="0.4" stroke-width="2" stroke-linecap="round" stroke-linejoin="round"/>
<path d="M1458.16 690.517L1454.58 699.2L1398.99 752.148L1391.82 770.378L1400.79 788.608L1439.34 824.199L1468.92 859.786L1466.24 877.147L1442.93 882.355L1376.58 883.224L1355.96 894.509L1346.09 948.325L1334.44 966.555L1309.34 983.917L1286.92 989.125L1264.51 987.387L1131.82 944.855L1110.3 949.194L1087.88 966.555L1072.64 983.048L1067.26 1001.28L1069.06 1019.5L1083.4 1054.23L1110.3 1082.87L1176.64 1117.59L1265.4 1184.43L1310.23 1226.97L1332.65 1241.73L1355.06 1247.8L1377.47 1244.33L1390.03 1233.04L1402.58 1214.81L1421.4 1132.35L1443.82 1123.67L1470.72 1126.27L1488.65 1136.69L1514.65 1161.86L1554.99 1182.7L1576.51 1191.38L1621.34 1200.06L1626.72 1214.81L1626.72 1250.4L1631.2 1268.63L1643.75 1292.07L1673.34 1321.58L1693.96 1374.53L1717.27 1391.9L1754.03 1410.12L1798.86 1411.86L1821.27 1402.31L1865.2 1345.02L1910.04 1307.7L1932.45 1294.67L1962.93 1338.94L1964.72 1339.81" stroke="#EB0A1E" stroke-opacity="0.4" stroke-width="2" stroke-linecap="round" stroke-linejoin="round"/>
<path d="M1529.89 690.513L1531.68 699.196L1520.92 716.557L1486.85 733.919L1466.23 752.144L1462.64 770.374L1471.61 788.604L1487.75 806.834L1563.06 877.143L1569.33 895.373L1565.75 913.599L1554.09 925.752L1531.68 932.698L1486.85 934.435L1442.02 929.227L1419.61 932.698L1404.36 950.059L1373.88 1003.88L1353.26 1022.11L1330.85 1031.65L1286.02 1031.65L1197.26 1016.9L1152.43 998.668L1130.02 996.066L1117.46 1003.88L1111.19 1022.11L1120.16 1039.47L1130.02 1048.15L1174.84 1062.9L1219.67 1106.31L1294.09 1146.24L1330.85 1174.01L1353.26 1182.69L1364.02 1092.41L1375.67 1067.24L1398.09 1056.83L1497.61 1075.06L1510.16 1081.14L1539.75 1128.88L1554.99 1140.16L1576.5 1147.97L1665.27 1128.88L1687.68 1132.35L1697.54 1147.11L1699.33 1165.33L1674.23 1235.64L1676.02 1253.87L1687.68 1266.89L1725.34 1289.46L1736.99 1306.82L1740.58 1342.41L1747.75 1359.77L1776.44 1371.92L1798.85 1363.25L1822.17 1325.05L1864.3 1284.25L1872.37 1271.23L1890.3 1217.41L1909.13 1195.71L1931.55 1193.11L1953.96 1200.92L1963.82 1207.87" stroke="#EB0A1E" stroke-opacity="0.4" stroke-width="2" stroke-linecap="round" stroke-linejoin="round"/>
<path d="M510.491 1914.45L489.872 1926.61L474.633 1943.97L473.735 1962.19L483.596 1980.42L508.702 1998.65L556.221 2019.49L578.634 2047.26L604.632 2104.56L643.183 2140.15L667.391 2148.82L688.907 2150.56L711.326 2147.09L726.566 2139.28L735.529 2121.05L735.529 2085.46L731.047 2068.1L701.46 2014.28L696.081 1996.92L691.599 1961.33L694.291 1890.15L688.907 1839.8L683.528 1801.61L667.391 1769.49L644.978 1768.62L622.564 1781.65L590.29 1819.84L566.081 1872.79L556.216 1884.94L510.491 1914.45" stroke="#EB0A1E" stroke-opacity="0.4" stroke-width="2" stroke-linecap="round" stroke-linejoin="round"/>
<path d="M440.565 1089.81L444.15 1081.13L466.563 1073.32L488.977 1077.66L525.738 1108.04L525.738 1125.4L510.493 1138.42L488.079 1140.16L465.666 1125.4L440.565 1089.81" stroke="#EB0A1E" stroke-opacity="0.4" stroke-width="2" stroke-linecap="round" stroke-linejoin="round"/>
<path d="M197.592 1837.2L209.248 1854.56L222.693 1864.97L237.041 1854.56L233.456 1837.2L222.693 1820.7L200.28 1821.57L197.592 1837.2" stroke="#EB0A1E" stroke-opacity="0.4" stroke-width="2" stroke-linecap="round" stroke-linejoin="round"/>
<path d="M1963.83 1654.04L1953.96 1656.64L1931.55 1668.8L1909.14 1694.84L1886.72 1746.05L1864.31 1756.47L1731.61 1715.67L1709.2 1705.25L1682.31 1677.48L1664.37 1646.23L1641.96 1635.81L1639.27 1677.48L1632.1 1694.84L1614.17 1712.2L1554.1 1747.79L1552.31 1766.02L1557.68 1801.61L1565.75 1819.84L1619.55 1880.6L1664.37 1918.79L1669.75 1926.61L1670.65 1943.97L1644.65 1962.19L1594.44 1981.29L1572.03 1999.52L1573.82 2016.88L1599.82 2068.09L1602.51 2086.32L1598.03 2095.87L1554.1 2094.14L1509.27 2099.34L1459.96 2121.91L1447.41 2140.14L1465.34 2171.39L1492.23 2246.91L1492.23 2272.95" stroke="#EB0A1E" stroke-opacity="0.4" stroke-width="2" stroke-linecap="round" stroke-linejoin="round"/>
<path d="M1963.83 1690.49L1953.97 1694.83L1938.73 1712.19L1909.14 1785.11L1886.73 1806.81L1864.31 1806.81L1797.96 1773.82L1730.72 1764.28L1686.79 1745.18L1664.38 1740.84L1641.96 1748.65L1618.65 1766.88L1609.69 1784.24L1617.75 1819.83L1641.96 1847.61L1686.79 1877.99L1718.17 1908.37L1746.86 1943.96L1753.14 1962.19L1746.86 1980.42L1730.72 1989.1L1664.38 1996.04L1641.96 2010.8L1637.48 2015.14L1638.38 2032.5L1659.89 2068.09L1664.38 2086.32L1653.62 2121.91L1642.86 2136.66L1620.45 2148.82L1554.1 2149.69L1534.38 2157.5L1525.41 2174.86L1524.51 2193.09L1553.2 2253.85L1574.72 2255.59L1641.96 2203.5L1664.38 2191.35L1730.72 2180.93L1797.96 2161.84L1820.38 2168.78L1835.62 2192.22L1834.73 2210.45L1809.62 2246.04L1802.45 2263.4L1804.24 2272.08" stroke="#EB0A1E" stroke-opacity="0.4" stroke-width="2" stroke-linecap="round" stroke-linejoin="round"/>
<path d="M1963.83 1752.99L1953.97 1768.62L1937.83 1818.96L1924.38 1837.19L1909.14 1846.74L1886.73 1848.48L1864.31 1841.53L1797.96 1813.75L1746.86 1818.96L1720.86 1837.19L1728.93 1854.55L1786.31 1925.73L1801.55 1961.32L1802.45 1979.55L1795.27 1997.78L1775.55 2012.53L1719.96 2033.37L1708.31 2050.73L1693.07 2121.91L1700.24 2140.14L1709.2 2145.35L1731.62 2146.21L1798.86 2126.25L1821.28 2127.12L1843.69 2135.79L1865.21 2157.5L1884.93 2192.22L1888.52 2210.45L1885.83 2246.04L1893 2263.4L1906.45 2272.08" stroke="#EB0A1E" stroke-opacity="0.4" stroke-width="2" stroke-linecap="round" stroke-linejoin="round"/>
<path d="M1963.82 1874.52L1931.55 1885.81L1909.14 1888.41L1842.79 1878L1824.86 1890.15L1823.07 1908.38L1839.2 1962.19L1841.89 1980.42L1837.41 1998.65L1819.48 2019.49L1777.34 2050.74L1771.96 2068.09L1803.34 2086.32L1842.79 2100.21L1874.17 2121.92L1906.44 2157.5L1929.75 2192.22L1940.51 2246.05L1963.82 2261.67" stroke="#EB0A1E" stroke-opacity="0.4" stroke-width="2" stroke-linecap="round" stroke-linejoin="round"/>
<path d="M1646.44 690.516L1649.13 716.56L1628.51 770.377L1626.72 788.607L1646.44 842.424L1657.2 895.376L1672.44 930.963L1676.93 966.554L1665.27 990.861L1627.62 1020.37L1627.62 1037.73L1642.86 1042.94L1709.2 1043.81L1740.58 1055.96L1768.37 1074.19L1775.55 1083.74L1797.96 1086.35L1807.82 1038.6L1819.48 1022.98L1841.89 1014.29L1864.3 1014.29L1886.72 1020.37L1931.55 1043.81L1947.69 1038.6L1945.89 1021.24L1892.99 950.062L1884.93 931.832L1887.62 907.53L1910.03 890.168L1964.72 865.862" stroke="#EB0A1E" stroke-opacity="0.4" stroke-width="2" stroke-linecap="round" stroke-linejoin="round"/>
<path d="M1709.2 690.515L1676.03 770.376L1676.92 788.606L1687.68 824.197L1691.27 877.145L1731.61 954.4L1754.03 974.367L1776.44 973.498L1798.86 962.214L1814.1 948.323L1823.96 930.093L1842.79 855.444L1864.3 813.776L1886.72 812.044L1931.55 829.405L1963.82 825.061" stroke="#EB0A1E" stroke-opacity="0.4" stroke-width="2" stroke-linecap="round" stroke-linejoin="round"/>
<path d="M1822.17 690.515L1829.34 699.198L1908.24 762.566L1930.65 773.851L1953.07 779.059L1962.93 779.059" stroke="#EB0A1E" stroke-opacity="0.4" stroke-width="2" stroke-linecap="round" stroke-linejoin="round"/>
<path d="M1348.78 2174.86L1354.16 2180.07L1376.58 2181.81L1415.13 2157.5L1420.51 2143.61L1430.37 2139.27L1398.99 2125.38L1354.16 2126.25L1336.23 2138.4L1337.13 2156.63L1348.78 2174.86" stroke="#EB0A1E" stroke-opacity="0.4" stroke-width="2" stroke-linecap="round" stroke-linejoin="round"/>
<path d="M1731.61 769.509L1740.58 805.969L1745.96 859.786L1753.13 872.808L1775.55 879.749L1787.2 859.786L1791.69 824.195L1775.55 760.831L1753.13 746.071L1743.27 753.017L1731.61 769.509" stroke="#EB0A1E" stroke-opacity="0.4" stroke-width="2" stroke-linecap="round" stroke-linejoin="round"/>
<path d="M130.349 875.405L156.352 881.481L163.525 875.405L165.315 858.043L155.454 847.628L139.317 839.818L128.559 839.818L119.591 858.043L130.349 875.405" stroke="#EB0A1E" stroke-opacity="0.4" stroke-width="2" stroke-linecap="round" stroke-linejoin="round"/>
<path d="M1346.99 689.651L1329.95 698.329L1310.23 715.69L1300.37 733.92L1300.37 769.507L1312.02 823.329L1265.4 887.561L1243.88 910.999L1221.47 916.207L1199.06 914.469L1131.81 892.769L1110.29 893.638L1087.88 901.452L1065.47 922.284L1030.5 966.553L1021.54 983.915L1008.09 1019.5L1011.67 1036.86L1021.54 1042.07L1074.43 1108.91L1095.05 1127.14L1221.47 1207.87L1309.33 1279.92L1354.16 1297.28L1376.57 1295.54L1398.99 1284.26L1436.65 1251.27L1465.34 1213.08L1510.16 1273.84L1532.58 1296.41L1554.99 1292.93L1576.51 1308.56L1628.51 1392.76L1642.85 1408.39L1687.68 1437.03L1731.61 1456.13L1797.96 1460.47L1820.37 1457.86L1842.79 1445.71L1886.72 1410.12L1901.96 1445.71L1919.89 1463.07L1930.65 1470.02L1953.07 1473.49L1962.93 1472.62" stroke="#EB0A1E" stroke-opacity="0.4" stroke-width="2" stroke-linecap="round" stroke-linejoin="round"/>
<path d="M875.396 690.516L869.12 699.199L853.88 733.922L852.085 769.509L864.638 805.1L887.051 822.461L910.362 825.932L932.776 820.724L963.26 804.231L981.192 786.87L999.124 752.147L1021.54 724.37L1043.95 729.583L1066.36 720.9L1089.68 698.33L1104.92 689.652" stroke="#EB0A1E" stroke-opacity="0.4" stroke-width="2" stroke-linecap="round" stroke-linejoin="round"/>
<path d="M2152.1 250.422L2144.03 236.536L2109.06 207.89L2064.24 183.583L2040.93 165.358L2033.75 147.128L2040.93 75.9495L2036.44 41.2269L2026.58 22.9969L1975.48 -28.2183L1962.92 -57.7283" stroke="#EB0A1E" stroke-opacity="0.4" stroke-width="2" stroke-linecap="round" stroke-linejoin="round"/>
<path d="M2152.1 513.438L2131.48 510.837L2086.66 496.077L2065.14 467.431L2057.07 413.615L2020.31 356.323L2005.07 343.305L1976.38 328.546L1963.83 315.528" stroke="#EB0A1E" stroke-opacity="0.4" stroke-width="2" stroke-linecap="round" stroke-linejoin="round"/>
<path d="M2152.1 556.84L2086.66 537.746L2054.38 521.253L2041.83 505.629L2019.42 433.583L1963.83 366.744" stroke="#EB0A1E" stroke-opacity="0.4" stroke-width="2" stroke-linecap="round" stroke-linejoin="round"/>
<path d="M2152.1 626.282L2136.86 609.79L2083.07 574.198L2019.42 542.082L1997 521.25L1989.83 467.434L1982.65 449.204L1963.83 423.159" stroke="#EB0A1E" stroke-opacity="0.4" stroke-width="2" stroke-linecap="round" stroke-linejoin="round"/>
<path d="M2100.99 690.517L1994.3 574.2L1962.92 555.106" stroke="#EB0A1E" stroke-opacity="0.4" stroke-width="2" stroke-linecap="round" stroke-linejoin="round"/>
<path d="M1963.82 152.334L1964.72 147.126L1991.61 93.3093L1992.51 57.7179L1975.48 30.8096L1962.92 22.9953" stroke="#EB0A1E" stroke-opacity="0.4" stroke-width="2" stroke-linecap="round" stroke-linejoin="round"/>
<path d="M2152.1 414.482V414.482L2131.48 384.099L2099.21 289.483L2086.66 264.312L2064.24 246.951L2019.42 228.721L1982.65 200.944L1969.2 183.583L1963.83 169.696" stroke="#EB0A1E" stroke-opacity="0.4" stroke-width="2" stroke-linecap="round" stroke-linejoin="round"/>
<path d="M2152.1 467.434L2131.48 468.298L2109.06 462.221L2099.2 450.072L2090.24 396.251L2075 361.528L2063.34 307.712L2040.93 289.482L1996.99 279.066L1962.92 238.271" stroke="#EB0A1E" stroke-opacity="0.4" stroke-width="2" stroke-linecap="round" stroke-linejoin="round"/>
<path d="M2152.1 1082.87L2146.72 1054.23L2146.72 1036L2152.1 1028.19" stroke="#EB0A1E" stroke-opacity="0.4" stroke-width="2" stroke-linecap="round" stroke-linejoin="round"/>
<path d="M1963.83 1340.68L1976.38 1349.36L1998.79 1345.89L2065.14 1299.01L2087.55 1297.28L2132.38 1305.09L2153 1295.54" stroke="#EB0A1E" stroke-opacity="0.4" stroke-width="2" stroke-linecap="round" stroke-linejoin="round"/>
<path d="M1963.83 1204.4L1977.28 1213.95L1997.89 1241.73L2019.42 1254.74L2108.17 1249.54L2123.41 1231.31L2135.97 1195.72L2132.38 1161L2109.07 1089.82L2055.27 1001.28L2051.69 965.688L2064.24 955.272L2109.07 949.196L2152.1 931.834" stroke="#EB0A1E" stroke-opacity="0.4" stroke-width="2" stroke-linecap="round" stroke-linejoin="round"/>
<path d="M1963.83 1472.62L1976.38 1471.75L1998.79 1467.41L2020.31 1455.26L2065.14 1385.82L2087.55 1372.79L2152.1 1373.66" stroke="#EB0A1E" stroke-opacity="0.4" stroke-width="2" stroke-linecap="round" stroke-linejoin="round"/>
<path d="M2152.1 1786.85L2109.07 1748.66L2092.93 1729.56L2064.24 1668.8L2041.83 1644.49L2019.42 1639.28L1963.83 1654.04" stroke="#EB0A1E" stroke-opacity="0.4" stroke-width="2" stroke-linecap="round" stroke-linejoin="round"/>
<path d="M2152.1 1851.08L2089.34 1801.61L2032.86 1712.2L2019.41 1699.18L1997.89 1688.76L1975.48 1686.16L1962.92 1691.37" stroke="#EB0A1E" stroke-opacity="0.4" stroke-width="2" stroke-linecap="round" stroke-linejoin="round"/>
<path d="M2152.1 1924.87L2131.48 1913.58L2048.1 1838.07L2024.79 1802.47L1997.89 1743.45L1975.48 1734.77L1962.92 1753.87" stroke="#EB0A1E" stroke-opacity="0.4" stroke-width="2" stroke-linecap="round" stroke-linejoin="round"/>
<path d="M2152.1 1967.4L2109.06 1948.3L2064.24 1906.64L1997.89 1868.44L1975.48 1870.18L1962.92 1874.52" stroke="#EB0A1E" stroke-opacity="0.4" stroke-width="2" stroke-linecap="round" stroke-linejoin="round"/>
<path d="M1963.83 864.124L1976.38 858.916L1998.79 855.446L2065.14 864.993L2087.55 863.26L2153 843.293" stroke="#EB0A1E" stroke-opacity="0.4" stroke-width="2" stroke-linecap="round" stroke-linejoin="round"/>
<path d="M1963.83 825.93L1997.89 820.722L2064.24 829.405L2093.83 824.193L2152.1 800.759" stroke="#EB0A1E" stroke-opacity="0.4" stroke-width="2" stroke-linecap="round" stroke-linejoin="round"/>
<path d="M1963.83 779.062L1997.89 778.193L2064.24 789.478L2086.66 783.401L2109.07 764.302L2116.24 752.149L2118.03 733.923L2109.07 698.332L2101.9 690.518" stroke="#EB0A1E" stroke-opacity="0.4" stroke-width="2" stroke-linecap="round" stroke-linejoin="round"/>
<path d="M1964.72 1160.12L1977.28 1167.94L2021.21 1188.77L2066.03 1186.16L2077.69 1179.22L2086.66 1160.99L2086.66 1125.4L2071.41 1089.82L2030.17 1035.99L1973.69 947.455L1966.52 929.229L1976.38 909.262L1998.79 897.977L2020.31 895.375L2087.55 904.054L2109.97 901.452L2153 886.692" stroke="#EB0A1E" stroke-opacity="0.4" stroke-width="2" stroke-linecap="round" stroke-linejoin="round"/>
<path d="M1963.83 2163.58L1971 2174.86L1987.14 2227.81L2014.93 2246.04L2064.24 2255.59L2076.8 2264.27L2080.38 2272.95" stroke="#EB0A1E" stroke-opacity="0.4" stroke-width="2" stroke-linecap="round" stroke-linejoin="round"/>
<path d="M2152.1 2009.93L2109.07 1994.31L1991.62 1925.73L1976.38 1919.66L1963.83 1918.79" stroke="#EB0A1E" stroke-opacity="0.4" stroke-width="2" stroke-linecap="round" stroke-linejoin="round"/>
<path d="M1963.83 2106.29L2005.07 2157.5L2020.31 2182.68L2042.72 2196.56L2087.55 2199.17L2109.97 2207.85L2127.9 2228.68L2136.86 2246.91L2142.24 2272.95" stroke="#EB0A1E" stroke-opacity="0.4" stroke-width="2" stroke-linecap="round" stroke-linejoin="round"/>
<path d="M2152.1 2062.88L2131.48 2052.47L2065.14 2039.45L1976.38 1984.76L1963.83 1979.55" stroke="#EB0A1E" stroke-opacity="0.4" stroke-width="2" stroke-linecap="round" stroke-linejoin="round"/>
<path d="M2152.1 1489.11L2140.45 1481.3L2128.8 1463.07L2108.17 1467.41L2100.11 1481.3L2080.38 1499.53L2041.83 1503.87L2005.97 1516.89L1963.83 1549.01" stroke="#EB0A1E" stroke-opacity="0.4" stroke-width="2" stroke-linecap="round" stroke-linejoin="round"/>
<path d="M2152.1 1730.43L2131.48 1711.33L2070.52 1605.43L2041.83 1589.8L2019.42 1592.41L1963.83 1612.37" stroke="#EB0A1E" stroke-opacity="0.4" stroke-width="2" stroke-linecap="round" stroke-linejoin="round"/>
</g>
<defs>
<clipPath id="clip0_403_811">
<rect width="2174" height="2174" fill="white"/>
</clipPath>
</defs>
</svg>
