<?xml version="1.0" encoding="UTF-8"?>
<svg version="1.1" xmlns="http://www.w3.org/2000/svg" width="174" height="163">
<path d="M0 0 C57.42 0 114.84 0 174 0 C174 53.79 174 107.58 174 163 C116.58 163 59.16 163 0 163 C0 109.21 0 55.42 0 0 Z " fill="#FEFEFE" transform="translate(0,0)"/>
<path d="M0 0 C8.5791524 7.37611136 8.5791524 7.37611136 9.3515625 12.72167969 C7.3715625 11.73167969 5.3915625 10.74167969 3.3515625 9.72167969 C3.3515625 9.06167969 3.3515625 8.40167969 3.3515625 7.72167969 C2.4440625 7.59792969 1.5365625 7.47417969 0.6015625 7.34667969 C-2.23814073 6.80058291 -4.17434341 6.14904166 -6.6484375 4.72167969 C-6.6484375 5.38167969 -6.6484375 6.04167969 -6.6484375 6.72167969 C-8.2984375 6.39167969 -9.9484375 6.06167969 -11.6484375 5.72167969 C-11.6484375 5.06167969 -11.6484375 4.40167969 -11.6484375 3.72167969 C-12.37546875 3.43292969 -13.1025 3.14417969 -13.8515625 2.84667969 C-15.57625766 2.15294756 -17.2962148 1.44712507 -19.0078125 0.72167969 C-26.43589202 -2.38549083 -33.50714936 -4.69582227 -41.6484375 -4.27832031 C-41.0090625 -3.49457031 -40.3696875 -2.71082031 -39.7109375 -1.90332031 C-36.86835095 2.27518147 -36.84304556 6.79809567 -36.6484375 11.72167969 C-39.20077616 7.8931717 -40.54888131 3.83874897 -42.13671875 -0.46582031 C-43.89025281 -3.72820926 -45.32861682 -4.73324654 -48.6484375 -6.27832031 C-51.10516642 -6.9451797 -51.10516642 -6.9451797 -53.6484375 -6.27832031 C-55.85986249 -4.76910136 -57.67642984 -3.11274605 -59.6484375 -1.27832031 C-59.3184375 -2.26832031 -58.9884375 -3.25832031 -58.6484375 -4.27832031 C-68.68636572 -4.01851511 -80.40795658 -1.21877791 -88.6484375 4.72167969 C-89.80655138 7.66897506 -89.80655138 7.66897506 -89.6484375 10.72167969 C-87.51279259 13.52557477 -85.36248352 14.3566669 -82.0234375 15.28417969 C-81.14558594 15.53167969 -80.26773438 15.77917969 -79.36328125 16.03417969 C-76.05093853 16.87298878 -72.72316989 17.57432134 -69.36328125 18.19433594 C-68.79738281 18.36835937 -68.23148438 18.54238281 -67.6484375 18.72167969 C-67.3184375 19.38167969 -66.9884375 20.04167969 -66.6484375 20.72167969 C-75.20276826 20.56767373 -82.10116435 19.17545404 -89.96875 15.78027344 C-93.44148568 14.40839097 -95.11047213 14.5423579 -98.6484375 15.72167969 C-90.09186894 25.34781931 -76.93843067 27.84981919 -64.6484375 29.72167969 C-64.9784375 31.37167969 -65.3084375 33.02167969 -65.6484375 34.72167969 C-64.9884375 34.72167969 -64.3284375 34.72167969 -63.6484375 34.72167969 C-62.9884375 35.38167969 -62.3284375 36.04167969 -61.6484375 36.72167969 C-61.3184375 34.74167969 -60.9884375 32.76167969 -60.6484375 30.72167969 C-53.3884375 30.39167969 -46.1284375 30.06167969 -38.6484375 29.72167969 C-39.6384375 34.01167969 -40.6284375 38.30167969 -41.6484375 42.72167969 C-41.9784375 42.72167969 -42.3084375 42.72167969 -42.6484375 42.72167969 C-42.6484375 39.75167969 -42.6484375 36.78167969 -42.6484375 33.72167969 C-47.5984375 33.72167969 -52.5484375 33.72167969 -57.6484375 33.72167969 C-57.1740625 35.78417969 -56.6996875 37.84667969 -56.2109375 39.97167969 C-55.94410156 41.13183594 -55.67726562 42.29199219 -55.40234375 43.48730469 C-54.97120598 45.33695274 -54.52189163 47.18306122 -54.01953125 49.01464844 C-53.55131459 51.16844505 -54.10357983 52.6103562 -54.6484375 54.72167969 C-54.3184375 55.71167969 -53.9884375 56.70167969 -53.6484375 57.72167969 C-51.0084375 57.72167969 -48.3684375 57.72167969 -45.6484375 57.72167969 C-45.3803125 56.87605469 -45.1121875 56.03042969 -44.8359375 55.15917969 C-43.6484375 51.72167969 -43.6484375 51.72167969 -42.1484375 48.40917969 C-40.44917339 44.23182208 -39.49920988 40.135687 -38.6484375 35.72167969 C-37.9884375 35.72167969 -37.3284375 35.72167969 -36.6484375 35.72167969 C-36.431875 34.29855469 -36.431875 34.29855469 -36.2109375 32.84667969 C-35.6953125 31.81542969 -35.1796875 30.78417969 -34.6484375 29.72167969 C-30.8359375 28.59667969 -30.8359375 28.59667969 -28.40625 28.19824219 C-18.96148726 26.56614438 -7.68551682 23.47834177 -1.14453125 16.00292969 C0.09873906 14.23295867 0.09873906 14.23295867 1.3515625 11.72167969 C4.708191 13.95943202 4.93152264 14.65488017 6.0390625 18.34667969 C6.29042969 19.16394531 6.54179687 19.98121094 6.80078125 20.82324219 C6.98253906 21.44972656 7.16429687 22.07621094 7.3515625 22.72167969 C8.0115625 22.72167969 8.6715625 22.72167969 9.3515625 22.72167969 C9.3515625 23.38167969 9.3515625 24.04167969 9.3515625 24.72167969 C11.0015625 25.05167969 12.6515625 25.38167969 14.3515625 25.72167969 C14.6815625 24.73167969 15.0115625 23.74167969 15.3515625 22.72167969 C17.62555382 32.10189389 15.94711093 40.77105878 10.9765625 48.97167969 C6.65118331 55.36348633 1.93986421 60.6203528 -4.6484375 64.72167969 C-5.3084375 64.72167969 -5.9684375 64.72167969 -6.6484375 64.72167969 C-6.6484375 65.38167969 -6.6484375 66.04167969 -6.6484375 66.72167969 C-27.36483874 77.23062335 -54.18624339 80.9358054 -76.74023438 74.08642578 C-95.62905011 67.76045448 -95.62905011 67.76045448 -97.6484375 63.72167969 C-98.38964844 63.30917969 -99.13085938 62.89667969 -99.89453125 62.47167969 C-107.35878402 57.72843821 -113.54009281 47.95469302 -116.09375 39.60058594 C-117.96531482 29.88690095 -117.32691203 20.53356376 -112.6484375 11.72167969 C-110.1484375 8.78417969 -110.1484375 8.78417969 -107.6484375 6.72167969 C-106.9265625 5.95855469 -106.2046875 5.19542969 -105.4609375 4.40917969 C-103.6484375 2.72167969 -103.6484375 2.72167969 -101.6484375 2.72167969 C-101.6071875 2.10292969 -101.5659375 1.48417969 -101.5234375 0.84667969 C-101.0903125 -0.20519531 -101.0903125 -0.20519531 -100.6484375 -1.27832031 C-98.65896614 -1.97577866 -96.65687839 -2.63753203 -94.6484375 -3.27832031 C-92.842951 -4.21035611 -91.05152559 -5.17002231 -89.2734375 -6.15332031 C-63.66914667 -18.80047607 -23.19831394 -17.98968776 0 0 Z " fill="#EEEEEE" transform="translate(134.6484375,49.2783203125)"/>
<path d="M0 0 C4.03428747 1.13243157 5.75443031 1.88835521 8.5625 5 C10.12801696 8.25893562 11.39436007 11.58041719 12.5625 15 C11.47593356 10.06866002 10.4615762 6.21683811 7.5625 2 C18.57443455 1.61783775 29.38797385 4.93337566 38.5625 11 C38.5625 11.66 38.5625 12.32 38.5625 13 C40.2125 13.33 41.8625 13.66 43.5625 14 C43.0675 12.02 43.0675 12.02 42.5625 10 C43.449375 10.45375 44.33625 10.9075 45.25 11.375 C47.99181841 12.72004299 50.71274331 13.91038715 53.5625 15 C53.5625 15.66 53.5625 16.32 53.5625 17 C55.8725 17.66 58.1825 18.32 60.5625 19 C60.0675 20.485 60.0675 20.485 59.5625 22 C57.2525 21.34 54.9425 20.68 52.5625 20 C51.510625 21.5159375 51.510625 21.5159375 50.4375 23.0625 C42.27879432 32.48227025 29.37090882 35.37711659 17.5625 37 C16.9025 37 16.2425 37 15.5625 37 C15.459375 37.928125 15.35625 38.85625 15.25 39.8125 C14.5625 43 14.5625 43 13.07421875 44.41015625 C11.12751233 46.45746766 11.04882199 47.84898961 10.6875 50.625 C9.71944625 56.02864431 8.08583185 60.714084 4.5625 65 C1.5 66.3125 1.5 66.3125 -1.4375 66 C-3.8125 64.375 -3.8125 64.375 -5.4375 62 C-5.6875 59.4375 -5.6875 59.4375 -5.4375 57 C-5.4375 53.54359833 -6.18559171 50.59637362 -7 47.25390625 C-7.4375 45 -7.4375 45 -7.4375 41 C-2.4875 41 2.4625 41 7.5625 41 C8.0575 44.465 8.0575 44.465 8.5625 48 C8.748125 46.1128125 8.748125 46.1128125 8.9375 44.1875 C9.26118059 40.89674737 9.62854999 39.90092502 11.5625 37 C10.70640137 37.24447876 10.70640137 37.24447876 9.83300781 37.49389648 C7.54596733 38.00368519 5.57285544 38.11435968 3.234375 38.09765625 C2.43515625 38.09443359 1.6359375 38.09121094 0.8125 38.08789062 C-0.0125 38.07951172 -0.8375 38.07113281 -1.6875 38.0625 C-2.52796875 38.05798828 -3.3684375 38.05347656 -4.234375 38.04882812 C-6.30211401 38.03707961 -8.36981624 38.01914522 -10.4375 38 C-10.39625 38.94875 -10.355 39.8975 -10.3125 40.875 C-10.4375 44 -10.4375 44 -12.4375 46 C-12.9325 44.02 -12.9325 44.02 -13.4375 42 C-14.0975 42 -14.7575 42 -15.4375 42 C-15.4375 40.68 -15.4375 39.36 -15.4375 38 C-16.54867187 37.75765625 -17.65984375 37.5153125 -18.8046875 37.265625 C-41.1572735 32.2802265 -41.1572735 32.2802265 -48.4375 25 C-48.4375 24.34 -48.4375 23.68 -48.4375 23 C-46.26171875 21.23828125 -46.26171875 21.23828125 -43.4375 20 C-40.89453125 20.73046875 -40.89453125 20.73046875 -38.25 22.1875 C-31.43143752 25.62898768 -25.07259461 27.14838523 -17.4375 27 C-19.08298828 26.61908203 -19.08298828 26.61908203 -20.76171875 26.23046875 C-22.21625214 25.88325755 -23.67067342 25.53557642 -25.125 25.1875 C-25.84623047 25.02185547 -26.56746094 24.85621094 -27.31054688 24.68554688 C-32.19586872 23.50325437 -36.68635983 22.28409588 -39.875 18.125 C-40.66877705 15.12628668 -39.83213625 13.72607147 -38.4375 11 C-30.94344587 5.06586701 -16.90114642 1.50576701 -7.4375 2 C-7.4375 2.66 -7.4375 3.32 -7.4375 4 C-6.921875 3.319375 -6.40625 2.63875 -5.875 1.9375 C-3.4375 0 -3.4375 0 0 0 Z " fill="#DBDBDC" transform="translate(84.4375,42)"/>
<path d="M0 0 C0.66 0 1.32 0 2 0 C3.75163456 3.77222089 4.22490027 6.666639 4.125 10.8125 C4.10695313 11.78832031 4.08890625 12.76414062 4.0703125 13.76953125 C4.04710937 14.50558594 4.02390625 15.24164063 4 16 C5.32 16 6.64 16 8 16 C9.09517433 24.13558073 5.67833888 29.49881507 1 36 C-7.8467328 46.48209767 -23.63516284 52.50197977 -37 54 C-41.73069083 54.30276421 -46.44777119 54.40540322 -51.1875 54.4375 C-52.35104004 54.44773193 -53.51458008 54.45796387 -54.71337891 54.46850586 C-62.67644521 54.38803106 -70.41975457 53.58100612 -78 51 C-78.33 50.34 -78.66 49.68 -79 49 C-77.75347656 49.2165625 -76.50695312 49.433125 -75.22265625 49.65625 C-64.03360104 51.51483467 -53.33454318 52.39641537 -42 52 C-41.33174077 50.33397124 -40.66549964 48.667133 -40 47 C-39.60941406 46.03707031 -39.21882813 45.07414062 -38.81640625 44.08203125 C-35.14731309 34.51495656 -33.41050555 25.1143569 -32 15 C-31.44127197 14.84966309 -30.88254395 14.69932617 -30.30688477 14.54443359 C-16.58865422 11.07691315 -16.58865422 11.07691315 -4.4609375 4.1015625 C-3 3 -3 3 -1 3 C-0.67 2.01 -0.34 1.02 0 0 Z " fill="#FBFBFB" transform="translate(135,67)"/>
<path d="M0 0 C2.91215162 1.36203082 5.35904234 2.96466477 7.9375 4.875 C15.9941561 10.31689292 25.63601353 11.9769165 35 14 C35.17015625 15.23234375 35.3403125 16.4646875 35.515625 17.734375 C37.15361708 29.10599698 38.76173658 40.1109347 45 50 C30.7310145 49.03261115 14.82425844 43.97140238 5 33 C3.5625 30.125 3.5625 30.125 3 28 C2.01 28 1.02 28 0 28 C1.45281065 33.32697239 5.08111378 36.36402802 9 40 C6 40 6 40 4.31640625 38.6796875 C-4.76221595 29.33820987 -4.76221595 29.33820987 -5.375 23.3125 C-5 20 -5 20 -3 17 C-2.75467063 14.86173155 -2.59762003 12.71258112 -2.5 10.5625 C-2.31540885 6.50610956 -2.13449133 3.50297569 0 0 Z " fill="#FBFBFB" transform="translate(32,68)"/>
<path d="M0 0 C2 2 2 2 3.1875 4.3125 C9.07353105 13.04006328 20.66058135 15.59446032 30.41796875 17.7578125 C32.94142115 18.22137038 35.45909678 18.64606961 38 19 C37.505 21.475 37.505 21.475 37 24 C37.66 24 38.32 24 39 24 C39.66 24.66 40.32 25.32 41 26 C41.33 24.02 41.66 22.04 42 20 C49.26 19.67 56.52 19.34 64 19 C63.01 23.29 62.02 27.58 61 32 C60.67 32 60.34 32 60 32 C60 29.03 60 26.06 60 23 C55.05 23 50.1 23 45 23 C45.474375 25.0625 45.94875 27.125 46.4375 29.25 C46.70433594 30.41015625 46.97117188 31.5703125 47.24609375 32.765625 C47.67723152 34.61527305 48.12654587 36.46138153 48.62890625 38.29296875 C49.09712291 40.44676536 48.54485767 41.88867652 48 44 C48.33 44.99 48.66 45.98 49 47 C51.64 47 54.28 47 57 47 C57.268125 46.154375 57.53625 45.30875 57.8125 44.4375 C59 41 59 41 60.5 37.6875 C62.19926411 33.5101424 63.14922762 29.41400731 64 25 C64.66 25 65.32 25 66 25 C66.144375 24.05125 66.28875 23.1025 66.4375 22.125 C66.953125 21.09375 67.46875 20.0625 68 19 C71.8125 17.875 71.8125 17.875 74.2421875 17.4765625 C83.68695024 15.84446469 94.96292068 12.75666208 101.50390625 5.28125 C102.74717656 3.51127899 102.74717656 3.51127899 104 1 C107.3566285 3.23775234 107.57996014 3.93320048 108.6875 7.625 C108.93886719 8.44226563 109.19023437 9.25953125 109.44921875 10.1015625 C109.63097656 10.72804688 109.81273437 11.35453125 110 12 C110.66 12 111.32 12 112 12 C112 12.66 112 13.32 112 14 C113.65 14.33 115.3 14.66 117 15 C117.33 14.01 117.66 13.02 118 12 C120.26123012 21.32757425 118.52235467 29.88980101 113.875 38.1875 C110.83343887 42.7544924 106.61923443 46.09596264 102 49 C101.34 49 100.68 49 100 49 C100 49.66 100 50.32 100 51 C98.06767179 51.86580287 96.12892806 52.71729941 94.1875 53.5625 C93.10855469 54.03816406 92.02960938 54.51382813 90.91796875 55.00390625 C88 56 88 56 85 55 C86.74951568 54.04078278 88.49963244 53.08266183 90.25 52.125 C91.22453125 51.59132812 92.1990625 51.05765625 93.203125 50.5078125 C96 49 96 49 98.296875 47.9921875 C100.35151902 47.04634815 100.35151902 47.04634815 101 44 C101.5775 43.46375 102.155 42.9275 102.75 42.375 C108.11457078 36.71239751 110.57892901 30.71963476 111 23 C109.68 23 108.36 23 107 23 C106.93941406 22.26394531 106.87882812 21.52789062 106.81640625 20.76953125 C106.73261719 19.79371094 106.64882812 18.81789063 106.5625 17.8125 C106.48128906 16.84957031 106.40007812 15.88664062 106.31640625 14.89453125 C106.02333849 12.21350398 105.57296246 9.6337014 105 7 C104.39414063 7.53109375 103.78828125 8.0621875 103.1640625 8.609375 C94.38866234 16.00771237 82.81200596 22 71 22 C71.03867188 23.13695313 71.07734375 24.27390625 71.1171875 25.4453125 C71.11513013 30.1134963 70.24181563 34.3602134 69.125 38.875 C68.95097656 39.63296875 68.77695313 40.3909375 68.59765625 41.171875 C67.26015442 46.73984558 67.26015442 46.73984558 65 49 C64.67 48.67 64.34 48.34 64 48 C63.5875 48.495 63.175 48.99 62.75 49.5 C61 51 61 51 57 51 C57 51.66 57 52.32 57 53 C51.36382567 52.53031881 46.78582459 51.09327687 42 48 C41.67 47.34 41.34 46.68 41 46 C40.01 46.495 40.01 46.495 39 47 C34.40774487 30.29157175 34.40774487 30.29157175 35 22 C34.18917969 21.90203125 33.37835938 21.8040625 32.54296875 21.703125 C21.30977759 20.1861865 12.47834601 17.8800953 3.77734375 10.390625 C2.11359411 8.79459503 2.11359411 8.79459503 0 9 C-0.99 13.62 -1.98 18.24 -3 23 C-3.99 23 -4.98 23 -6 23 C-6.97242844 13.85196949 -4.60253501 7.84896595 0 0 Z " fill="#696969" transform="translate(32,60)"/>
<path d="M0 0 C2 3.75 2 3.75 2 6 C3.32 6 4.64 6 6 6 C6.20753906 6.83402344 6.41507813 7.66804688 6.62890625 8.52734375 C9.2405599 18.06698239 12.79917675 25.20906779 21 31 C20.50628906 30.54109375 20.01257813 30.0821875 19.50390625 29.609375 C18.86324219 28.99578125 18.22257812 28.3821875 17.5625 27.75 C16.92441406 27.14671875 16.28632812 26.5434375 15.62890625 25.921875 C13.91483694 23.89951984 13.40641122 22.58729395 13 20 C13.66 19.67 14.32 19.34 15 19 C17.15223608 21.07537051 19.0779732 23.10396426 20.875 25.5 C28.91996981 34.96467036 43.19344377 39.03797754 55 41 C55.99 41 56.98 41 58 41 C57.360625 40.0925 56.72125 39.185 56.0625 38.25 C53.19512195 33.73170732 53.19512195 33.73170732 53 31 C53.66 30.34 54.32 29.68 55 29 C55.66 29.99 56.32 30.98 57 32 C57.66 31.67 58.32 31.34 59 31 C59.45375 31.495 59.9075 31.99 60.375 32.5 C61.87635519 34.22609337 61.87635519 34.22609337 64 34 C64 34.66 64 35.32 64 36 C66.31 36.33 68.62 36.66 71 37 C71 36.34 71 35.68 71 35 C71.66 35 72.32 35 73 35 C73.495 34.01 73.495 34.01 74 33 C75.485 33.495 75.485 33.495 77 34 C77.66 32.68 78.32 31.36 79 30 C79.54990817 35.63655874 78.18170608 38.49258305 75 43 C64.28202227 47.08637495 49.84171787 42.92334594 39 41 C47.90305964 43.39785895 56.22219096 44.54949565 65.4375 44.5 C66.6445459 44.49645508 67.8515918 44.49291016 69.09521484 44.48925781 C83.4121567 44.22891548 96.79897654 41.3689908 109.96435547 35.77832031 C112 35 112 35 114 35 C114 34.34 114 33.68 114 33 C115.96147874 31.61061923 117.96166576 30.2739589 120 29 C120.66 29.33 121.32 29.66 122 30 C120.37982158 31.33918806 118.75370657 32.6711969 117.125 34 C116.22007812 34.7425 115.31515625 35.485 114.3828125 36.25 C112 38 112 38 110 38 C110 38.66 110 39.32 110 40 C89.28359876 50.50894367 62.46219411 54.21412571 39.90820312 47.36474609 C21.01938739 41.03877479 21.01938739 41.03877479 19 37 C17.88818359 36.38125 17.88818359 36.38125 16.75390625 35.75 C9.11108038 30.89328228 3.2115297 21.14820185 0.5390625 12.65625 C-0.32238191 8.41145146 -0.33619919 4.30521747 0 0 Z " fill="#878787" transform="translate(18,76)"/>
<path d="M0 0 C-1.65 2.97 -3.3 5.94 -5 9 C-4.505 9.495 -4.505 9.495 -4 10 C-3.01 8.35 -2.02 6.7 -1 5 C0.20049285 7.4009857 -0.04816504 8.38520716 -0.4375 11 C-0.73376181 13.04008135 -1 14.93748351 -1 17 C-1.83333333 24.5 -1.83333333 24.5 -3 28 C-2.29875 27.98839844 -1.5975 27.97679688 -0.875 27.96484375 C4.86113102 27.91028816 10.32778253 28.14381623 16 29 C15.34 29.99 14.68 30.98 14 32 C10.84765625 32.4765625 10.84765625 32.4765625 7.0625 32.625 C1.94047605 32.81525626 1.94047605 32.81525626 -3 34 C-3.62261719 33.84015625 -4.24523437 33.6803125 -4.88671875 33.515625 C-7.45866197 32.88808987 -9.2134983 33.28689063 -11.8125 33.75 C-21.79976964 34.78085759 -32.06848989 30.53512172 -39.77734375 24.33203125 C-41 23 -41 23 -41 21 C-38.82421875 19.23828125 -38.82421875 19.23828125 -36 18 C-33.45703125 18.73046875 -33.45703125 18.73046875 -30.8125 20.1875 C-23.99393752 23.62898768 -17.63509461 25.14838523 -10 25 C-11.64548828 24.61908203 -11.64548828 24.61908203 -13.32421875 24.23046875 C-14.77875214 23.88325755 -16.23317342 23.53557642 -17.6875 23.1875 C-18.40873047 23.02185547 -19.12996094 22.85621094 -19.87304688 22.68554688 C-24.75836872 21.50325437 -29.24885983 20.28409588 -32.4375 16.125 C-33.23127705 13.12628668 -32.39463625 11.72607147 -31 9 C-23.18550869 2.81213027 -9.73716865 0 0 0 Z " fill="#F7F7F7" transform="translate(77,44)"/>
<path d="M0 0 C47.7842569 -1.22102278 47.7842569 -1.22102278 66.1875 14.6015625 C73.34965608 21.49920713 73.34965608 21.49920713 74 26 C72.02 25.01 70.04 24.02 68 23 C68 22.34 68 21.68 68 21 C67.0925 20.87625 66.185 20.7525 65.25 20.625 C62.41029677 20.07890323 60.47409409 19.42736197 58 18 C58 18.66 58 19.32 58 20 C56.35 19.67 54.7 19.34 53 19 C53 18.34 53 17.68 53 17 C52.27296875 16.71125 51.5459375 16.4225 50.796875 16.125 C49.07217984 15.43126787 47.3522227 14.72544538 45.640625 14 C38.21254548 10.89282948 31.14128814 8.58249804 23 9 C23.639375 9.78375 24.27875 10.5675 24.9375 11.375 C27.78008655 15.55350178 27.80539194 20.07641598 28 25 C25.44766134 21.17149201 24.09955619 17.11706928 22.51171875 12.8125 C20.75818469 9.55011105 19.31982068 8.54507377 16 7 C13.54327108 6.33314062 13.54327108 6.33314062 11 7 C8.78857501 8.50921895 6.97200766 10.16557427 5 12 C5.33 11.01 5.66 10.02 6 9 C-4.13884014 9.26241704 -15.61453676 12.12867026 -24 18 C-24.66 18.99 -25.32 19.98 -26 21 C-26.99 21 -27.98 21 -29 21 C-28.9375 18.8125 -28.9375 18.8125 -28 16 C-15.99050241 5.29588258 0.96890271 4.6593059 16.25 4.875 C18.10044922 4.88853516 18.10044922 4.88853516 19.98828125 4.90234375 C22.99240024 4.92563149 25.99608943 4.95833244 29 5 C29 4.01 29 3.02 29 2 C19.43 1.67 9.86 1.34 0 1 C0 0.67 0 0.34 0 0 Z " fill="#818181" transform="translate(70,36)"/>
<path d="M0 0 C3.3566285 2.23775234 3.57996014 2.93320048 4.6875 6.625 C4.93886719 7.44226563 5.19023437 8.25953125 5.44921875 9.1015625 C5.63097656 9.72804688 5.81273437 10.35453125 6 11 C6.66 11 7.32 11 8 11 C8 11.66 8 12.32 8 13 C10.475 13.495 10.475 13.495 13 14 C13.33 13.01 13.66 12.02 14 11 C16.26123012 20.32757425 14.52235467 28.88980101 9.875 37.1875 C6.83343887 41.7544924 2.61923443 45.09596264 -2 48 C-2.66 48 -3.32 48 -4 48 C-4 48.66 -4 49.32 -4 50 C-5.93232821 50.86580287 -7.87107194 51.71729941 -9.8125 52.5625 C-10.89144531 53.03816406 -11.97039062 53.51382813 -13.08203125 54.00390625 C-16 55 -16 55 -19 54 C-17.25048432 53.04078278 -15.50036756 52.08266183 -13.75 51.125 C-12.77546875 50.59132812 -11.8009375 50.05765625 -10.796875 49.5078125 C-8 48 -8 48 -5.703125 46.9921875 C-3.64848098 46.04634815 -3.64848098 46.04634815 -3 43 C-2.4225 42.46375 -1.845 41.9275 -1.25 41.375 C4.11457078 35.71239751 6.57892901 29.71963476 7 22 C5.68 22 4.36 22 3 22 C2.90912109 20.89591797 2.90912109 20.89591797 2.81640625 19.76953125 C2.73261719 18.79371094 2.64882812 17.81789063 2.5625 16.8125 C2.48128906 15.84957031 2.40007812 14.88664062 2.31640625 13.89453125 C2.02333849 11.21350398 1.57296246 8.6337014 1 6 C0.09121094 6.79664062 0.09121094 6.79664062 -0.8359375 7.609375 C-9.61133766 15.00771237 -21.18799404 21 -33 21 C-33 23.64 -33 26.28 -33 29 C-33.33 29 -33.66 29 -34 29 C-34.33 27.02 -34.66 25.04 -35 23 C-35.99 27.95 -36.98 32.9 -38 38 C-38.99 37.67 -39.98 37.34 -41 37 C-42.32816109 33.85691721 -41.87284094 31.49136376 -41.0625 28.25 C-40.86785156 27.45078125 -40.67320313 26.6515625 -40.47265625 25.828125 C-40.31667969 25.22484375 -40.16070312 24.6215625 -40 24 C-39.34 24 -38.68 24 -38 24 C-37.7834375 22.576875 -37.7834375 22.576875 -37.5625 21.125 C-37.046875 20.09375 -36.53125 19.0625 -36 18 C-32.1875 16.875 -32.1875 16.875 -29.7578125 16.4765625 C-20.31304976 14.84446469 -9.03707932 11.75666208 -2.49609375 4.28125 C-1.25282344 2.51127899 -1.25282344 2.51127899 0 0 Z " fill="#878787" transform="translate(136,61)"/>
<path d="M0 0 C3.8451426 1.37844735 5.62790959 2.0675706 8.3125 5.1875 C9.91324225 9.11611904 11.16377495 13.10599647 12.3125 17.1875 C10.9925 17.1875 9.6725 17.1875 8.3125 17.1875 C7.9825 16.5275 7.6525 15.8675 7.3125 15.1875 C7.9725 19.4775 8.6325 23.7675 9.3125 28.1875 C6.00255287 29.84247356 2.32127 29.28834335 -1.3125 29.25 C-2.11429688 29.24548828 -2.91609375 29.24097656 -3.7421875 29.23632812 C-5.72399006 29.22453168 -7.70575433 29.20659605 -9.6875 29.1875 C-9.6875 16.8125 -9.6875 16.8125 -9.1875 12.5 C-9.0946875 11.69175781 -9.001875 10.88351563 -8.90625 10.05078125 C-8.8340625 9.43589844 -8.761875 8.82101563 -8.6875 8.1875 C-9.6775 10.1675 -10.6675 12.1475 -11.6875 14.1875 C-12.3475 13.8575 -13.0075 13.5275 -13.6875 13.1875 C-12.62662552 7.75051827 -10.00028843 4.88791734 -5.84375 1.484375 C-3.6875 0.1875 -3.6875 0.1875 0 0 Z M-8.6875 14.1875 C-7.6875 16.1875 -7.6875 16.1875 -7.6875 16.1875 Z " fill="#DEDEDE" transform="translate(84.6875,41.8125)"/>
<path d="M0 0 C10.2282239 -0.35496407 22.84833812 2.39161391 31 9 C32.5625 11.8125 32.5625 11.8125 33 14 C32.34 14.33 31.68 14.66 31 15 C30.62875 15.78375 30.2575 16.5675 29.875 17.375 C27.27625704 21.01324014 24.19759433 21.99790319 20 23 C16.67181633 23.48762862 13.3571383 23.80049793 10 24 C10 23.01 10 22.02 10 21 C9.36893571 18.98848259 8.70626239 16.98636298 8 15 C7.34 15 6.68 15 6 15 C5.81824219 14.33613281 5.63648437 13.67226563 5.44921875 12.98828125 C4.10476709 8.26546387 2.85015263 4.07164661 0 0 Z " fill="#F9F9F9" transform="translate(92,44)"/>
<path d="M0 0 C0.33 0 0.66 0 1 0 C1.36027978 9.02033827 1.13260388 17.43563342 -2 26 C-2.66 26.66 -3.32 27.32 -4 28 C-4.33 27.67 -4.66 27.34 -5 27 C-5.61875 27.7425 -5.61875 27.7425 -6.25 28.5 C-8 30 -8 30 -12 30 C-12 30.66 -12 31.32 -12 32 C-17.63617433 31.53031881 -22.21417541 30.09327687 -27 27 C-27.33 26.34 -27.66 25.68 -28 25 C-28.66 25.33 -29.32 25.66 -30 26 C-32.28612778 18.84224277 -33.44032071 12.51806849 -33 5 C-32.67 5 -32.34 5 -32 5 C-31.84144531 5.69867188 -31.68289062 6.39734375 -31.51953125 7.1171875 C-30.82155973 9.83966204 -30.09350356 12.409438 -29 15 C-26.59047977 16.24714403 -26.59047977 16.24714403 -24 17 C-21.95159627 19.67614035 -20 22.54823486 -20 26 C-17.36 26 -14.72 26 -12 26 C-11.7525 25.113125 -11.505 24.22625 -11.25 23.3125 C-9.96065232 19.89572865 -8.40019871 17.7202252 -6 15 C-5.34 15.33 -4.68 15.66 -4 16 C-2.68 10.72 -1.36 5.44 0 0 Z " fill="#3A3A3A" transform="translate(101,81)"/>
<path d="M0 0 C2 3 2 3 1.9375 4.8125 C-2.14777959 14.34481905 -12.44783101 19.15371906 -21.5625 22.8125 C-31.5702089 26.62558025 -41.17424255 27.34123651 -51.8125 27.3125 C-52.99392578 27.32861328 -54.17535156 27.34472656 -55.39257812 27.36132812 C-63.48675444 27.36576329 -71.2971285 26.65077327 -79 24 C-79.33 23.34 -79.66 22.68 -80 22 C-78.75347656 22.2165625 -77.50695312 22.433125 -76.22265625 22.65625 C-65.03360104 24.51483467 -54.33454318 25.39641537 -43 25 C-43 24.34 -43 23.68 -43 23 C-42.33355469 22.90203125 -41.66710937 22.8040625 -40.98046875 22.703125 C-30.06028363 20.9314586 -21.37222687 17.64444762 -12.21484375 11.390625 C-10 10 -10 10 -8 10 C-7.67 8.68 -7.34 7.36 -7 6 C-6.34 6 -5.68 6 -5 6 C-5 5.34 -5 4.68 -5 4 C-3.35 3.34 -1.7 2.68 0 2 C0 1.34 0 0.68 0 0 Z " fill="#ECECEC" transform="translate(136,94)"/>
<path d="M0 0 C1.13646973 0.00201416 2.27293945 0.00402832 3.44384766 0.00610352 C11.39681063 0.10136566 18.46807981 0.8449527 26.0625 3.3125 C27.14917969 3.54646484 27.14917969 3.54646484 28.2578125 3.78515625 C30.0625 4.3125 30.0625 4.3125 32.0625 6.3125 C26.41087497 6.49191667 21.62456796 6.12204149 16.1484375 4.7578125 C13.42819083 4.17708568 10.8320601 4.17047128 8.0625 4.3125 C8.701875 5.09625 9.34125 5.88 10 6.6875 C12.84258655 10.86600178 12.86789194 15.38891598 13.0625 20.3125 C10.51016134 16.48399201 9.16205619 12.42956928 7.57421875 8.125 C5.82068469 4.86261105 4.38232068 3.85757377 1.0625 2.3125 C-1.39422892 1.64564062 -1.39422892 1.64564062 -3.9375 2.3125 C-6.14892499 3.82171895 -7.96549234 5.47807427 -9.9375 7.3125 C-9.6075 6.3225 -9.2775 5.3325 -8.9375 4.3125 C-19.07634014 4.57491704 -30.55203676 7.44117026 -38.9375 13.3125 C-39.9275 14.7975 -39.9275 14.7975 -40.9375 16.3125 C-41.9275 16.3125 -42.9175 16.3125 -43.9375 16.3125 C-43.875 14.125 -43.875 14.125 -42.9375 11.3125 C-31.36208562 0.99528284 -14.81097001 -0.07132264 0 0 Z " fill="#6B6B6B" transform="translate(84.9375,40.6875)"/>
<path d="M0 0 C1.25619141 0.05285156 2.51238281 0.10570312 3.80664062 0.16015625 C12.93323553 0.58191184 12.93323553 0.58191184 16.4375 1.75 C16.4375 2.74 16.4375 3.73 16.4375 4.75 C17.7575 5.08 19.0775 5.41 20.4375 5.75 C19.57697021 5.73428955 18.71644043 5.7185791 17.82983398 5.70239258 C14.55877354 5.65048489 11.28816634 5.61328026 8.0168457 5.58520508 C6.61573268 5.57035229 5.21466405 5.55006444 3.8137207 5.52368164 C-9.61875347 5.27752419 -21.86879108 7.0733704 -34.5625 11.75 C-34.8925 10.43 -35.2225 9.11 -35.5625 7.75 C-29.9375 4.75 -29.9375 4.75 -26.5625 4.75 C-26.5625 4.09 -26.5625 3.43 -26.5625 2.75 C-17.49890523 -0.10259759 -9.44392911 -0.528262 0 0 Z " fill="#E3E3E3" transform="translate(82.5625,36.25)"/>
<path d="M0 0 C2 3.75 2 3.75 2 6 C3.32 6 4.64 6 6 6 C6.20753906 6.83402344 6.41507813 7.66804688 6.62890625 8.52734375 C9.8752813 20.38544173 15.84311896 29.06671835 26.44140625 35.4765625 C28.6094202 36.69119316 30.78857603 37.8667079 33 39 C33 39.33 33 39.66 33 40 C27.8562069 40.42995231 24.46585628 39.13297954 20.125 36.5625 C19.20581787 36.02387329 19.20581787 36.02387329 18.26806641 35.47436523 C9.0628202 29.83703448 3.56088864 22.33973602 0.40625 12.06640625 C-0.08121655 9.58688889 -0.09572613 7.27518557 -0.0625 4.75 C-0.05347656 3.85796875 -0.04445313 2.9659375 -0.03515625 2.046875 C-0.02355469 1.37140625 -0.01195313 0.6959375 0 0 Z " fill="#4A4A4A" transform="translate(18,76)"/>
<path d="M0 0 C4.95 0 9.9 0 15 0 C15.36022902 6.60419862 14.89415886 13.40422688 10.58203125 18.76171875 C9 20 9 20 6 20 C2.08687434 13.21339831 0.33614259 7.84332714 0 0 Z " fill="#F9F9F9" transform="translate(77,83)"/>
<path d="M0 0 C0.99 0.495 0.99 0.495 2 1 C0.37982158 2.33918806 -1.24629343 3.6711969 -2.875 5 C-3.77992188 5.7425 -4.68484375 6.485 -5.6171875 7.25 C-8 9 -8 9 -10 9 C-10 9.66 -10 10.32 -10 11 C-11.57632743 11.78506071 -13.16168157 12.5519916 -14.75 13.3125 C-15.63171875 13.74175781 -16.5134375 14.17101562 -17.421875 14.61328125 C-27.48152141 18.51194334 -36.99270488 19.43419282 -47.67480469 19.28125 C-49.89274824 19.24974792 -52.10997839 19.24022763 -54.328125 19.234375 C-60.31314092 19.19602723 -66.10051554 19.13246499 -72 18 C-72 17.67 -72 17.34 -72 17 C-68.37 17 -64.74 17 -61 17 C-61 16.67 -61 16.34 -61 16 C-59.73929688 15.98582031 -58.47859375 15.97164062 -57.1796875 15.95703125 C-47.32880749 15.73174334 -37.93144989 14.89353655 -28.3125 12.6875 C-27.42997559 12.48680908 -26.54745117 12.28611816 -25.63818359 12.0793457 C-20.21431662 10.75843603 -15.15307996 8.97432921 -10.02026367 6.78051758 C-8 6 -8 6 -6 6 C-6 5.34 -6 4.68 -6 4 C-4.03852126 2.61061923 -2.03833424 1.2739589 0 0 Z " fill="#A7A7A7" transform="translate(138,105)"/>
<path d="M0 0 C0.886875 0.45375 1.77375 0.9075 2.6875 1.375 C5.42931841 2.72004299 8.15024331 3.91038715 11 5 C11 5.66 11 6.32 11 7 C13.31 7.66 15.62 8.32 18 9 C17.67 9.99 17.34 10.98 17 12 C15.88625 11.649375 14.7725 11.29875 13.625 10.9375 C10.19735524 9.62760669 10.19735524 9.62760669 8 11 C8 9.68 8 8.36 8 7 C7.34 7 6.68 7 6 7 C5.67 7.66 5.34 8.32 5 9 C4.67 8.67 4.34 8.34 4 8 C3.360625 8.9075 2.72125 9.815 2.0625 10.75 C-1.7399796 15.18272484 -6.07000522 17.67541586 -11.97460938 18.16308594 C-16.65765372 18.33410785 -21.32008751 18.20672006 -26 18 C-26 17.34 -26 16.68 -26 16 C-25.05898437 15.81824219 -24.11796875 15.63648437 -23.1484375 15.44921875 C-21.90320313 15.19785156 -20.65796875 14.94648437 -19.375 14.6875 C-17.53035156 14.32205078 -17.53035156 14.32205078 -15.6484375 13.94921875 C-10.86840585 12.70559167 -7.0941008 11.54683217 -4.1875 7.4375 C-3.795625 6.633125 -3.40375 5.82875 -3 5 C-2.67 4.34 -2.34 3.68 -2 3 C-1.01 3.33 -0.02 3.66 1 4 C0.67 2.68 0.34 1.36 0 0 Z " fill="#DFDFDF" transform="translate(127,52)"/>
<path d="M0 0 C0.99 0.99 1.98 1.98 3 3 C3.66 2.67 4.32 2.34 5 2 C5.45375 2.495 5.9075 2.99 6.375 3.5 C7.87635519 5.22609337 7.87635519 5.22609337 10 5 C10 5.66 10 6.32 10 7 C12.31 7.33 14.62 7.66 17 8 C17 7.34 17 6.68 17 6 C17.66 6 18.32 6 19 6 C19.33 5.34 19.66 4.68 20 4 C20.99 4.33 21.98 4.66 23 5 C23.66 3.68 24.32 2.36 25 1 C25.54990817 6.63655874 24.18170608 9.49258305 21 14 C19.25 14.9375 19.25 14.9375 17 15 C16.36449219 15.02449219 15.72898437 15.04898438 15.07421875 15.07421875 C11.78476437 15.15239591 9.13699142 15.04566381 6 14 C6 13.34 6 12.68 6 12 C5.34 12 4.68 12 4 12 C-0.58333333 5.88888889 -0.58333333 5.88888889 -1 2 C-0.67 1.34 -0.34 0.68 0 0 Z " fill="#8B8B8B" transform="translate(72,105)"/>
<path d="M0 0 C-0.18986373 8.26770247 -1.9549842 14.68716351 -7.7109375 20.82421875 C-10.88305639 23.68466657 -13.8580677 25.744869 -18 27 C-18 27.66 -18 28.32 -18 29 C-19.93232821 29.86580287 -21.87107194 30.71729941 -23.8125 31.5625 C-24.89144531 32.03816406 -25.97039062 32.51382813 -27.08203125 33.00390625 C-30 34 -30 34 -33 33 C-31.25048432 32.04078278 -29.50036756 31.08266183 -27.75 30.125 C-26.28820312 29.32449219 -26.28820312 29.32449219 -24.796875 28.5078125 C-22 27 -22 27 -19.703125 25.9921875 C-17.64848098 25.04634815 -17.64848098 25.04634815 -17 22 C-16.38382813 21.401875 -15.76765625 20.80375 -15.1328125 20.1875 C-12.65843662 17.64967858 -11.39917838 15.1919966 -9.875 12 C-9.12863281 10.453125 -9.12863281 10.453125 -8.3671875 8.875 C-7.54990303 7.15636751 -6.74092292 5.43369024 -5.94921875 3.703125 C-4.70028024 1.46223122 -2.67123358 0 0 0 Z " fill="#3B3B3B" transform="translate(150,82)"/>
<path d="M0 0 C3.45341972 1.15113991 3.84642358 1.8931744 5.8125 4.8125 C13.58449594 15.43297018 28.41943816 20.05138037 41 22 C42.66616846 22.04074869 44.33424494 22.0551169 46 22 C46 22.66 46 23.32 46 24 C46.99 24.33 47.98 24.66 49 25 C15.95412734 22.9746078 15.95412734 22.9746078 5.3125 11 C4.19160741 9.68069654 3.08690274 8.34744359 2 7 C1.41605469 6.319375 0.83210938 5.63875 0.23046875 4.9375 C-0.17558594 4.298125 -0.58164062 3.65875 -1 3 C-0.67 2.01 -0.34 1.02 0 0 Z " fill="#C8C8C8" transform="translate(32,95)"/>
<path d="M0 0 C0.66 0 1.32 0 2 0 C1.51421457 3.12290635 1.0013988 5.99580359 0 9 C-0.22179785 10.89212737 -0.40614015 12.78884472 -0.5625 14.6875 C-0.64628906 15.68136719 -0.73007812 16.67523438 -0.81640625 17.69921875 C-0.87699219 18.45847656 -0.93757813 19.21773437 -1 20 C-0.01 20 0.98 20 2 20 C2 17.69 2 15.38 2 13 C2.33 13 2.66 13 3 13 C3.35050464 18.841744 3.16727335 22.8531808 0 28 C-2.12508244 24.81237635 -2.5020163 22.73487777 -3 19 C-4.32 19 -5.64 19 -7 19 C-8.97459273 14.23774693 -9.06449259 11.03214681 -8 6 C-7.67 5.34 -7.34 4.68 -7 4 C-6.34 4 -5.68 4 -5 4 C-4.67 3.01 -4.34 2.02 -4 1 C-3.01 1 -2.02 1 -1 1 C-0.67 0.67 -0.34 0.34 0 0 Z " fill="#F8F8F8" transform="translate(27,63)"/>
<path d="M0 0 C3.46885943 0.93752958 4.75778752 1.62803083 6.75 4.6875 C8.05967169 8.15812998 8.63174873 11.31748734 9 15 C4.38 15 -0.24 15 -5 15 C-4.61397183 8.63053521 -3.97741972 5.00385061 0 0 Z " fill="#F3F3F4" transform="translate(83,54)"/>
<path d="M0 0 C1 2 1 2 0.125 5.25 C-2.12600697 10.18569417 -6.27091843 12.64342063 -11 15 C-16.84048821 16.51420065 -22.99048643 16.09780402 -29 16 C-26.71902875 12.57854312 -25.8064493 12.21114296 -22 11 C-20.6078125 10.814375 -20.6078125 10.814375 -19.1875 10.625 C-12.31070961 9.27660973 -7.77852661 6.05158528 -3 1 C-2.01 0.67 -1.02 0.34 0 0 Z " fill="#F5F5F5" transform="translate(135,58)"/>
<path d="M0 0 C-1.32 0 -2.64 0 -4 0 C-4 0.66 -4 1.32 -4 2 C-5.03898437 2.23074219 -6.07796875 2.46148437 -7.1484375 2.69921875 C-21.28280998 5.44370049 -21.28280998 5.44370049 -32 14 C-32.99 14 -33.98 14 -35 14 C-34.9375 11.8125 -34.9375 11.8125 -34 9 C-26.6319218 2.43279987 -9.2660861 -5.82690048 0 0 Z " fill="#777777" transform="translate(76,43)"/>
<path d="M0 0 C4.08931682 -0.05001046 8.17851141 -0.08600357 12.26806641 -0.10986328 C13.65481676 -0.11982603 15.04154665 -0.13340118 16.42822266 -0.15087891 C24.49040344 -0.24983708 32.15724803 -0.07347869 40 2 C40 2.66 40 3.32 40 4 C40.804375 4.268125 41.60875 4.53625 42.4375 4.8125 C43.7059375 5.4003125 43.7059375 5.4003125 45 6 C45.495 7.485 45.495 7.485 46 9 C48.00016466 10.20882096 48.00016466 10.20882096 50 11 C48.37419034 10.88601335 46.74932843 10.75844341 45.125 10.625 C44.22007813 10.55539063 43.31515625 10.48578125 42.3828125 10.4140625 C40 10 40 10 38 8 C36.47943382 7.40165446 34.93387912 6.86493344 33.375 6.375 C32.55773437 6.11460938 31.74046875 5.85421875 30.8984375 5.5859375 C30.27195312 5.39257812 29.64546875 5.19921875 29 5 C29 4.01 29 3.02 29 2 C19.43 1.67 9.86 1.34 0 1 C0 0.67 0 0.34 0 0 Z " fill="#8E8E8E" transform="translate(70,36)"/>
<path d="M0 0 C0.33 0 0.66 0 1 0 C1.36027978 9.02033827 1.13260388 17.43563342 -2 26 C-2.66 26.66 -3.32 27.32 -4 28 C-4.66 27.34 -5.32 26.68 -6 26 C-6.99 26 -7.98 26 -9 26 C-9 18 -9 18 -6 15 C-5.34 15.33 -4.68 15.66 -4 16 C-2.68 10.72 -1.36 5.44 0 0 Z " fill="#4A4A4A" transform="translate(101,81)"/>
<path d="M0 0 C0.66 0 1.32 0 2 0 C2 0.66 2 1.32 2 2 C3.65 2.33 5.3 2.66 7 3 C7.33 2.01 7.66 1.02 8 0 C8.98248524 4.0527516 9.08159574 7.83861737 9 12 C7.35 11.67 5.7 11.34 4 11 C3.34 12.65 2.68 14.3 2 16 C1.67 16 1.34 16 1 16 C1 14.35 1 12.7 1 11 C-0.32 11 -1.64 11 -3 11 C-3 8.69 -3 6.38 -3 4 C-2.01 4.33 -1.02 4.66 0 5 C0 3.35 0 1.7 0 0 Z " fill="#A7A7A7" transform="translate(142,72)"/>
<path d="M0 0 C0.66 0.33 1.32 0.66 2 1 C1.071875 2.4540625 1.071875 2.4540625 0.125 3.9375 C-2.30817531 8.14810124 -3.12118558 12.23975522 -4 17 C0.62 17 5.24 17 10 17 C9.360625 15.1025 8.72125 13.205 8.0625 11.25 C6.91791717 7.85317353 5.80570696 4.49422385 5 1 C8.64459966 3.4297331 9.7391473 5.95117488 11 10 C11.49061944 12.67738035 11.76164078 15.28270487 12 18 C8.69005287 19.65497356 5.00877 19.10084335 1.375 19.0625 C0.57320313 19.05798828 -0.22859375 19.05347656 -1.0546875 19.04882812 C-3.03649006 19.03703168 -5.01825433 19.01909605 -7 19 C-6.47589863 14.61808026 -5.74484487 10.76956698 -4.0625 6.6875 C-3.72347656 5.84574219 -3.38445312 5.00398438 -3.03515625 4.13671875 C-2 2 -2 2 0 0 Z " fill="#5F5F60" transform="translate(82,52)"/>
<path d="M0 0 C9.75830269 1.52257205 17.97029616 8.44570134 24 16 C24.74609375 18.2734375 24.74609375 18.2734375 25 20 C23.02 19.01 21.04 18.02 19 17 C19 16.34 19 15.68 19 15 C18.071875 14.896875 17.14375 14.79375 16.1875 14.6875 C12.97535795 13.99468505 11.88069983 13.6120831 10 11 C10 10.34 10 9.68 10 9 C8.66710346 7.49985609 8.66710346 7.49985609 7 6 C6.525625 5.505 6.05125 5.01 5.5625 4.5 C3.81798838 2.82526884 1.95704254 1.41716874 0 0 Z " fill="#646464" transform="translate(119,42)"/>
<path d="M0 0 C4.00717 2.39925095 4.92541081 4.78797162 6.25 9.1875 C6.58515625 10.27417969 6.9203125 11.36085938 7.265625 12.48046875 C7.50796875 13.31191406 7.7503125 14.14335938 8 15 C6.68 15 5.36 15 4 15 C3.67 14.34 3.34 13.68 3 13 C2.01 13.495 2.01 13.495 1 14 C0.34 12.68 -0.32 11.36 -1 10 C-1.99 10.33 -2.98 10.66 -4 11 C-4.66 10.34 -5.32 9.68 -6 9 C-6 8.34 -6 7.68 -6 7 C-5.01 6.34 -4.02 5.68 -3 5 C-3 4.01 -3 3.02 -3 2 C-2.01 1.34 -1.02 0.68 0 0 Z " fill="#C4C4C4" transform="translate(89,44)"/>
<path d="M0 0 C2.16866801 2.16866801 3.45460528 4.35995069 5 7 C5.99 8.485 5.99 8.485 7 10 C4.69 9.67 2.38 9.34 0 9 C-0.99 13.62 -1.98 18.24 -3 23 C-3.99 23 -4.98 23 -6 23 C-6.97242844 13.85196949 -4.60253501 7.84896595 0 0 Z " fill="#343434" transform="translate(32,60)"/>
<path d="M0 0 C0.33 0.99 0.66 1.98 1 3 C1.66 3 2.32 3 3 3 C3.33 4.98 3.66 6.96 4 9 C4.66 9 5.32 9 6 9 C6 9.66 6 10.32 6 11 C5.34 11 4.68 11 4 11 C4 11.99 4 12.98 4 14 C2.35 13.67 0.7 13.34 -1 13 C-1 12.34 -1 11.68 -1 11 C-1.66 11 -2.32 11 -3 11 C-6.07692308 5.58461538 -6.07692308 5.58461538 -5.6875 2.625 C-5.460625 2.08875 -5.23375 1.5525 -5 1 C-3.02 1.495 -3.02 1.495 -1 2 C-0.67 1.34 -0.34 0.68 0 0 Z " fill="#F0F0F0" transform="translate(145,61)"/>
<path d="M0 0 C0.33 -0.33 0.66 -0.66 1 -1 C2.56172745 -1.08685603 4.12729344 -1.10702219 5.69140625 -1.09765625 C6.63564453 -1.09443359 7.57988281 -1.09121094 8.55273438 -1.08789062 C9.54595703 -1.07951172 10.53917969 -1.07113281 11.5625 -1.0625 C12.55958984 -1.05798828 13.55667969 -1.05347656 14.58398438 -1.04882812 C17.05604849 -1.03700007 19.52799518 -1.02051849 22 -1 C22.495 -0.01 22.495 -0.01 23 1 C14.33003296 2.16711095 5.72630608 2.09744014 -3 2 C-3 2.99 -3 3.98 -3 5 C-3.99 5 -4.98 5 -6 5 C-6 4.01 -6 3.02 -6 2 C-7.98 2 -9.96 2 -12 2 C-12 1.34 -12 0.68 -12 0 C-7.64108949 -0.93405225 -4.36150443 -0.81144268 0 0 Z " fill="#DFDFE0" transform="translate(76,77)"/>
<path d="M0 0 C0.99 0.99 1.98 1.98 3 3 C3.66 2.67 4.32 2.34 5 2 C5.45375 2.495 5.9075 2.99 6.375 3.5 C7.87635519 5.22609337 7.87635519 5.22609337 10 5 C10 5.66 10 6.32 10 7 C12.31 7.33 14.62 7.66 17 8 C17 7.34 17 6.68 17 6 C17.66 6 18.32 6 19 6 C19.33 5.34 19.66 4.68 20 4 C20.99 4.33 21.98 4.66 23 5 C23.66 3.68 24.32 2.36 25 1 C25 2.98 25 4.96 25 7 C18.95942424 9.27057103 13.43681228 10.48914188 7 11 C7 10.34 7 9.68 7 9 C6.34 9 5.68 9 5 9 C4.67 7.68 4.34 6.36 4 5 C2.68 5 1.36 5 0 5 C-0.33 4.01 -0.66 3.02 -1 2 C-0.67 1.34 -0.34 0.68 0 0 Z " fill="#787878" transform="translate(72,105)"/>
<path d="M0 0 C1.60101563 0.74830078 1.60101563 0.74830078 3.234375 1.51171875 C4.31203125 2.00285156 5.3896875 2.49398437 6.5 3 C7.31984375 3.39574219 8.1396875 3.79148437 8.984375 4.19921875 C8.51 4.63234375 8.035625 5.06546875 7.546875 5.51171875 C5.74750543 7.22231488 5.74750543 7.22231488 4.984375 10.19921875 C-0.63488126 9.7978433 -3.10219263 8.01947416 -7.015625 4.19921875 C-7.015625 2.19921875 -7.015625 2.19921875 -5.40625 0.4296875 C-3.015625 -0.80078125 -3.015625 -0.80078125 0 0 Z " fill="#F3F3F3" transform="translate(43.015625,62.80078125)"/>
<path d="M0 0 C1.35015859 4.05047576 0.62084998 6.7920168 0 11 C1.65 11 3.3 11 5 11 C5.33 9.68 5.66 8.36 6 7 C6 9.97 6 12.94 6 16 C6.99 16 7.98 16 9 16 C9 13.69 9 11.38 9 9 C9.33 9 9.66 9 10 9 C10.35050464 14.841744 10.16727335 18.8531808 7 24 C4.87491756 20.81237635 4.4979837 18.73487777 4 15 C2.68 15 1.36 15 0 15 C-1.97459273 10.23774693 -2.06449259 7.03214681 -1 2 C-0.67 1.34 -0.34 0.68 0 0 Z " fill="#B0B0B0" transform="translate(20,67)"/>
<path d="M0 0 C1.32 0 2.64 0 4 0 C4.53625 0.763125 5.0725 1.52625 5.625 2.3125 C10.34737781 7.65624331 18.50169521 8.22087521 25.28515625 9.47265625 C25.85105469 9.64667969 26.41695312 9.82070312 27 10 C27.33 10.66 27.66 11.32 28 12 C18.66866956 11.83200551 6.97336246 10.97336246 0 4 C0 2.68 0 1.36 0 0 Z " fill="#818181" transform="translate(40,58)"/>
<path d="M0 0 C10.23 0 20.46 0 31 0 C30.67 0.99 30.34 1.98 30 3 C25.12532925 3.02481234 20.25069568 3.0429131 15.37597656 3.05493164 C13.71939452 3.05994473 12.06281687 3.06675689 10.40625 3.07543945 C8.01821811 3.08763793 5.63024498 3.09325867 3.2421875 3.09765625 C2.14026566 3.10539818 2.14026566 3.10539818 1.01608276 3.11329651 C-3.09778822 3.11374023 -6.96450609 2.80210299 -11 2 C-11 1.67 -11 1.34 -11 1 C-7.37 1 -3.74 1 0 1 C0 0.67 0 0.34 0 0 Z " fill="#B7B7B7" transform="translate(77,121)"/>
<path d="M0 0 C3.61848916 2.41232611 4.82954401 4.93591671 6 9 C6.1875 12.9375 6.1875 12.9375 6 16 C5.01 15.67 4.02 15.34 3 15 C2.26953125 12.93359375 2.26953125 12.93359375 1.8125 10.4375 C1.65394531 9.61121094 1.49539062 8.78492187 1.33203125 7.93359375 C1.22246094 7.29550781 1.11289063 6.65742187 1 6 C0.2575 6.680625 -0.485 7.36125 -1.25 8.0625 C-4 10 -4 10 -6.3125 9.75 C-6.869375 9.5025 -7.42625 9.255 -8 9 C-6.8553125 8.1646875 -6.8553125 8.1646875 -5.6875 7.3125 C-3.03859112 5.03320631 -1.61711178 3.06400128 0 0 Z " fill="#585858" transform="translate(136,61)"/>
<path d="M0 0 C0.66 0.99 1.32 1.98 2 3 C1.34 3 0.68 3 0 3 C0.99 4.485 0.99 4.485 2 6 C2.66 5.34 3.32 4.68 4 4 C4.33 4.99 4.66 5.98 5 7 C3.75 8.5 3.75 8.5 2 10 C0.68 10 -0.64 10 -2 10 C-2 10.66 -2 11.32 -2 12 C-4.31 11.67 -6.62 11.34 -9 11 C-9.33 9.68 -9.66 8.36 -10 7 C-7.29120665 5.64560332 -4.99066732 5.93498549 -2 6 C-1.34 4.02 -0.68 2.04 0 0 Z " fill="#535353" transform="translate(91,101)"/>
<path d="M0 0 C0.845625 0.48210937 1.69125 0.96421875 2.5625 1.4609375 C8.6473499 4.84909256 14.12450214 7.62490043 21 9 C23.5 10.125 23.5 10.125 25 11 C24.34 11.66 23.68 12.32 23 13 C16.99614388 12.84605497 11.1941514 9.84041329 6 7 C5.67 6.34 5.34 5.68 5 5 C4.154375 4.505 3.30875 4.01 2.4375 3.5 C1.633125 3.005 0.82875 2.51 0 2 C0 1.34 0 0.68 0 0 Z " fill="#A9A9A9" transform="translate(32,108)"/>
<path d="M0 0 C3.44185333 1.14728444 3.80360589 1.84134363 5.75 4.75 C8.69528046 8.87191261 11.79418222 11.22416027 16 14 C16 14.33 16 14.66 16 15 C11.85205879 15.08825407 9.86856011 14.6887138 6.56640625 12.0703125 C-0.58458383 5.09094618 -0.58458383 5.09094618 -1 1 C-0.67 0.67 -0.34 0.34 0 0 Z " fill="#6B6B6B" transform="translate(32,95)"/>
<path d="M0 0 C-0.99 4.29 -1.98 8.58 -3 13 C-3.33 13 -3.66 13 -4 13 C-4 10.03 -4 7.06 -4 4 C-4.97582031 3.95101562 -5.95164062 3.90203125 -6.95703125 3.8515625 C-8.22933594 3.77679688 -9.50164062 3.70203125 -10.8125 3.625 C-12.07707031 3.55539063 -13.34164062 3.48578125 -14.64453125 3.4140625 C-18 3 -18 3 -21 1 C-18.25008168 0.83188272 -15.50007888 0.6654519 -12.75 0.5 C-11.97269531 0.45230469 -11.19539063 0.40460938 -10.39453125 0.35546875 C-9.26337891 0.28779297 -9.26337891 0.28779297 -8.109375 0.21875 C-7.41811523 0.17685547 -6.72685547 0.13496094 -6.01464844 0.09179688 C-4.01161035 0.00052902 -2.0051163 0 0 0 Z " fill="#707070" transform="translate(96,79)"/>
<path d="M0 0 C-0.08768248 1.5843317 -0.19587329 3.16753567 -0.3125 4.75 C-0.37050781 5.63171875 -0.42851562 6.5134375 -0.48828125 7.421875 C-1.0641181 10.32303774 -2.07596148 11.79225607 -4 14 C-6.48772258 10.7162062 -7.03180444 9.38801417 -6.6875 5.1875 C-6.460625 4.135625 -6.23375 3.08375 -6 2 C-1.125 0 -1.125 0 0 0 Z " fill="#2B2B2B" transform="translate(150,82)"/>
<path d="M0 0 C0.66 0.33 1.32 0.66 2 1 C0.68 7.27 -0.64 13.54 -2 20 C-2.99 19.67 -3.98 19.34 -5 19 C-6.32816109 15.85691721 -5.87284094 13.49136376 -5.0625 10.25 C-4.77052734 9.05117187 -4.77052734 9.05117187 -4.47265625 7.828125 C-4.31667969 7.22484375 -4.16070312 6.6215625 -4 6 C-3.34 6 -2.68 6 -2 6 C-1.34 4.02 -0.68 2.04 0 0 Z " fill="#6C6C6C" transform="translate(100,79)"/>
<path d="M0 0 C0.33 0.99 0.66 1.98 1 3 C-6.63260258 7.77037661 -13.02257025 9.32062249 -22 9 C-22 8.34 -22 7.68 -22 7 C-21.0821875 6.82984375 -20.164375 6.6596875 -19.21875 6.484375 C-12.18648176 5.09564976 -6.21162875 3.60274467 0 0 Z " fill="#8C8C8D" transform="translate(123,61)"/>
<path d="M0 0 C0.66 0.33 1.32 0.66 2 1 C-0.21564311 5.56976392 -2.31570786 7.02654158 -7 8.875 C-8.051875 9.30554688 -9.10375 9.73609375 -10.1875 10.1796875 C-13 11 -13 11 -16 10 C-16 9.34 -16 8.68 -16 8 C-15.18015625 7.67386719 -14.3603125 7.34773438 -13.515625 7.01171875 C-12.43796875 6.57472656 -11.3603125 6.13773437 -10.25 5.6875 C-9.18265625 5.25824219 -8.1153125 4.82898438 -7.015625 4.38671875 C-4.3347085 3.15391388 -2.2616808 1.87192513 0 0 Z " fill="#F5F5F5" transform="translate(124,107)"/>
<path d="M0 0 C3.5625 0.25 3.5625 0.25 7 1 C7.33 1.66 7.66 2.32 8 3 C2.25 6.875 2.25 6.875 0 8 C0 8.66 0 9.32 0 10 C-0.99 9.67 -1.98 9.34 -3 9 C-2.34 8.01 -1.68 7.02 -1 6 C-1.99 6 -2.98 6 -4 6 C-2.84826645 3.53199953 -1.95216435 1.95216435 0 0 Z " fill="#DDDDDE" transform="translate(81,42)"/>
<path d="M0 0 C1.671549 0.30791692 3.33805547 0.64386903 5 1 C5.99 1 6.98 1 8 1 C10.625 1.875 10.625 1.875 13 3 C13.33 3.66 13.66 4.32 14 5 C13.01 5.33 12.02 5.66 11 6 C11 6.66 11 7.32 11 8 C9.35 7.67 7.7 7.34 6 7 C6 6.34 6 5.68 6 5 C5.21625 4.71125 4.4325 4.4225 3.625 4.125 C1 3 1 3 -1 1 C-0.67 0.67 -0.34 0.34 0 0 Z " fill="#929292" transform="translate(117,48)"/>
<path d="M0 0 C0.66 0 1.32 0 2 0 C2 0.66 2 1.32 2 2 C3.65 2.33 5.3 2.66 7 3 C7 3.33 7 3.66 7 4 C5.35 4 3.7 4 2 4 C2 7.96 2 11.92 2 16 C1.67 16 1.34 16 1 16 C1 14.35 1 12.7 1 11 C-0.32 11 -1.64 11 -3 11 C-3 8.69 -3 6.38 -3 4 C-2.01 4.33 -1.02 4.66 0 5 C0 3.35 0 1.7 0 0 Z " fill="#D0D0D0" transform="translate(142,72)"/>
<path d="M0 0 C2.76276177 0.52268466 5.3260876 1.10869587 8 2 C8 2.66 8 3.32 8 4 C10.31 4.66 12.62 5.32 15 6 C14.67 6.99 14.34 7.98 14 9 C12.88625 8.649375 11.7725 8.29875 10.625 7.9375 C7.19735524 6.62760669 7.19735524 6.62760669 5 8 C5 6.68 5 5.36 5 4 C4.34 4 3.68 4 3 4 C2.67 4.66 2.34 5.32 2 6 C1.01 6 0.02 6 -1 6 C-0.67 4.02 -0.34 2.04 0 0 Z " fill="#BEBEBE" transform="translate(130,55)"/>
<path d="M0 0 C7.58039636 2.01112557 14.25846056 5.01010931 21 9 C21 9.33 21 9.66 21 10 C15.61018077 10.51331612 12.17507457 8.85246383 7.6875 6.125 C7.05521484 5.76019531 6.42292969 5.39539063 5.77148438 5.01953125 C1.1465853 2.29317059 1.1465853 2.29317059 0 0 Z " fill="#686868" transform="translate(30,106)"/>
<path d="M0 0 C2.69082872 0.17635452 5.32851446 0.61835921 8 1 C8 1.99 8 2.98 8 4 C9.32 4.33 10.64 4.66 12 5 C4.08 4.67 -3.84 4.34 -12 4 C-12 3.67 -12 3.34 -12 3 C-10.82630859 2.80083984 -10.82630859 2.80083984 -9.62890625 2.59765625 C-8.61699219 2.42105469 -7.60507813 2.24445312 -6.5625 2.0625 C-5.55316406 1.88847656 -4.54382813 1.71445312 -3.50390625 1.53515625 C-1.0712562 1.25248903 -1.0712562 1.25248903 0 0 Z " fill="#CECED0" transform="translate(91,37)"/>
<path d="M0 0 C2.475 0.495 2.475 0.495 5 1 C3.71034824 2.37562854 2.37310707 3.70766393 1 5 C0.34 5 -0.32 5 -1 5 C-1 5.66 -1 6.32 -1 7 C-2.93232821 7.86580287 -4.87107194 8.71729941 -6.8125 9.5625 C-7.89144531 10.03816406 -8.97039062 10.51382813 -10.08203125 11.00390625 C-13 12 -13 12 -16 11 C-14.25048432 10.04078278 -12.50036756 9.08266183 -10.75 8.125 C-9.28820312 7.32449219 -9.28820312 7.32449219 -7.796875 6.5078125 C-5 5 -5 5 -2.703125 3.9921875 C-0.64848098 3.04634815 -0.64848098 3.04634815 0 0 Z " fill="#525252" transform="translate(133,104)"/>
<path d="M0 0 C-2.64 0.99 -5.28 1.98 -8 3 C-7.67 3.66 -7.34 4.32 -7 5 C-8 8 -8 8 -11.0625 9.6875 C-12.031875 10.120625 -13.00125 10.55375 -14 11 C-14 9.35 -14 7.7 -14 6 C-14.66 5.67 -15.32 5.34 -16 5 C-14.09118566 3.96455826 -12.17260796 2.94709915 -10.25 1.9375 C-8.64898437 1.08478516 -8.64898437 1.08478516 -7.015625 0.21484375 C-4 -1 -4 -1 0 0 Z " fill="#C3C3C3" transform="translate(56,41)"/>
<path d="M0 0 C0.66 0 1.32 0 2 0 C2.69965443 1.26418246 3.38434763 2.53665402 4.0625 3.8125 C4.44535156 4.52019531 4.82820313 5.22789063 5.22265625 5.95703125 C6 8 6 8 5 11 C-1.64615385 8.66153846 -1.64615385 8.66153846 -3.4375 5.3125 C-3.623125 4.549375 -3.80875 3.78625 -4 3 C-1.525 3.495 -1.525 3.495 1 4 C0.67 2.68 0.34 1.36 0 0 Z " fill="#444444" transform="translate(76,100)"/>
<path d="M0 0 C5.11476819 -0.63934602 8.67254378 1.59466453 13 4 C13 4.66 13 5.32 13 6 C14.65 6.33 16.3 6.66 18 7 C16.3125 8.1328125 16.3125 8.1328125 14 9 C8.6747003 7.34437798 3.54279845 4.34797991 0 0 Z " fill="#A9A9A9" transform="translate(36,70)"/>
<path d="M0 0 C-1.98 0.66 -3.96 1.32 -6 2 C-5.67 2.99 -5.34 3.98 -5 5 C-6.98 5.33 -8.96 5.66 -11 6 C-11 5.67 -11 5.34 -11 5 C-15.29 5 -19.58 5 -24 5 C-24 4.67 -24 4.34 -24 4 C-22.73542969 3.72285156 -21.47085938 3.44570312 -20.16796875 3.16015625 C-18.50779395 2.79435502 -16.84763871 2.42846498 -15.1875 2.0625 C-14.35412109 1.88009766 -13.52074219 1.69769531 -12.66210938 1.50976562 C-11.85966797 1.33251953 -11.05722656 1.15527344 -10.23046875 0.97265625 C-9.12288208 0.72914429 -9.12288208 0.72914429 -7.99291992 0.48071289 C-2.51897655 -0.83965885 -2.51897655 -0.83965885 0 0 Z " fill="#828282" transform="translate(117,117)"/>
<path d="M0 0 C0.99 0.33 1.98 0.66 3 1 C4.17755913 3.94389782 4.03348696 4.89953913 3 8 C4.36425099 10.03734904 4.36425099 10.03734904 6.3125 12 C8.45825516 14.29809072 10.24671907 16.3700786 12 19 C8.6673468 17.57904457 6.76393478 15.8834126 4.4375 13.125 C3.85871094 12.44695312 3.27992187 11.76890625 2.68359375 11.0703125 C2.12800781 10.38710937 1.57242187 9.70390625 1 9 C0.41734375 8.31164062 -0.1653125 7.62328125 -0.765625 6.9140625 C-1.17296875 6.28242187 -1.5803125 5.65078125 -2 5 C-1.1875 2.25 -1.1875 2.25 0 0 Z " fill="#D1D1D1" transform="translate(29,90)"/>
<path d="M0 0 C2 4 2 4 2 6 C3.32 6 4.64 6 6 6 C6.66 8.97 7.32 11.94 8 15 C7.34 15 6.68 15 6 15 C6 14.01 6 13.02 6 12 C4.02 11.34 2.04 10.68 0 10 C0 6.7 0 3.4 0 0 Z " fill="#7D7D7D" transform="translate(18,76)"/>
<path d="M0 0 C0.98120464 3.05263664 0.98120464 4.94736336 0 8 C-0.66 8 -1.32 8 -2 8 C-2.33 9.65 -2.66 11.3 -3 13 C-6 9.25 -6 9.25 -6 7 C-5.34 6.67 -4.68 6.34 -4 6 C-4 4.68 -4 3.36 -4 2 C-2.68 1.34 -1.36 0.68 0 0 Z " fill="#F6F6F6" transform="translate(42,46)"/>
<path d="M0 0 C0.33 0 0.66 0 1 0 C1.3690205 14.78132118 1.3690205 14.78132118 -1 21 C-1.33 21 -1.66 21 -2 21 C-2.22424141 13.63740707 -1.90120099 7.12950371 0 0 Z " fill="#1E1E1E" transform="translate(101,81)"/>
<path d="M0 0 C6.27 0 12.54 0 19 0 C19 0.33 19 0.66 19 1 C13.06 1 7.12 1 1 1 C1 2.98 1 4.96 1 7 C0.34 7.66 -0.32 8.32 -1 9 C-1.33 7.68 -1.66 6.36 -2 5 C-2.66 5 -3.32 5 -4 5 C-3.67 3.68 -3.34 2.36 -3 1 C-3 1.66 -3 2.32 -3 3 C-2.01 3 -1.02 3 0 3 C0 2.01 0 1.02 0 0 Z " fill="#AFAFB0" transform="translate(73,79)"/>
<path d="M0 0 C4.13606764 0.60824524 7.46058648 1.74764594 11 4 C11.875 6.6875 11.875 6.6875 12 9 C12.66 9 13.32 9 14 9 C14 10.65 14 12.3 14 14 C12.68 13.34 11.36 12.68 10 12 C10 11.01 10 10.02 10 9 C8.68798827 7.43750191 8.68798827 7.43750191 7 6 C6.525625 5.505 6.05125 5.01 5.5625 4.5 C3.81798838 2.82526884 1.95704254 1.41716874 0 0 Z " fill="#6D6D6D" transform="translate(119,42)"/>
<path d="M0 0 C3.87294449 1.15141593 7.40877243 3.16262776 11 5 C11 5.33 11 5.66 11 6 C4.88225104 6.49940808 1.97504047 5.24900602 -3 2 C-2.01 1.34 -1.02 0.68 0 0 Z " fill="#B5B5B5" transform="translate(48,109)"/>
<path d="M0 0 C1.98 0.99 1.98 0.99 4 2 C4 2.66 4 3.32 4 4 C5.98 3.01 7.96 2.02 10 1 C9.67 2.65 9.34 4.3 9 6 C7.68 5.67 6.36 5.34 5 5 C5 5.99 5 6.98 5 8 C4.01 8 3.02 8 2 8 C-0.1519437 4.77208445 -0.20086443 3.71599191 0 0 Z " fill="#9A9A9A" transform="translate(79,99)"/>
<path d="M0 0 C1.8871875 0.061875 1.8871875 0.061875 3.8125 0.125 C3.8125 1.445 3.8125 2.765 3.8125 4.125 C0.81769083 4.9973412 -1.82325911 5.23329766 -4.9375 5.1875 C-5.73671875 5.17847656 -6.5359375 5.16945313 -7.359375 5.16015625 C-7.96265625 5.14855469 -8.5659375 5.13695313 -9.1875 5.125 C-6.53544688 1.14692031 -4.67921748 -0.15341697 0 0 Z " fill="#FAFAFA" transform="translate(115.1875,68.875)"/>
<path d="M0 0 C-3.75 3 -3.75 3 -6 3 C-6 4.32 -6 5.64 -6 7 C-6.7425 7.2475 -7.485 7.495 -8.25 7.75 C-11.20124062 9.09147301 -12.84814974 10.60905526 -15 13 C-13.69386058 9.08158173 -12.16870152 6.67359191 -9 4 C-8.34 4 -7.68 4 -7 4 C-6.896875 3.360625 -6.79375 2.72125 -6.6875 2.0625 C-6.460625 1.381875 -6.23375 0.70125 -6 0 C-3 -1 -3 -1 0 0 Z " fill="#A7A7A7" transform="translate(40,48)"/>
<path d="M0 0 C0.66 0.33 1.32 0.66 2 1 C1.401875 1.94875 0.80375 2.8975 0.1875 3.875 C-2.38265576 8.32932689 -3.68666274 13.05508623 -5 18 C-5.33 18 -5.66 18 -6 18 C-5.70525904 11.63359524 -4.73796238 4.73796238 0 0 Z " fill="#2D2D2D" transform="translate(82,52)"/>
<path d="M0 0 C0.99 0.33 1.98 0.66 3 1 C1.8125 3.9375 1.8125 3.9375 0 7 C-3.56223535 8.40614553 -6.34683617 7.93938498 -10 7 C-10 6.67 -10 6.34 -10 6 C-8.63875 5.62875 -8.63875 5.62875 -7.25 5.25 C-3.89648511 3.96018658 -2.32291764 2.68028958 0 0 Z " fill="#A7A7A7" transform="translate(93,112)"/>
<path d="M0 0 C4.27650657 1.52732377 5.94669176 4.03499099 8 8 C8.60111858 11.32850786 8.86650576 14.62259563 9 18 C6.43785049 14.15677574 4.93688867 10.08689376 3.21875 5.8125 C2.04444636 2.87368574 2.04444636 2.87368574 0 0 Z " fill="#525253" transform="translate(89,43)"/>
<path d="M0 0 C1.77503906 0.03480469 1.77503906 0.03480469 3.5859375 0.0703125 C5.36871094 0.09738281 5.36871094 0.09738281 7.1875 0.125 C8.10273437 0.14820313 9.01796875 0.17140625 9.9609375 0.1953125 C9.9609375 0.5253125 9.9609375 0.8553125 9.9609375 1.1953125 C8.383125 1.5665625 8.383125 1.5665625 6.7734375 1.9453125 C3.1475834 2.96232036 0.76182978 4.64904679 -2.0390625 7.1953125 C-1.7090625 6.2053125 -1.3790625 5.2153125 -1.0390625 4.1953125 C-2.3590625 3.5353125 -3.6790625 2.8753125 -5.0390625 2.1953125 C-3.0390625 0.1953125 -3.0390625 0.1953125 0 0 Z " fill="#636364" transform="translate(77.0390625,40.8046875)"/>
<path d="M0 0 C0 2.64 0 5.28 0 8 C-0.61875 7.649375 -1.2375 7.29875 -1.875 6.9375 C-2.926875 6.4734375 -2.926875 6.4734375 -4 6 C-4.99 6.495 -4.99 6.495 -6 7 C-5.625 4.0625 -5.625 4.0625 -5 1 C-3 0 -3 0 0 0 Z " fill="#F2F2F2" transform="translate(143,83)"/>
<path d="M0 0 C0.763125 0.20625 1.52625 0.4125 2.3125 0.625 C0.6625 2.275 -0.9875 3.925 -2.6875 5.625 C-2.6875 4.635 -2.6875 3.645 -2.6875 2.625 C-3.6775 4.605 -4.6675 6.585 -5.6875 8.625 C-6.3475 8.295 -7.0075 7.965 -7.6875 7.625 C-5.32271401 -0.74270428 -5.32271401 -0.74270428 0 0 Z " fill="#B2B2B2" transform="translate(78.6875,47.375)"/>
<path d="M0 0 C4.95 2.64 9.9 5.28 15 8 C14.01 8.66 13.02 9.32 12 10 C6.125 7.25 6.125 7.25 5 5 C4.154375 4.505 3.30875 4.01 2.4375 3.5 C1.633125 3.005 0.82875 2.51 0 2 C0 1.34 0 0.68 0 0 Z " fill="#B8B8B8" transform="translate(32,108)"/>
<path d="M0 0 C0.99 0.99 1.98 1.98 3 3 C3.66 2.67 4.32 2.34 5 2 C5.45375 2.495 5.9075 2.99 6.375 3.5 C7.87635519 5.22609337 7.87635519 5.22609337 10 5 C10 5.99 10 6.98 10 8 C7.03 7.505 7.03 7.505 4 7 C4 6.34 4 5.68 4 5 C2.68 5 1.36 5 0 5 C-0.33 4.01 -0.66 3.02 -1 2 C-0.67 1.34 -0.34 0.68 0 0 Z " fill="#6B6B6B" transform="translate(72,105)"/>
<path d="M0 0 C5.28 0.66 10.56 1.32 16 2 C16 2.33 16 2.66 16 3 C11.71 3 7.42 3 3 3 C3 5.31 3 7.62 3 10 C1 7 1 7 0 0 Z " fill="#454545" transform="translate(74,80)"/>
<path d="M0 0 C1.35015859 4.05047576 0.62084998 6.7920168 0 11 C1.65 11 3.3 11 5 11 C4.67 11.99 4.34 12.98 4 14 C2.35 13.67 0.7 13.34 -1 13 C-2.42857143 4.57142857 -2.42857143 4.57142857 0 0 Z " fill="#D1D1D1" transform="translate(20,67)"/>
<path d="M0 0 C2.31 0.66 4.62 1.32 7 2 C7 3.32 7 4.64 7 6 C4.69 5.67 2.38 5.34 0 5 C-0.5625 3.0625 -0.5625 3.0625 -1 1 C-0.67 0.67 -0.34 0.34 0 0 Z " fill="#5D5D5D" transform="translate(82,107)"/>
<path d="M0 0 C0.66 0.66 1.32 1.32 2 2 C0.875 4.9375 0.875 4.9375 -1 8 C-4.1875 8.875 -4.1875 8.875 -7 9 C-6.67 7.68 -6.34 6.36 -6 5 C-5.01 5 -4.02 5 -3 5 C-1.28288757 2.55503957 -1.28288757 2.55503957 0 0 Z " fill="#EFEFEF" transform="translate(90,99)"/>
<path d="M0 0 C1.32 0 2.64 0 4 0 C4.33 1.32 4.66 2.64 5 4 C5.66 4 6.32 4 7 4 C7.33 5.65 7.66 7.3 8 9 C7.34 9 6.68 9 6 9 C6 8.34 6 7.68 6 7 C5.34 7 4.68 7 4 7 C2.02 3.535 2.02 3.535 0 0 Z " fill="#A2A2A2" transform="translate(72,110)"/>
<path d="M0 0 C0.33 0 0.66 0 1 0 C1 3.3 1 6.6 1 10 C0.34 9.34 -0.32 8.68 -1 8 C-1.99 8 -2.98 8 -4 8 C-4.33 6.02 -4.66 4.04 -5 2 C-4.34 2 -3.68 2 -3 2 C-2.34 2.66 -1.68 3.32 -1 4 C-0.67 2.68 -0.34 1.36 0 0 Z " fill="#858585" transform="translate(74,82)"/>
<path d="M0 0 C0.66 0 1.32 0 2 0 C1.67 1.32 1.34 2.64 1 4 C4.3 3.67 7.6 3.34 11 3 C11.33 3.66 11.66 4.32 12 5 C8.04 5.66 4.08 6.32 0 7 C0 4.69 0 2.38 0 0 Z " fill="#D1D1D3" transform="translate(100,66)"/>
<path d="M0 0 C2.16866801 2.16866801 3.45460528 4.35995069 5 7 C5.99 8.485 5.99 8.485 7 10 C2.25 9.125 2.25 9.125 0 8 C-1.27536232 2.55072464 -1.27536232 2.55072464 0 0 Z " fill="#585858" transform="translate(32,60)"/>
<path d="M0 0 C1.32 1.32 2.64 2.64 4 4 C3.01 5.485 3.01 5.485 2 7 C-0.625 7.1875 -0.625 7.1875 -3 7 C-1.125 2.25 -1.125 2.25 0 0 Z " fill="#414141" transform="translate(138,98)"/>
<path d="M0 0 C0.33 0 0.66 0 1 0 C0.979375 1.010625 0.95875 2.02125 0.9375 3.0625 C0.99687734 6.80327257 1.39795085 10.31244898 2 14 C1.01 14 0.02 14 -1 14 C-1.02705729 12.22925083 -1.04642195 10.45838289 -1.0625 8.6875 C-1.07410156 7.70136719 -1.08570312 6.71523437 -1.09765625 5.69921875 C-1 3 -1 3 0 0 Z " fill="#565656" transform="translate(27,69)"/>
<path d="M0 0 C0.33 0.66 0.66 1.32 1 2 C0.06421005 4.35981813 -0.93347808 6.69631264 -2 9 C-2.99 9 -3.98 9 -5 9 C-5 7 -5 7 -3 5 C-3.66 4.01 -4.32 3.02 -5 2 C-3.35 1.34 -1.7 0.68 0 0 Z " fill="#E9E9E9" transform="translate(135,58)"/>
<path d="M0 0 C2 1 2 1 2.6875 2.8125 C3.02688538 5.18819767 2.72856341 6.73335829 2 9 C1.34 9 0.68 9 0 9 C-1.625 6.5 -1.625 6.5 -3 4 C-2.34 3.67 -1.68 3.34 -1 3 C-0.67 2.01 -0.34 1.02 0 0 Z " fill="#BDBDBD" transform="translate(91,46)"/>
<path d="M0 0 C2.97 0.33 5.94 0.66 9 1 C8.01 1.495 8.01 1.495 7 2 C7 2.66 7 3.32 7 4 C7.66 4.33 8.32 4.66 9 5 C5.97580475 4.41196203 2.98241547 3.77321882 0 3 C0 2.01 0 1.02 0 0 Z " fill="#BBBBBB" transform="translate(99,38)"/>
<path d="M0 0 C0.268125 0.639375 0.53625 1.27875 0.8125 1.9375 C1.88667752 4.33131686 1.88667752 4.33131686 5 5 C5 5.66 5 6.32 5 7 C4.34 7 3.68 7 3 7 C2.67 7.66 2.34 8.32 2 9 C-2 4.25 -2 4.25 -2 2 C-1.34 2 -0.68 2 0 2 C0 1.34 0 0.68 0 0 Z " fill="#3D3D3D" transform="translate(24,93)"/>
<path d="M0 0 C0.66 0 1.32 0 2 0 C2 2.31 2 4.62 2 7 C0.35 6.67 -1.3 6.34 -3 6 C-3.33 6.66 -3.66 7.32 -4 8 C-4.33 7.01 -4.66 6.02 -5 5 C-4.34 4.34 -3.68 3.68 -3 3 C-2.01 3 -1.02 3 0 3 C0 2.01 0 1.02 0 0 Z " fill="#818181" transform="translate(149,77)"/>
<path d="M0 0 C2.31 0 4.62 0 7 0 C7.33 1.32 7.66 2.64 8 4 C6.68 4.99 5.36 5.98 4 7 C2.02 3.535 2.02 3.535 0 0 Z " fill="#E4E4E5" transform="translate(92,44)"/>
<path d="M0 0 C1.51400391 0.01740234 1.51400391 0.01740234 3.05859375 0.03515625 C4.07050781 0.04417969 5.08242187 0.05320313 6.125 0.0625 C7.29869141 0.07990234 7.29869141 0.07990234 8.49609375 0.09765625 C8.82609375 0.75765625 9.15609375 1.41765625 9.49609375 2.09765625 C7.70600908 2.31917174 5.91391213 2.52447838 4.12109375 2.72265625 C3.12335938 2.83867188 2.125625 2.9546875 1.09765625 3.07421875 C0.23914063 3.08195312 -0.619375 3.0896875 -1.50390625 3.09765625 C-2.16390625 2.43765625 -2.82390625 1.77765625 -3.50390625 1.09765625 C-2.50390625 0.09765625 -2.50390625 0.09765625 0 0 Z " fill="#7E7E7F" transform="translate(89.50390625,40.90234375)"/>
<path d="M0 0 C1.65 0.33 3.3 0.66 5 1 C3.62141149 3.75717702 1.62533685 4.46321746 -1 6 C-1.66 6.66 -2.32 7.32 -3 8 C-3.66 7.34 -4.32 6.68 -5 6 C-4.67 5.34 -4.34 4.68 -4 4 C-3.01 4 -2.02 4 -1 4 C-0.67 2.68 -0.34 1.36 0 0 Z " fill="#D4D4D4" transform="translate(82,48)"/>
<path d="M0 0 C0.33 0 0.66 0 1 0 C1.22174933 1.45635371 1.42698698 2.91522956 1.625 4.375 C1.74101563 5.18710938 1.85703125 5.99921875 1.9765625 6.8359375 C1.98429687 7.55007812 1.99203125 8.26421875 2 9 C1.34 9.66 0.68 10.32 0 11 C-0.103125 10.401875 -0.20625 9.80375 -0.3125 9.1875 C-1.08876455 6.71756736 -2.07088921 5.67748765 -4 4 C-3.67 3.01 -3.34 2.02 -3 1 C-2.34 1.33 -1.68 1.66 -1 2 C-0.67 1.34 -0.34 0.68 0 0 Z " fill="#3C3C3C" transform="translate(98,95)"/>
<path d="M0 0 C0.66 0.33 1.32 0.66 2 1 C0.79618552 3.49361571 -0.45428722 5.68143083 -2 8 C-2.99 8 -3.98 8 -5 8 C-4.64950425 4.75791433 -4.43778819 3.38472296 -1.9375 1.1875 C-1.298125 0.795625 -0.65875 0.40375 0 0 Z " fill="#545454" transform="translate(46,49)"/>
<path d="M0 0 C3.79450934 0.39253545 5.51015791 2.24338912 8 5 C4.625 4.6875 4.625 4.6875 1 4 C0.34 3.01 -0.32 2.02 -1 1 C-0.67 0.67 -0.34 0.34 0 0 Z " fill="#8E8E8E" transform="translate(40,105)"/>
<path d="M0 0 C0.99 0.33 1.98 0.66 3 1 C2.01 3.31 1.02 5.62 0 8 C-0.99 7.67 -1.98 7.34 -3 7 C-2.625 4.0625 -2.625 4.0625 -2 1 C-1.34 0.67 -0.68 0.34 0 0 Z " fill="#545454" transform="translate(146,83)"/>
<path d="M0 0 C5.07612318 -0.61528766 7.82982006 1.38341651 12 4 C10 5 10 5 6.5625 4.25 C3.39111319 3.1372327 1.99575677 2.58274406 0 0 Z " fill="#838383" transform="translate(36,70)"/>
<path d="M0 0 C3.37503669 1.1858237 5.64722731 2.27573689 8 5 C5 6 5 6 1.8125 4.5625 C0.884375 4.046875 -0.04375 3.53125 -1 3 C-0.67 2.01 -0.34 1.02 0 0 Z " fill="#F2F2F2" transform="translate(125,41)"/>
<path d="M0 0 C0.99 0.33 1.98 0.66 3 1 C3.6875 3.0625 3.6875 3.0625 4 5 C2.35 5.33 0.7 5.66 -1 6 C-1 3 -1 3 0 0 Z " fill="#A8A8A8" transform="translate(29,90)"/>
<path d="M0 0 C4.95 0.99 4.95 0.99 10 2 C10 2.66 10 3.32 10 4 C7.8125 4.8125 7.8125 4.8125 5 5 C2.1875 2.5625 2.1875 2.5625 0 0 Z " fill="#828282" transform="translate(49,75)"/>
<path d="M0 0 C0.33 0.99 0.66 1.98 1 3 C1.66 3 2.32 3 3 3 C2.67 3.99 2.34 4.98 2 6 C-0.31 5.01 -2.62 4.02 -5 3 C-5.33 3.66 -5.66 4.32 -6 5 C-5.67 3.68 -5.34 2.36 -5 1 C-3.02 1.495 -3.02 1.495 -1 2 C-0.67 1.34 -0.34 0.68 0 0 Z " fill="#DFDFDF" transform="translate(145,61)"/>
<path d="M0 0 C1 3 1 3 0.4375 5.125 C-1 7 -1 7 -4.125 7.75 C-5.548125 7.87375 -5.548125 7.87375 -7 8 C-6.02133662 6.85373678 -5.04205413 5.70800212 -4.0625 4.5625 C-3.51722656 3.92441406 -2.97195312 3.28632812 -2.41015625 2.62890625 C-1.63204305 1.73008851 -0.84063472 0.84063472 0 0 Z " fill="#3B3B3B" transform="translate(135,63)"/>
<path d="M0 0 C1.485 0.99 1.485 0.99 3 2 C2.67 4.31 2.34 6.62 2 9 C1.34 9 0.68 9 0 9 C-1.15941038 5.52176885 -0.70820884 3.54104422 0 0 Z " fill="#F2F2F2" transform="translate(127,52)"/>
<path d="M0 0 C-1.32 0 -2.64 0 -4 0 C-4 0.66 -4 1.32 -4 2 C-6.97 1.505 -6.97 1.505 -10 1 C-10 0.34 -10 -0.32 -10 -1 C-5.92224809 -1.9267618 -3.57818963 -2.33958553 0 0 Z " fill="#7E7E7E" transform="translate(76,43)"/>
<path d="M0 0 C0.66 0.66 1.32 1.32 2 2 C-1.72965139 4.03435531 -3.66905042 5 -8 5 C-8 4.34 -8 3.68 -8 3 C-5.36 2.01 -2.72 1.02 0 0 Z " fill="#D8D8D8" transform="translate(121,65)"/>
<path d="M0 0 C1.65 0 3.3 0 5 0 C4.67 0.99 4.34 1.98 4 3 C2.02 3.33 0.04 3.66 -2 4 C-1.34 2.68 -0.68 1.36 0 0 Z " fill="#E9E9EA" transform="translate(79,44)"/>
<path d="M0 0 C0.33 0.66 0.66 1.32 1 2 C1.99 2.33 2.98 2.66 4 3 C1.8614515 5.1385485 0.86724686 5.42655063 -2 6 C-2.33 4.68 -2.66 3.36 -3 2 C-2.01 1.34 -1.02 0.68 0 0 Z " fill="#F4F4F4" transform="translate(50,42)"/>
<path d="M0 0 C2 3 2 3 2 5 C1.34 5 0.68 5 0 5 C-0.33 6.32 -0.66 7.64 -1 9 C-2 8 -2 8 -2.1875 5.625 C-2 3 -2 3 0 0 Z " fill="#D7D7D7" transform="translate(29,85)"/>
<path d="M0 0 C0.33 0 0.66 0 1 0 C1 2.97 1 5.94 1 9 C0.01 9 -0.98 9 -2 9 C-2.33 7.35 -2.66 5.7 -3 4 C-2.01 4.33 -1.02 4.66 0 5 C0 3.35 0 1.7 0 0 Z " fill="#9D9D9D" transform="translate(142,72)"/>
<path d="M0 0 C0.66 0.33 1.32 0.66 2 1 C2 1.99 2 2.98 2 4 C0.35 4.66 -1.3 5.32 -3 6 C-3.33 5.01 -3.66 4.02 -4 3 C-2.68 2.01 -1.36 1.02 0 0 Z " fill="#F9F9F9" transform="translate(40,62)"/>
<path d="M0 0 C0.99 0.33 1.98 0.66 3 1 C0.75 3.0625 0.75 3.0625 -2 5 C-4.3125 4.75 -4.3125 4.75 -6 4 C-3.1875 1.9375 -3.1875 1.9375 0 0 Z " fill="#A5A5A5" transform="translate(50,48)"/>
<path d="M0 0 C0.33 0.66 0.66 1.32 1 2 C1.66 2.33 2.32 2.66 3 3 C2.34 4.32 1.68 5.64 1 7 C0.01 6.01 -0.98 5.02 -2 4 C-1.34 2.68 -0.68 1.36 0 0 Z " fill="#545454" transform="translate(96,92)"/>
<path d="M0 0 C0.6875 1.75 0.6875 1.75 1 4 C-0.4375 6.25 -0.4375 6.25 -2 8 C-2.6875 5.6875 -2.6875 5.6875 -3 3 C-1.5625 1.1875 -1.5625 1.1875 0 0 Z " fill="#A2A2A2" transform="translate(99,79)"/>
<path d="M0 0 C0 2.31 0 4.62 0 7 C-0.99 6.67 -1.98 6.34 -3 6 C-3.33 4.35 -3.66 2.7 -4 1 C-1 0 -1 0 0 0 Z " fill="#696969" transform="translate(142,70)"/>
<path d="M0 0 C0.99 0.33 1.98 0.66 3 1 C2.01 2.98 1.02 4.96 0 7 C-0.66 7 -1.32 7 -2 7 C-1.125 1.125 -1.125 1.125 0 0 Z " fill="#E8E8E8" transform="translate(32,68)"/>
<path d="M0 0 C0.66 0 1.32 0 2 0 C2 0.66 2 1.32 2 2 C2.99 2.33 3.98 2.66 5 3 C4.01 3.495 4.01 3.495 3 4 C2.67 4.66 2.34 5.32 2 6 C1.01 6 0.02 6 -1 6 C-0.67 4.02 -0.34 2.04 0 0 Z " fill="#C5C5C5" transform="translate(130,55)"/>
<path d="M0 0 C3.68754757 0.49831724 5.60490662 1.10067643 8 4 C5.69 4 3.38 4 1 4 C0.67 2.68 0.34 1.36 0 0 Z " fill="#939393" transform="translate(80,116)"/>
<path d="M0 0 C3.65316671 1.24976756 4.78065836 1.67098753 7 5 C6.01 5.33 5.02 5.66 4 6 C4 5.34 4 4.68 4 4 C3.34 4 2.68 4 2 4 C1.34 2.68 0.68 1.36 0 0 Z " fill="#535353" transform="translate(129,47)"/>
<path d="M0 0 C4.75 0.75 4.75 0.75 7 3 C7 3.99 7 4.98 7 6 C3.63279613 4.60667426 2.0140476 3.0210714 0 0 Z " fill="#7A7A7A" transform="translate(120,44)"/>
</svg>
