<svg width="1500" height="300" viewBox="0 0 1500 300" fill="none" xmlns="http://www.w3.org/2000/svg">
<mask id="path-1-outside-1_2018_382" maskUnits="userSpaceOnUse" x="20" y="56.5" width="1399" height="209" fill="black">
<rect fill="white" x="20" y="56.5" width="1399" height="209"/>
<path d="M120.88 263.3C101.093 263.3 83.7333 259.567 68.8 252.1C54.0533 244.447 42.5733 233.527 34.36 219.34C26.3333 204.967 22.32 187.98 22.32 168.38C22.32 145.793 27.1733 126.287 36.88 109.86C46.5867 93.2467 59.9333 80.6467 76.92 72.06C94.0933 63.2867 113.32 58.9 134.6 58.9C163.16 58.9 186.4 65.9933 204.32 80.18L182.2 127.78C174.733 121.62 167.173 116.86 159.52 113.5C151.867 110.14 143.467 108.46 134.32 108.46C123.12 108.46 113.227 110.887 104.64 115.74C96.24 120.593 89.7067 127.313 85.04 135.9C80.56 144.3 78.32 153.82 78.32 164.46C78.32 179.393 82.6133 191.34 91.2 200.3C99.9733 209.26 111.827 213.74 126.76 213.74C135.907 213.74 144.4 212.247 152.24 209.26C160.267 206.087 169.04 201.793 178.56 196.38L190.32 243.14C169.04 256.58 145.893 263.3 120.88 263.3ZM310.79 263.3C290.63 263.3 273.083 259.567 258.15 252.1C243.217 244.633 231.643 233.807 223.43 219.62C215.403 205.433 211.39 188.447 211.39 168.66C211.39 148.873 215.683 130.673 224.27 114.06C233.043 97.4467 246.017 84.1 263.19 74.02C280.55 63.94 301.55 58.9 326.19 58.9C345.417 58.9 362.217 62.54 376.59 69.82C391.15 76.9133 402.443 87.46 410.47 101.46C418.497 115.46 422.51 132.26 422.51 151.86C422.51 169.78 418.59 187.233 410.75 204.22C403.097 221.207 390.87 235.3 374.07 246.5C357.457 257.7 336.363 263.3 310.79 263.3ZM313.87 213.18C325.257 213.18 334.87 210.287 342.71 204.5C350.55 198.527 356.43 191.06 360.35 182.1C364.27 172.953 366.23 163.527 366.23 153.82C366.23 139.82 362.03 128.9 353.63 121.06C345.417 113.033 334.59 109.02 321.15 109.02C308.457 109.02 298.097 111.913 290.07 117.7C282.23 123.3 276.537 130.487 272.99 139.26C269.443 147.847 267.67 156.807 267.67 166.14C267.67 181.073 271.683 192.647 279.71 200.86C287.923 209.073 299.31 213.18 313.87 213.18ZM652.876 61.7L617.596 260.5H566.356L508.396 140.94L487.116 260.5H436.716L471.996 61.7H523.516L581.196 181.26L602.476 61.7H652.876ZM878.866 61.7L843.586 260.5H792.346L734.386 140.94L713.106 260.5H662.706L697.986 61.7H749.506L807.186 181.26L828.466 61.7H878.866ZM923.977 61.7H1052.22L1044.1 107.9H969.057L963.457 138.98H1036.26L1028.42 183.5H955.617L950.017 214.3H1027.58L1019.46 260.5H888.697L923.977 61.7ZM1158.41 263.3C1138.62 263.3 1121.26 259.567 1106.33 252.1C1091.58 244.447 1080.1 233.527 1071.89 219.34C1063.86 204.967 1059.85 187.98 1059.85 168.38C1059.85 145.793 1064.7 126.287 1074.41 109.86C1084.12 93.2467 1097.46 80.6467 1114.45 72.06C1131.62 63.2867 1150.85 58.9 1172.13 58.9C1200.69 58.9 1223.93 65.9933 1241.85 80.18L1219.73 127.78C1212.26 121.62 1204.7 116.86 1197.05 113.5C1189.4 110.14 1181 108.46 1171.85 108.46C1160.65 108.46 1150.76 110.887 1142.17 115.74C1133.77 120.593 1127.24 127.313 1122.57 135.9C1118.09 144.3 1115.85 153.82 1115.85 164.46C1115.85 179.393 1120.14 191.34 1128.73 200.3C1137.5 209.26 1149.36 213.74 1164.29 213.74C1173.44 213.74 1181.93 212.247 1189.77 209.26C1197.8 206.087 1206.57 201.793 1216.09 196.38L1227.85 243.14C1206.57 256.58 1183.42 263.3 1158.41 263.3ZM1407.68 107.62H1358.4L1331.24 260.5H1278.04L1305.2 107.62H1255.36L1263.48 61.7H1415.8L1407.68 107.62Z"/>
</mask>
<path d="M68.8 252.1L67.9359 253.765L67.9485 253.771L67.9611 253.778L68.8 252.1ZM34.36 219.34L32.7223 220.255L32.7294 220.267L32.7367 220.28L34.36 219.34ZM36.88 109.86L38.4949 110.814L38.4996 110.806L36.88 109.86ZM76.92 72.06L77.7662 73.7341L77.7734 73.7304L76.92 72.06ZM204.32 80.18L206.021 80.9705L206.645 79.6281L205.484 78.7093L204.32 80.18ZM182.2 127.78L181.006 129.227L182.878 130.771L183.901 128.57L182.2 127.78ZM104.64 115.74L103.717 114.107L103.709 114.111L103.702 114.116L104.64 115.74ZM85.04 135.9L83.3919 135.004L83.3884 135.011L83.3849 135.017L85.04 135.9ZM91.2 200.3L89.8457 201.598L89.8527 201.605L89.8597 201.612L91.2 200.3ZM152.24 209.26L152.908 211.013L152.919 211.009L152.93 211.004L152.24 209.26ZM178.56 196.38L180.379 195.922L179.777 193.53L177.633 194.749L178.56 196.38ZM190.32 243.14L191.322 244.726L192.471 244L192.139 242.682L190.32 243.14ZM120.88 261.424C101.331 261.424 84.2677 257.737 69.6389 250.422L67.9611 253.778C83.1989 261.397 100.856 265.176 120.88 265.176V261.424ZM69.6641 250.435C55.2298 242.944 44.0152 232.273 35.9833 218.4L32.7367 220.28C41.1315 234.78 52.8769 245.949 67.9359 253.765L69.6641 250.435ZM35.9977 218.425C28.1544 204.381 24.1958 187.721 24.1958 168.38H20.4442C20.4442 188.239 24.5122 205.553 32.7223 220.255L35.9977 218.425ZM24.1958 168.38C24.1958 146.067 28.9881 126.903 38.4949 110.814L35.2651 108.906C25.3586 125.671 20.4442 145.52 20.4442 168.38H24.1958ZM38.4996 110.806C48.0261 94.5013 61.1058 82.1558 77.7662 73.734L76.0738 70.3859C58.7609 79.1375 45.1473 91.992 35.2604 108.914L38.4996 110.806ZM77.7734 73.7304C94.656 65.1056 113.586 60.7758 134.6 60.7758V57.0242C113.055 57.0242 93.5306 61.4677 76.0666 70.3896L77.7734 73.7304ZM134.6 60.7758C162.845 60.7758 185.643 67.7862 203.156 81.6507L205.484 78.7093C187.157 64.2004 163.475 57.0242 134.6 57.0242V60.7758ZM202.619 79.3895L180.499 126.989L183.901 128.57L206.021 80.9705L202.619 79.3895ZM183.394 126.333C175.814 120.08 168.108 115.222 160.274 111.782L158.766 115.218C166.238 118.498 173.652 123.16 181.006 129.227L183.394 126.333ZM160.274 111.782C152.361 108.309 143.702 106.584 134.32 106.584V110.336C143.232 110.336 151.372 111.971 158.766 115.218L160.274 111.782ZM134.32 106.584C122.841 106.584 112.622 109.074 103.717 114.107L105.563 117.373C113.832 112.699 123.399 110.336 134.32 110.336V106.584ZM103.702 114.116C95.0001 119.143 88.2222 126.116 83.3919 135.004L86.6881 136.796C91.1911 128.51 97.4799 122.043 105.578 117.364L103.702 114.116ZM83.3849 135.017C78.7436 143.72 76.4442 153.549 76.4442 164.46H80.1958C80.1958 154.091 82.3764 144.88 86.6951 136.783L83.3849 135.017ZM76.4442 164.46C76.4442 179.773 80.8585 192.22 89.8457 201.598L92.5543 199.002C84.3682 190.46 80.1958 179.014 80.1958 164.46H76.4442ZM89.8597 201.612C99.0524 211.001 111.426 215.616 126.76 215.616V211.864C112.227 211.864 100.894 207.519 92.5403 198.988L89.8597 201.612ZM126.76 215.616C136.114 215.616 144.836 214.088 152.908 211.013L151.572 207.507C143.964 210.405 135.699 211.864 126.76 211.864V215.616ZM152.93 211.004C161.056 207.792 169.91 203.456 179.487 198.011L177.633 194.749C168.17 200.13 159.477 204.382 151.55 207.516L152.93 211.004ZM176.741 196.838L188.501 243.598L192.139 242.682L180.379 195.922L176.741 196.838ZM189.318 241.554C168.336 254.806 145.536 261.424 120.88 261.424V265.176C146.25 265.176 169.744 258.354 191.322 244.726L189.318 241.554ZM258.15 252.1L257.311 253.778L257.311 253.778L258.15 252.1ZM223.43 219.62L221.797 220.544L221.802 220.552L221.807 220.56L223.43 219.62ZM224.27 114.06L222.611 113.184L222.607 113.191L222.604 113.199L224.27 114.06ZM263.19 74.02L262.248 72.3978L262.24 72.4023L263.19 74.02ZM376.59 69.82L375.742 71.4934L375.755 71.4999L375.768 71.5063L376.59 69.82ZM410.47 101.46L408.843 102.393L408.843 102.393L410.47 101.46ZM410.75 204.22L409.047 203.434L409.043 203.442L409.04 203.449L410.75 204.22ZM374.07 246.5L373.03 244.939L373.021 244.945L374.07 246.5ZM342.71 204.5L343.824 206.009L343.835 206.001L343.847 205.992L342.71 204.5ZM360.35 182.1L362.069 182.852L362.074 182.839L360.35 182.1ZM353.63 121.06L352.319 122.402L352.334 122.417L352.35 122.431L353.63 121.06ZM290.07 117.7L291.16 119.226L291.167 119.222L290.07 117.7ZM272.99 139.26L274.724 139.976L274.729 139.963L272.99 139.26ZM279.71 200.86L278.368 202.171L278.376 202.179L278.384 202.186L279.71 200.86ZM310.79 261.424C290.862 261.424 273.613 257.734 258.989 250.422L257.311 253.778C272.554 261.399 290.398 265.176 310.79 265.176V261.424ZM258.989 250.422C244.377 243.116 233.079 232.543 225.053 218.68L221.807 220.56C230.207 235.07 242.056 246.15 257.311 253.778L258.989 250.422ZM225.063 218.696C217.226 204.846 213.266 188.192 213.266 168.66H209.514C209.514 188.701 213.581 206.021 221.797 220.544L225.063 218.696ZM213.266 168.66C213.266 149.155 217.495 131.253 225.936 114.921L222.604 113.199C213.871 130.094 209.514 148.592 209.514 168.66H213.266ZM225.929 114.936C234.529 98.6497 247.248 85.5522 264.14 75.6377L262.24 72.4023C244.785 82.6478 231.557 96.2436 222.611 113.184L225.929 114.936ZM264.132 75.6421C281.147 65.7622 301.806 60.7758 326.19 60.7758V57.0242C301.294 57.0242 279.953 62.1178 262.248 72.3978L264.132 75.6421ZM326.19 60.7758C345.179 60.7758 361.678 64.3698 375.742 71.4934L377.438 68.1466C362.755 60.7102 345.655 57.0242 326.19 57.0242V60.7758ZM375.768 71.5063C389.992 78.4356 401.004 88.7204 408.843 102.393L412.097 100.527C403.883 86.1996 392.308 75.3911 377.412 68.1337L375.768 71.5063ZM408.843 102.393C416.675 116.054 420.634 132.517 420.634 151.86H424.386C424.386 132.003 420.318 114.866 412.097 100.527L408.843 102.393ZM420.634 151.86C420.634 169.497 416.778 186.683 409.047 203.434L412.453 205.006C420.402 187.784 424.386 170.063 424.386 151.86H420.634ZM409.04 203.449C401.543 220.088 389.562 233.918 373.03 244.939L375.111 248.061C392.178 236.682 404.65 222.325 412.46 204.991L409.04 203.449ZM373.021 244.945C356.793 255.885 336.093 261.424 310.79 261.424V265.176C336.634 265.176 358.12 259.515 375.119 248.055L373.021 244.945ZM313.87 215.056C325.588 215.056 335.609 212.072 343.824 206.009L341.596 202.991C334.131 208.501 324.926 211.304 313.87 211.304V215.056ZM343.847 205.992C351.938 199.827 358.02 192.106 362.069 182.852L358.632 181.348C354.84 190.014 349.162 197.226 341.573 203.008L343.847 205.992ZM362.074 182.839C366.092 173.465 368.106 163.787 368.106 153.82H364.354C364.354 163.266 362.448 172.442 358.626 181.361L362.074 182.839ZM368.106 153.82C368.106 139.422 363.771 127.959 354.91 119.689L352.35 122.431C360.289 129.841 364.354 140.218 364.354 153.82H368.106ZM354.941 119.718C346.318 111.291 334.99 107.144 321.15 107.144V110.896C334.19 110.896 344.515 114.775 352.319 122.402L354.941 119.718ZM321.15 107.144C308.174 107.144 297.399 110.104 288.973 116.178L291.167 119.222C298.794 113.723 308.739 110.896 321.15 110.896V107.144ZM288.98 116.174C280.855 121.977 274.934 129.447 271.251 138.557L274.729 139.963C278.14 131.526 283.605 124.623 291.16 119.226L288.98 116.174ZM271.256 138.544C267.615 147.359 265.794 156.562 265.794 166.14H269.546C269.546 157.051 271.271 148.335 274.724 139.976L271.256 138.544ZM265.794 166.14C265.794 181.411 269.906 193.511 278.368 202.171L281.052 199.549C273.461 191.782 269.546 180.736 269.546 166.14H265.794ZM278.384 202.186C287.033 210.836 298.946 215.056 313.87 215.056V211.304C299.674 211.304 288.814 207.311 281.036 199.534L278.384 202.186ZM652.876 61.7L654.723 62.0278L655.114 59.8242H652.876V61.7ZM617.596 260.5V262.376H619.168L619.443 260.828L617.596 260.5ZM566.356 260.5L564.668 261.318L565.18 262.376H566.356V260.5ZM508.396 140.94L510.084 140.122L507.562 134.92L506.549 140.611L508.396 140.94ZM487.116 260.5V262.376H488.687L488.962 260.829L487.116 260.5ZM436.716 260.5L434.869 260.172L434.478 262.376H436.716V260.5ZM471.996 61.7V59.8242H470.423L470.149 61.3722L471.996 61.7ZM523.516 61.7L525.205 60.8849L524.693 59.8242H523.516V61.7ZM581.196 181.26L579.506 182.075L582.026 187.298L583.042 181.589L581.196 181.26ZM602.476 61.7V59.8242H600.904L600.629 61.3713L602.476 61.7ZM651.029 61.3722L615.749 260.172L619.443 260.828L654.723 62.0278L651.029 61.3722ZM617.596 258.624H566.356V262.376H617.596V258.624ZM568.044 259.682L510.084 140.122L506.708 141.758L564.668 261.318L568.044 259.682ZM506.549 140.611L485.269 260.171L488.962 260.829L510.242 141.269L506.549 140.611ZM487.116 258.624H436.716V262.376H487.116V258.624ZM438.563 260.828L473.843 62.0278L470.149 61.3722L434.869 260.172L438.563 260.828ZM471.996 63.5758H523.516V59.8242H471.996V63.5758ZM521.826 62.515L579.506 182.075L582.885 180.445L525.205 60.8849L521.826 62.515ZM583.042 181.589L604.322 62.0287L600.629 61.3713L579.349 180.931L583.042 181.589ZM602.476 63.5758H652.876V59.8242H602.476V63.5758ZM878.866 61.7L880.713 62.0278L881.104 59.8242H878.866V61.7ZM843.586 260.5V262.376H845.158L845.433 260.828L843.586 260.5ZM792.346 260.5L790.658 261.318L791.171 262.376H792.346V260.5ZM734.386 140.94L736.074 140.122L733.552 134.92L732.539 140.611L734.386 140.94ZM713.106 260.5V262.376H714.678L714.953 260.829L713.106 260.5ZM662.706 260.5L660.859 260.172L660.468 262.376H662.706V260.5ZM697.986 61.7V59.8242H696.414L696.139 61.3722L697.986 61.7ZM749.506 61.7L751.196 60.8849L750.684 59.8242H749.506V61.7ZM807.186 181.26L805.497 182.075L808.017 187.298L809.033 181.589L807.186 181.26ZM828.466 61.7V59.8242H826.895L826.619 61.3713L828.466 61.7ZM877.019 61.3722L841.739 260.172L845.433 260.828L880.713 62.0278L877.019 61.3722ZM843.586 258.624H792.346V262.376H843.586V258.624ZM794.034 259.682L736.074 140.122L732.698 141.758L790.658 261.318L794.034 259.682ZM732.539 140.611L711.259 260.171L714.953 260.829L736.233 141.269L732.539 140.611ZM713.106 258.624H662.706V262.376H713.106V258.624ZM664.553 260.828L699.833 62.0278L696.139 61.3722L660.859 260.172L664.553 260.828ZM697.986 63.5758H749.506V59.8242H697.986V63.5758ZM747.817 62.515L805.497 182.075L808.876 180.445L751.196 60.8849L747.817 62.515ZM809.033 181.589L830.313 62.0287L826.619 61.3713L805.339 180.931L809.033 181.589ZM828.466 63.5758H878.866V59.8242H828.466V63.5758ZM923.977 61.7V59.8242H922.405L922.13 61.3722L923.977 61.7ZM1052.22 61.7L1054.06 62.0247L1054.45 59.8242H1052.22V61.7ZM1044.1 107.9V109.776H1045.67L1045.94 108.225L1044.1 107.9ZM969.057 107.9V106.024H967.489L967.211 107.567L969.057 107.9ZM963.457 138.98L961.611 138.647L961.213 140.856H963.457V138.98ZM1036.26 138.98L1038.1 139.305L1038.49 137.104H1036.26V138.98ZM1028.42 183.5V185.376H1029.99L1030.26 183.825L1028.42 183.5ZM955.617 183.5V181.624H954.051L953.771 183.164L955.617 183.5ZM950.017 214.3L948.171 213.964L947.769 216.176H950.017V214.3ZM1027.58 214.3L1029.42 214.625L1029.81 212.424H1027.58V214.3ZM1019.46 260.5V262.376H1021.03L1021.3 260.825L1019.46 260.5ZM888.697 260.5L886.85 260.172L886.459 262.376H888.697V260.5ZM923.977 63.5758H1052.22V59.8242H923.977V63.5758ZM1050.37 61.3753L1042.25 107.575L1045.94 108.225L1054.06 62.0247L1050.37 61.3753ZM1044.1 106.024H969.057V109.776H1044.1V106.024ZM967.211 107.567L961.611 138.647L965.303 139.313L970.903 108.233L967.211 107.567ZM963.457 140.856H1036.26V137.104H963.457V140.856ZM1034.41 138.655L1026.57 183.175L1030.26 183.825L1038.1 139.305L1034.41 138.655ZM1028.42 181.624H955.617V185.376H1028.42V181.624ZM953.771 183.164L948.171 213.964L951.862 214.636L957.462 183.836L953.771 183.164ZM950.017 216.176H1027.58V212.424H950.017V216.176ZM1025.73 213.975L1017.61 260.175L1021.3 260.825L1029.42 214.625L1025.73 213.975ZM1019.46 258.624H888.697V262.376H1019.46V258.624ZM890.544 260.828L925.824 62.0278L922.13 61.3722L886.85 260.172L890.544 260.828ZM1106.33 252.1L1105.47 253.765L1105.48 253.771L1105.49 253.778L1106.33 252.1ZM1071.89 219.34L1070.25 220.255L1070.26 220.267L1070.27 220.28L1071.89 219.34ZM1074.41 109.86L1076.03 110.814L1076.03 110.806L1074.41 109.86ZM1114.45 72.06L1115.3 73.7341L1115.3 73.7304L1114.45 72.06ZM1241.85 80.18L1243.55 80.9705L1244.18 79.6281L1243.02 78.7093L1241.85 80.18ZM1219.73 127.78L1218.54 129.227L1220.41 130.771L1221.43 128.57L1219.73 127.78ZM1142.17 115.74L1141.25 114.107L1141.24 114.111L1141.23 114.116L1142.17 115.74ZM1122.57 135.9L1120.92 135.004L1120.92 135.011L1120.92 135.017L1122.57 135.9ZM1128.73 200.3L1127.38 201.598L1127.38 201.605L1127.39 201.612L1128.73 200.3ZM1189.77 209.26L1190.44 211.013L1190.45 211.009L1190.46 211.004L1189.77 209.26ZM1216.09 196.38L1217.91 195.922L1217.31 193.53L1215.16 194.749L1216.09 196.38ZM1227.85 243.14L1228.85 244.726L1230 244L1229.67 242.682L1227.85 243.14ZM1158.41 261.424C1138.86 261.424 1121.8 257.737 1107.17 250.422L1105.49 253.778C1120.73 261.397 1138.39 265.176 1158.41 265.176V261.424ZM1107.2 250.435C1092.76 242.944 1081.55 232.273 1073.51 218.4L1070.27 220.28C1078.66 234.78 1090.41 245.949 1105.47 253.765L1107.2 250.435ZM1073.53 218.425C1065.69 204.381 1061.73 187.721 1061.73 168.38H1057.98C1057.98 188.239 1062.04 205.553 1070.25 220.255L1073.53 218.425ZM1061.73 168.38C1061.73 146.067 1066.52 126.903 1076.03 110.814L1072.8 108.906C1062.89 125.671 1057.98 145.52 1057.98 168.38H1061.73ZM1076.03 110.806C1085.56 94.5013 1098.64 82.1558 1115.3 73.734L1113.61 70.3859C1096.29 79.1375 1082.68 91.992 1072.79 108.914L1076.03 110.806ZM1115.3 73.7304C1132.19 65.1056 1151.12 60.7758 1172.13 60.7758V57.0242C1150.59 57.0242 1131.06 61.4677 1113.6 70.3896L1115.3 73.7304ZM1172.13 60.7758C1200.38 60.7758 1223.17 67.7862 1240.69 81.6507L1243.02 78.7093C1224.69 64.2004 1201.01 57.0242 1172.13 57.0242V60.7758ZM1240.15 79.3895L1218.03 126.989L1221.43 128.57L1243.55 80.9705L1240.15 79.3895ZM1220.92 126.333C1213.35 120.08 1205.64 115.222 1197.81 111.782L1196.3 115.218C1203.77 118.498 1211.18 123.16 1218.54 129.227L1220.92 126.333ZM1197.81 111.782C1189.89 108.309 1181.23 106.584 1171.85 106.584V110.336C1180.76 110.336 1188.9 111.971 1196.3 115.218L1197.81 111.782ZM1171.85 106.584C1160.37 106.584 1150.15 109.074 1141.25 114.107L1143.09 117.373C1151.36 112.699 1160.93 110.336 1171.85 110.336V106.584ZM1141.23 114.116C1132.53 119.143 1125.75 126.116 1120.92 135.004L1124.22 136.796C1128.72 128.51 1135.01 122.043 1143.11 117.364L1141.23 114.116ZM1120.92 135.017C1116.27 143.72 1113.98 153.549 1113.98 164.46H1117.73C1117.73 154.091 1119.91 144.88 1124.23 136.783L1120.92 135.017ZM1113.98 164.46C1113.98 179.773 1118.39 192.22 1127.38 201.598L1130.09 199.002C1121.9 190.46 1117.73 179.014 1117.73 164.46H1113.98ZM1127.39 201.612C1136.58 211.001 1148.96 215.616 1164.29 215.616V211.864C1149.76 211.864 1138.43 207.519 1130.07 198.988L1127.39 201.612ZM1164.29 215.616C1173.65 215.616 1182.37 214.088 1190.44 211.013L1189.1 207.507C1181.5 210.405 1173.23 211.864 1164.29 211.864V215.616ZM1190.46 211.004C1198.59 207.792 1207.44 203.456 1217.02 198.011L1215.16 194.749C1205.7 200.13 1197.01 204.382 1189.08 207.516L1190.46 211.004ZM1214.27 196.838L1226.03 243.598L1229.67 242.682L1217.91 195.922L1214.27 196.838ZM1226.85 241.554C1205.87 254.806 1183.07 261.424 1158.41 261.424V265.176C1183.78 265.176 1207.28 258.354 1228.85 244.726L1226.85 241.554ZM1407.68 107.62V109.496H1409.25L1409.53 107.947L1407.68 107.62ZM1358.4 107.62V105.744H1356.83L1356.55 107.292L1358.4 107.62ZM1331.24 260.5V262.376H1332.81L1333.09 260.828L1331.24 260.5ZM1278.04 260.5L1276.19 260.172L1275.8 262.376H1278.04V260.5ZM1305.2 107.62L1307.05 107.948L1307.44 105.744H1305.2V107.62ZM1255.36 107.62L1253.51 107.293L1253.12 109.496H1255.36V107.62ZM1263.48 61.7V59.8242H1261.91L1261.63 61.3734L1263.48 61.7ZM1415.8 61.7L1417.65 62.0266L1418.04 59.8242H1415.8V61.7ZM1407.68 105.744H1358.4V109.496H1407.68V105.744ZM1356.55 107.292L1329.39 260.172L1333.09 260.828L1360.25 107.948L1356.55 107.292ZM1331.24 258.624H1278.04V262.376H1331.24V258.624ZM1279.89 260.828L1307.05 107.948L1303.35 107.292L1276.19 260.172L1279.89 260.828ZM1305.2 105.744H1255.36V109.496H1305.2V105.744ZM1257.21 107.947L1265.33 62.0266L1261.63 61.3734L1253.51 107.293L1257.21 107.947ZM1263.48 63.5758H1415.8V59.8242H1263.48V63.5758ZM1413.95 61.3734L1405.83 107.293L1409.53 107.947L1417.65 62.0266L1413.95 61.3734Z" fill="url(#paint0_linear_2018_382)" mask="url(#path-1-outside-1_2018_382)"/>
<defs>
<linearGradient id="paint0_linear_2018_382" x1="801.696" y1="64.394" x2="801.696" y2="307.132" gradientUnits="userSpaceOnUse">
<stop stop-color="#D6D6D6"/>
<stop offset="1" stop-color="#D6D6D6" stop-opacity="0"/>
</linearGradient>
</defs>
</svg>
