<svg width="64" height="64" viewBox="0 0 64 64" fill="none" xmlns="http://www.w3.org/2000/svg">
<path d="M50.9333 28.2289L36.8293 14.1143L33.0667 17.8849L47.1706 31.9996L33.0667 46.1143L36.84 49.8849L50.9333 35.7703C51.9331 34.7701 52.4948 33.4138 52.4948 31.9996C52.4948 30.5854 51.9331 29.2291 50.9333 28.2289Z" fill="url(#paint0_linear_1123_6666)"/>
<path d="M34.1621 30.1143L18.1621 14.1143L14.3994 17.8849L28.5034 31.9996L14.3994 46.1143L18.1727 49.8849L34.1727 33.8849C34.6713 33.3834 34.9502 32.7045 34.9482 31.9974C34.9462 31.2903 34.6634 30.6129 34.1621 30.1143Z" fill="url(#paint1_linear_1123_6666)"/>
<defs>
<linearGradient id="paint0_linear_1123_6666" x1="52.0042" y1="31.9997" x2="19.5042" y2="31.9997" gradientUnits="userSpaceOnUse">
<stop stop-color="white"/>
<stop offset="1" stop-color="white" stop-opacity="0"/>
</linearGradient>
<linearGradient id="paint1_linear_1123_6666" x1="35.001" y1="31.9997" x2="0.000976347" y2="31.9997" gradientUnits="userSpaceOnUse">
<stop stop-color="white"/>
<stop offset="1" stop-color="white" stop-opacity="0"/>
</linearGradient>
</defs>
</svg>
