<svg width="64" height="64" viewBox="0 0 64 64" fill="none" xmlns="http://www.w3.org/2000/svg">
<path d="M13.0667 28.2289L27.1707 14.1143L30.9333 17.8849L16.8294 31.9996L30.9333 46.1143L27.16 49.8849L13.0667 35.7703C12.0669 34.7701 11.5052 33.4138 11.5052 31.9996C11.5052 30.5854 12.0669 29.2291 13.0667 28.2289Z" fill="url(#paint0_linear_1123_6676)"/>
<path d="M29.8379 30.1143L45.8379 14.1143L49.6006 17.8849L35.4966 31.9996L49.6006 46.1143L45.8273 49.8849L29.8273 33.8849C29.3287 33.3834 29.0498 32.7045 29.0518 31.9974C29.0538 31.2903 29.3366 30.6129 29.8379 30.1143Z" fill="url(#paint1_linear_1123_6676)"/>
<defs>
<linearGradient id="paint0_linear_1123_6676" x1="11.9958" y1="31.9997" x2="44.4958" y2="31.9997" gradientUnits="userSpaceOnUse">
<stop stop-color="#656565"/>
<stop offset="1" stop-color="#CECECE"/>
</linearGradient>
<linearGradient id="paint1_linear_1123_6676" x1="28.999" y1="31.9997" x2="63.999" y2="31.9997" gradientUnits="userSpaceOnUse">
<stop stop-color="#656565"/>
<stop offset="1" stop-color="white" stop-opacity="0"/>
<stop offset="1" stop-color="#CECECE"/>
</linearGradient>
</defs>
</svg>
