<svg width="1500" height="300" viewBox="0 0 1500 300" fill="none" xmlns="http://www.w3.org/2000/svg">
<mask id="path-1-outside-1_1629_6793" maskUnits="userSpaceOnUse" x="7" y="62" width="847" height="209" fill="black">
<rect fill="white" x="7" y="62" width="847" height="209"/>
<path d="M83.08 268.8C68.3333 268.8 54.8933 266.84 42.76 262.92C30.6267 258.813 19.8 253.4 10.28 246.68L29.04 201.04C37.0667 207.387 45.9333 212.613 55.64 216.72C65.5333 220.64 75.52 222.6 85.6 222.6C92.5067 222.6 97.8267 221.387 101.56 218.96C105.48 216.347 107.44 212.8 107.44 208.32C107.44 203.467 105.48 199.64 101.56 196.84C97.8267 194.04 90.4533 190.307 79.44 185.64C63.0133 178.547 50.6933 170.707 42.48 162.12C34.4533 153.533 30.44 142.147 30.44 127.96C30.44 107.613 37.44 91.9333 51.44 80.92C65.44 69.9067 84.0133 64.4 107.16 64.4C119.853 64.4 131.987 66.08 143.56 69.44C155.133 72.6133 164.653 76.3466 172.12 80.64L151.68 123.2C145.52 119.093 138.24 115.827 129.84 113.4C121.44 110.973 113.787 109.76 106.88 109.76C99.9733 109.76 94.6533 111.067 90.92 113.68C87.3733 116.107 85.6 119.467 85.6 123.76C85.6 128.8 87.7467 132.907 92.04 136.08C96.52 139.067 104.92 142.893 117.24 147.56C131.24 152.973 142.347 159.787 150.56 168C158.773 176.027 162.88 186.947 162.88 200.76C162.88 221.853 156.253 238.467 143 250.6C129.933 262.733 109.96 268.8 83.08 268.8ZM341.713 113.12H292.433L265.273 266H212.073L239.233 113.12H189.393L197.513 67.2H349.833L341.713 113.12ZM456.788 190.4L443.348 266H389.028L402.468 190.4L361.028 67.2H415.628L436.908 142.52L482.548 67.2H541.908L456.788 190.4ZM664.756 218.68L656.356 266H530.636L565.916 67.2H619.116L592.236 218.68H664.756ZM722.453 67.2H850.693L842.573 113.4H767.533L761.933 144.48H834.733L826.893 189H754.093L748.493 219.8H826.053L817.933 266H687.173L722.453 67.2Z"/>
</mask>
<path d="M42.76 262.92L42.1188 264.814L42.1319 264.819L42.1451 264.823L42.76 262.92ZM10.28 246.68L8.43017 245.92L7.82398 247.394L9.12663 248.314L10.28 246.68ZM29.04 201.04L30.2805 199.471L28.199 197.825L27.1902 200.28L29.04 201.04ZM55.64 216.72L54.8607 218.562L54.8819 218.571L54.9033 218.579L55.64 216.72ZM101.56 218.96L102.65 220.637L102.66 220.631L102.669 220.624L101.56 218.96ZM101.56 196.84L100.36 198.44L100.379 198.454L100.398 198.467L101.56 196.84ZM79.44 185.64L78.6471 187.476L78.6597 187.482L79.44 185.64ZM42.48 162.12L41.0189 163.486L41.0268 163.494L41.0347 163.502L42.48 162.12ZM51.44 80.92L52.6766 82.4919L52.6766 82.4919L51.44 80.92ZM143.56 69.44L143.002 71.3607L143.017 71.3649L143.031 71.3688L143.56 69.44ZM172.12 80.64L173.923 81.5058L174.727 79.8318L173.117 78.9062L172.12 80.64ZM151.68 123.2L150.571 124.864L152.486 126.141L153.483 124.066L151.68 123.2ZM129.84 113.4L130.395 111.479L130.395 111.479L129.84 113.4ZM90.92 113.68L92.0494 115.331L92.0582 115.325L92.0669 115.318L90.92 113.68ZM92.04 136.08L90.8512 137.688L90.8902 137.717L90.9306 137.744L92.04 136.08ZM117.24 147.56L117.961 145.695L117.948 145.69L117.24 147.56ZM150.56 168L149.146 169.414L149.154 169.422L149.162 169.43L150.56 168ZM143 250.6L141.649 249.125L141.639 249.134L143 250.6ZM83.08 266.8C68.5101 266.8 55.2813 264.864 43.3749 261.017L42.1451 264.823C54.5054 268.816 68.1566 270.8 83.08 270.8V266.8ZM43.4012 261.026C31.4323 256.975 20.7813 251.645 11.4334 245.046L9.12663 248.314C18.8187 255.155 29.821 260.652 42.1188 264.814L43.4012 261.026ZM12.1298 247.44L30.8898 201.8L27.1902 200.28L8.43017 245.92L12.1298 247.44ZM27.7995 202.609C35.9712 209.07 44.9938 214.387 54.8607 218.562L56.4193 214.878C46.8729 210.839 38.1622 205.703 30.2805 199.471L27.7995 202.609ZM54.9033 218.579C65.0179 222.587 75.2539 224.6 85.6 224.6V220.6C75.7861 220.6 66.0488 218.693 56.3767 214.861L54.9033 218.579ZM85.6 224.6C92.6967 224.6 98.4593 223.361 102.65 220.637L100.47 217.283C97.1941 219.412 92.3167 220.6 85.6 220.6V224.6ZM102.669 220.624C107.111 217.663 109.44 213.509 109.44 208.32H105.44C105.44 212.091 103.849 215.031 100.451 217.296L102.669 220.624ZM109.44 208.32C109.44 202.827 107.173 198.391 102.722 195.213L100.398 198.467C103.787 200.889 105.44 204.107 105.44 208.32H109.44ZM102.76 195.24C98.8074 192.276 91.2217 188.46 80.2203 183.798L78.6597 187.482C89.685 192.153 96.8459 195.804 100.36 198.44L102.76 195.24ZM80.2329 183.804C63.9394 176.768 51.8845 169.059 43.9253 160.738L41.0347 163.502C49.5021 172.355 62.0873 180.325 78.6471 187.476L80.2329 183.804ZM43.9411 160.754C36.3297 152.612 32.44 141.751 32.44 127.96H28.44C28.44 142.543 32.577 154.455 41.0189 163.486L43.9411 160.754ZM32.44 127.96C32.44 108.128 39.2312 93.0689 52.6766 82.4919L50.2034 79.3481C35.6488 90.7977 28.44 107.099 28.44 127.96H32.44ZM52.6766 82.4919C66.2307 71.8294 84.3265 66.4 107.16 66.4V62.4C83.7002 62.4 64.6493 67.984 50.2034 79.3481L52.6766 82.4919ZM107.16 66.4C119.675 66.4 131.62 68.056 143.002 71.3607L144.118 67.5193C132.354 64.104 120.032 62.4 107.16 62.4V66.4ZM143.031 71.3688C154.5 74.5134 163.848 78.1909 171.123 82.3738L173.117 78.9062C165.458 74.5024 155.767 70.7132 144.089 67.5112L143.031 71.3688ZM170.317 79.7741L149.877 122.334L153.483 124.066L173.923 81.5058L170.317 79.7741ZM152.789 121.536C146.431 117.297 138.957 113.952 130.395 111.479L129.285 115.321C137.523 117.701 144.609 120.89 150.571 124.864L152.789 121.536ZM130.395 111.479C121.86 109.013 114.017 107.76 106.88 107.76V111.76C113.557 111.76 121.02 112.934 129.285 115.321L130.395 111.479ZM106.88 107.76C99.7617 107.76 93.9751 109.1 89.7731 112.042L92.0669 115.318C95.3315 113.033 100.185 111.76 106.88 111.76V107.76ZM89.7906 112.029C85.6997 114.828 83.6 118.806 83.6 123.76H87.6C87.6 120.128 89.0469 117.385 92.0494 115.331L89.7906 112.029ZM83.6 123.76C83.6 129.477 86.0831 134.164 90.8512 137.688L93.2288 134.472C89.4103 131.649 87.6 128.123 87.6 123.76H83.6ZM90.9306 137.744C95.62 140.87 104.215 144.765 116.532 149.43L117.948 145.69C105.625 141.022 97.42 137.263 93.1494 134.416L90.9306 137.744ZM116.519 149.425C130.332 154.766 141.178 161.446 149.146 169.414L151.974 166.586C143.515 158.127 132.148 151.18 117.961 145.695L116.519 149.425ZM149.162 169.43C156.914 177.006 160.88 187.368 160.88 200.76H164.88C164.88 186.525 160.633 175.047 151.958 166.57L149.162 169.43ZM160.88 200.76C160.88 221.399 154.416 237.437 141.649 249.125L144.351 252.075C158.09 239.496 164.88 222.308 164.88 200.76H160.88ZM141.639 249.134C129.092 260.785 109.705 266.8 83.08 266.8V270.8C110.215 270.8 130.775 264.681 144.361 252.066L141.639 249.134ZM341.713 113.12V115.12H343.39L343.682 113.468L341.713 113.12ZM292.433 113.12V111.12H290.757L290.463 112.77L292.433 113.12ZM265.273 266V268H266.949L267.242 266.35L265.273 266ZM212.073 266L210.103 265.65L209.686 268H212.073V266ZM239.233 113.12L241.202 113.47L241.619 111.12H239.233V113.12ZM189.393 113.12L187.423 112.772L187.008 115.12H189.393V113.12ZM197.513 67.2V65.2H195.835L195.543 66.8517L197.513 67.2ZM349.833 67.2L351.802 67.5482L352.217 65.2H349.833V67.2ZM341.713 111.12H292.433V115.12H341.713V111.12ZM290.463 112.77L263.303 265.65L267.242 266.35L294.402 113.47L290.463 112.77ZM265.273 264H212.073V268H265.273V264ZM214.042 266.35L241.202 113.47L237.263 112.77L210.103 265.65L214.042 266.35ZM239.233 111.12H189.393V115.12H239.233V111.12ZM191.362 113.468L199.482 67.5482L195.543 66.8517L187.423 112.772L191.362 113.468ZM197.513 69.2H349.833V65.2H197.513V69.2ZM347.863 66.8517L339.743 112.772L343.682 113.468L351.802 67.5482L347.863 66.8517ZM456.788 190.4L455.143 189.263L454.895 189.621L454.819 190.05L456.788 190.4ZM443.348 266V268H445.024L445.317 266.35L443.348 266ZM389.028 266L387.059 265.65L386.641 268H389.028V266ZM402.468 190.4L404.437 190.75L404.527 190.247L404.364 189.762L402.468 190.4ZM361.028 67.2V65.2H358.245L359.133 67.8376L361.028 67.2ZM415.628 67.2L417.553 66.6562L417.141 65.2H415.628V67.2ZM436.908 142.52L434.983 143.064L436.234 147.491L438.619 143.556L436.908 142.52ZM482.548 67.2V65.2H481.422L480.838 66.1635L482.548 67.2ZM541.908 67.2L543.554 68.3369L545.721 65.2H541.908V67.2ZM454.819 190.05L441.379 265.65L445.317 266.35L458.757 190.75L454.819 190.05ZM443.348 264H389.028V268H443.348V264ZM390.997 266.35L404.437 190.75L400.499 190.05L387.059 265.65L390.997 266.35ZM404.364 189.762L362.924 66.5624L359.133 67.8376L400.573 191.038L404.364 189.762ZM361.028 69.2H415.628V65.2H361.028V69.2ZM413.703 67.7438L434.983 143.064L438.833 141.976L417.553 66.6562L413.703 67.7438ZM438.619 143.556L484.259 68.2365L480.838 66.1635L435.198 141.484L438.619 143.556ZM482.548 69.2H541.908V65.2H482.548V69.2ZM540.263 66.0631L455.143 189.263L458.434 191.537L543.554 68.3369L540.263 66.0631ZM664.756 218.68L666.725 219.03L667.142 216.68H664.756V218.68ZM656.356 266V268H658.032L658.325 266.35L656.356 266ZM530.636 266L528.667 265.651L528.25 268H530.636V266ZM565.916 67.2V65.2H564.24L563.947 66.8505L565.916 67.2ZM619.116 67.2L621.085 67.5494L621.502 65.2H619.116V67.2ZM592.236 218.68L590.267 218.331L589.85 220.68H592.236V218.68ZM662.787 218.33L654.387 265.65L658.325 266.35L666.725 219.03L662.787 218.33ZM656.356 264H530.636V268H656.356V264ZM532.605 266.349L567.885 67.5495L563.947 66.8505L528.667 265.651L532.605 266.349ZM565.916 69.2H619.116V65.2H565.916V69.2ZM617.147 66.8505L590.267 218.331L594.205 219.029L621.085 67.5494L617.147 66.8505ZM592.236 220.68H664.756V216.68H592.236V220.68ZM722.453 67.2V65.2H720.777L720.484 66.8505L722.453 67.2ZM850.693 67.2L852.663 67.5462L853.076 65.2H850.693V67.2ZM842.573 113.4V115.4H844.253L844.543 113.746L842.573 113.4ZM767.533 113.4V111.4H765.862L765.565 113.045L767.533 113.4ZM761.933 144.48L759.965 144.125L759.541 146.48H761.933V144.48ZM834.733 144.48L836.703 144.827L837.116 142.48H834.733V144.48ZM826.893 189V191H828.572L828.863 189.347L826.893 189ZM754.093 189V187H752.424L752.126 188.642L754.093 189ZM748.493 219.8L746.526 219.442L746.097 221.8H748.493V219.8ZM826.053 219.8L828.023 220.146L828.436 217.8H826.053V219.8ZM817.933 266V268H819.613L819.903 266.346L817.933 266ZM687.173 266L685.204 265.651L684.787 268H687.173V266ZM722.453 69.2H850.693V65.2H722.453V69.2ZM848.724 66.8538L840.604 113.054L844.543 113.746L852.663 67.5462L848.724 66.8538ZM842.573 111.4H767.533V115.4H842.573V111.4ZM765.565 113.045L759.965 144.125L763.902 144.835L769.502 113.755L765.565 113.045ZM761.933 146.48H834.733V142.48H761.933V146.48ZM832.764 144.133L824.924 188.653L828.863 189.347L836.703 144.827L832.764 144.133ZM826.893 187H754.093V191H826.893V187ZM752.126 188.642L746.526 219.442L750.461 220.158L756.061 189.358L752.126 188.642ZM748.493 221.8H826.053V217.8H748.493V221.8ZM824.084 219.454L815.964 265.654L819.903 266.346L828.023 220.146L824.084 219.454ZM817.933 264H687.173V268H817.933V264ZM689.143 266.349L724.423 67.5495L720.484 66.8505L685.204 265.651L689.143 266.349Z" fill="url(#paint0_linear_1629_6793)" mask="url(#path-1-outside-1_1629_6793)"/>
<defs>
<linearGradient id="paint0_linear_1629_6793" x1="648.287" y1="33.654" x2="647.526" y2="297" gradientUnits="userSpaceOnUse">
<stop stop-color="#D6D6D6"/>
<stop offset="1" stop-color="#D6D6D6" stop-opacity="0.21"/>
</linearGradient>
</defs>
</svg>
