<svg width="1500" height="300" viewBox="0 0 1500 300" fill="none" xmlns="http://www.w3.org/2000/svg">
<mask id="path-1-outside-1_1629_6792" maskUnits="userSpaceOnUse" x="26" y="58.5" width="1141" height="209" fill="black">
<rect fill="white" x="26" y="58.5" width="1141" height="209"/>
<path d="M181.184 109.62H131.904L104.744 262.5H51.5436L78.7036 109.62H28.8636L36.9836 63.7H189.304L181.184 109.62ZM394.605 63.7L359.325 262.5H306.125L319.565 186.06H250.405L236.965 262.5H183.765L219.045 63.7H272.245L258.805 140.14H327.965L341.405 63.7H394.605ZM582.927 118.58C582.927 133.14 578.913 146.113 570.887 157.5C563.047 168.7 551.66 177.193 536.727 182.98L570.887 262.5H511.527L486.327 189.98H470.367L457.487 262.5H404.287L439.567 63.7H519.927C540.46 63.7 556.047 68.6467 566.687 78.54C577.513 88.4333 582.927 101.78 582.927 118.58ZM477.647 149.1H498.647C507.607 149.1 514.513 147.047 519.367 142.94C524.22 138.647 526.647 132.767 526.647 125.3C526.647 118.953 524.873 114.287 521.327 111.3C517.967 108.127 513.02 106.54 506.487 106.54H485.207L477.647 149.1ZM632.745 63.7H685.945L650.665 262.5H597.465L632.745 63.7ZM829.88 215.18L821.48 262.5H695.76L731.04 63.7H784.24L757.36 215.18H829.88ZM986.418 215.18L978.018 262.5H852.298L887.578 63.7H940.778L913.898 215.18H986.418ZM1074.92 265.3C1060.17 265.3 1046.73 263.34 1034.6 259.42C1022.46 255.313 1011.64 249.9 1002.12 243.18L1020.88 197.54C1028.9 203.887 1037.77 209.113 1047.48 213.22C1057.37 217.14 1067.36 219.1 1077.44 219.1C1084.34 219.1 1089.66 217.887 1093.4 215.46C1097.32 212.847 1099.28 209.3 1099.28 204.82C1099.28 199.967 1097.32 196.14 1093.4 193.34C1089.66 190.54 1082.29 186.807 1071.28 182.14C1054.85 175.047 1042.53 167.207 1034.32 158.62C1026.29 150.033 1022.28 138.647 1022.28 124.46C1022.28 104.113 1029.28 88.4333 1043.28 77.42C1057.28 66.4067 1075.85 60.9 1099 60.9C1111.69 60.9 1123.82 62.58 1135.4 65.94C1146.97 69.1133 1156.49 72.8466 1163.96 77.14L1143.52 119.7C1137.36 115.593 1130.08 112.327 1121.68 109.9C1113.28 107.473 1105.62 106.26 1098.72 106.26C1091.81 106.26 1086.49 107.567 1082.76 110.18C1079.21 112.607 1077.44 115.967 1077.44 120.26C1077.44 125.3 1079.58 129.407 1083.88 132.58C1088.36 135.567 1096.76 139.393 1109.08 144.06C1123.08 149.473 1134.18 156.287 1142.4 164.5C1150.61 172.527 1154.72 183.447 1154.72 197.26C1154.72 218.353 1148.09 234.967 1134.84 247.1C1121.77 259.233 1101.8 265.3 1074.92 265.3Z"/>
</mask>
<path d="M181.184 109.62V111.496H182.757L183.031 109.947L181.184 109.62ZM131.904 109.62V107.744H130.332L130.057 109.292L131.904 109.62ZM104.744 262.5V264.376H106.316L106.59 262.828L104.744 262.5ZM51.5436 262.5L49.6967 262.172L49.3052 264.376H51.5436V262.5ZM78.7036 109.62L80.5505 109.948L80.942 107.744H78.7036V109.62ZM28.8636 109.62L27.0165 109.293L26.627 111.496H28.8636V109.62ZM36.9836 63.7V61.8242H35.4104L35.1365 63.3734L36.9836 63.7ZM189.304 63.7L191.151 64.0266L191.54 61.8242H189.304V63.7ZM181.184 107.744H131.904V111.496H181.184V107.744ZM130.057 109.292L102.897 262.172L106.59 262.828L133.75 109.948L130.057 109.292ZM104.744 260.624H51.5436V264.376H104.744V260.624ZM53.3905 262.828L80.5505 109.948L76.8568 109.292L49.6967 262.172L53.3905 262.828ZM78.7036 107.744H28.8636V111.496H78.7036V107.744ZM30.7107 109.947L38.8307 64.0266L35.1365 63.3734L27.0165 109.293L30.7107 109.947ZM36.9836 65.5758H189.304V61.8242H36.9836V65.5758ZM187.457 63.3734L179.336 109.293L183.031 109.947L191.151 64.0266L187.457 63.3734ZM394.605 63.7L396.452 64.0278L396.843 61.8242H394.605V63.7ZM359.325 262.5V264.376H360.897L361.172 262.828L359.325 262.5ZM306.125 262.5L304.277 262.175L303.891 264.376H306.125V262.5ZM319.565 186.06L321.412 186.385L321.799 184.184H319.565V186.06ZM250.405 186.06V184.184H248.83L248.557 185.735L250.405 186.06ZM236.965 262.5V264.376H238.54L238.812 262.825L236.965 262.5ZM183.765 262.5L181.918 262.172L181.527 264.376H183.765V262.5ZM219.045 63.7V61.8242H217.473L217.198 63.3722L219.045 63.7ZM272.245 63.7L274.092 64.0248L274.479 61.8242H272.245V63.7ZM258.805 140.14L256.957 139.815L256.571 142.016H258.805V140.14ZM327.965 140.14V142.016H329.54L329.812 140.465L327.965 140.14ZM341.405 63.7V61.8242H339.83L339.557 63.3752L341.405 63.7ZM392.758 63.3722L357.478 262.172L361.172 262.828L396.452 64.0278L392.758 63.3722ZM359.325 260.624H306.125V264.376H359.325V260.624ZM307.972 262.825L321.412 186.385L317.717 185.735L304.277 262.175L307.972 262.825ZM319.565 184.184H250.405V187.936H319.565V184.184ZM248.557 185.735L235.117 262.175L238.812 262.825L252.252 186.385L248.557 185.735ZM236.965 260.624H183.765V264.376H236.965V260.624ZM185.612 262.828L220.892 64.0278L217.198 63.3722L181.918 262.172L185.612 262.828ZM219.045 65.5758H272.245V61.8242H219.045V65.5758ZM270.397 63.3752L256.957 139.815L260.652 140.465L274.092 64.0248L270.397 63.3752ZM258.805 142.016H327.965V138.264H258.805V142.016ZM329.812 140.465L343.252 64.0248L339.557 63.3752L326.117 139.815L329.812 140.465ZM341.405 65.5758H394.605V61.8242H341.405V65.5758ZM570.887 157.5L569.354 156.419L569.35 156.424L570.887 157.5ZM536.727 182.98L536.049 181.231L534.236 181.934L535.003 183.72L536.727 182.98ZM570.887 262.5V264.376H573.734L572.61 261.76L570.887 262.5ZM511.527 262.5L509.755 263.116L510.193 264.376H511.527V262.5ZM486.327 189.98L488.099 189.364L487.661 188.104H486.327V189.98ZM470.367 189.98V188.104H468.795L468.52 189.652L470.367 189.98ZM457.487 262.5V264.376H459.059L459.334 262.828L457.487 262.5ZM404.287 262.5L402.44 262.172L402.049 264.376H404.287V262.5ZM439.567 63.7V61.8242H437.995L437.72 63.3722L439.567 63.7ZM566.687 78.54L565.409 79.9137L565.415 79.9192L565.421 79.9247L566.687 78.54ZM477.647 149.1L475.8 148.772L475.408 150.976H477.647V149.1ZM519.367 142.94L520.578 144.372L520.594 144.359L520.61 144.345L519.367 142.94ZM521.327 111.3L520.039 112.664L520.078 112.7L520.118 112.735L521.327 111.3ZM485.207 106.54V104.664H483.635L483.36 106.212L485.207 106.54ZM581.051 118.58C581.051 132.772 577.147 145.364 569.354 156.419L572.42 158.581C580.68 146.863 584.803 133.508 584.803 118.58H581.051ZM569.35 156.424C561.758 167.27 550.696 175.555 536.049 181.231L537.405 184.729C552.624 178.832 564.336 170.13 572.423 158.576L569.35 156.424ZM535.003 183.72L569.163 263.24L572.61 261.76L538.45 182.24L535.003 183.72ZM570.887 260.624H511.527V264.376H570.887V260.624ZM513.299 261.884L488.099 189.364L484.555 190.596L509.755 263.116L513.299 261.884ZM486.327 188.104H470.367V191.856H486.327V188.104ZM468.52 189.652L455.64 262.172L459.334 262.828L472.214 190.308L468.52 189.652ZM457.487 260.624H404.287V264.376H457.487V260.624ZM406.134 262.828L441.414 64.0278L437.72 63.3722L402.44 262.172L406.134 262.828ZM439.567 65.5758H519.927V61.8242H439.567V65.5758ZM519.927 65.5758C540.182 65.5758 555.237 70.4554 565.409 79.9137L567.964 77.1663C556.856 66.8379 540.738 61.8242 519.927 61.8242V65.5758ZM565.421 79.9247C575.801 89.4094 581.051 102.222 581.051 118.58H584.803C584.803 101.338 579.226 87.4572 567.952 77.1553L565.421 79.9247ZM477.647 150.976H498.647V147.224H477.647V150.976ZM498.647 150.976C507.871 150.976 515.271 148.863 520.578 144.372L518.155 141.508C513.756 145.23 507.343 147.224 498.647 147.224V150.976ZM520.61 144.345C525.929 139.64 528.523 133.214 528.523 125.3H524.771C524.771 132.32 522.512 137.654 518.124 141.535L520.61 144.345ZM528.523 125.3C528.523 118.615 526.645 113.327 522.535 109.865L520.118 112.735C523.101 115.247 524.771 119.292 524.771 125.3H528.523ZM522.615 109.936C518.785 106.319 513.3 104.664 506.487 104.664V108.416C512.74 108.416 517.149 109.934 520.039 112.664L522.615 109.936ZM506.487 104.664H485.207V108.416H506.487V104.664ZM483.36 106.212L475.8 148.772L479.494 149.428L487.054 106.868L483.36 106.212ZM632.745 63.7V61.8242H631.173L630.898 63.3722L632.745 63.7ZM685.945 63.7L687.792 64.0278L688.183 61.8242H685.945V63.7ZM650.665 262.5V264.376H652.237L652.512 262.828L650.665 262.5ZM597.465 262.5L595.618 262.172L595.227 264.376H597.465V262.5ZM632.745 65.5758H685.945V61.8242H632.745V65.5758ZM684.098 63.3722L648.818 262.172L652.512 262.828L687.792 64.0278L684.098 63.3722ZM650.665 260.624H597.465V264.376H650.665V260.624ZM599.312 262.828L634.592 64.0278L630.898 63.3722L595.618 262.172L599.312 262.828ZM829.88 215.18L831.727 215.508L832.118 213.304H829.88V215.18ZM821.48 262.5V264.376H823.052L823.327 262.828L821.48 262.5ZM695.76 262.5L693.913 262.172L693.522 264.376H695.76V262.5ZM731.04 63.7V61.8242H729.468L729.193 63.3722L731.04 63.7ZM784.24 63.7L786.087 64.0277L786.478 61.8242H784.24V63.7ZM757.36 215.18L755.513 214.852L755.122 217.056H757.36V215.18ZM828.033 214.852L819.633 262.172L823.327 262.828L831.727 215.508L828.033 214.852ZM821.48 260.624H695.76V264.376H821.48V260.624ZM697.607 262.828L732.887 64.0278L729.193 63.3722L693.913 262.172L697.607 262.828ZM731.04 65.5758H784.24V61.8242H731.04V65.5758ZM782.393 63.3723L755.513 214.852L759.207 215.508L786.087 64.0277L782.393 63.3723ZM757.36 217.056H829.88V213.304H757.36V217.056ZM986.418 215.18L988.265 215.508L988.656 213.304H986.418V215.18ZM978.018 262.5V264.376H979.59L979.865 262.828L978.018 262.5ZM852.298 262.5L850.451 262.172L850.06 264.376H852.298V262.5ZM887.578 63.7V61.8242H886.005L885.731 63.3722L887.578 63.7ZM940.778 63.7L942.625 64.0277L943.016 61.8242H940.778V63.7ZM913.898 215.18L912.051 214.852L911.66 217.056H913.898V215.18ZM984.571 214.852L976.171 262.172L979.865 262.828L988.265 215.508L984.571 214.852ZM978.018 260.624H852.298V264.376H978.018V260.624ZM854.145 262.828L889.425 64.0278L885.731 63.3722L850.451 262.172L854.145 262.828ZM887.578 65.5758H940.778V61.8242H887.578V65.5758ZM938.931 63.3723L912.051 214.852L915.745 215.508L942.625 64.0277L938.931 63.3723ZM913.898 217.056H986.418V213.304H913.898V217.056ZM1034.6 259.42L1033.99 261.197L1034.01 261.201L1034.02 261.205L1034.6 259.42ZM1002.12 243.18L1000.38 242.467L999.812 243.85L1001.03 244.712L1002.12 243.18ZM1020.88 197.54L1022.04 196.069L1020.09 194.525L1019.14 196.827L1020.88 197.54ZM1047.48 213.22L1046.74 214.948L1046.76 214.956L1046.78 214.964L1047.48 213.22ZM1093.4 215.46L1094.42 217.033L1094.43 217.027L1094.44 217.021L1093.4 215.46ZM1093.4 193.34L1092.27 194.841L1092.29 194.854L1092.3 194.866L1093.4 193.34ZM1071.28 182.14L1070.53 183.862L1070.54 183.867L1071.28 182.14ZM1034.32 158.62L1032.94 159.901L1032.95 159.909L1032.96 159.917L1034.32 158.62ZM1043.28 77.42L1044.43 78.8943L1044.43 78.8943L1043.28 77.42ZM1135.4 65.94L1134.87 67.7414L1134.89 67.7453L1134.9 67.749L1135.4 65.94ZM1163.96 77.14L1165.65 77.9521L1166.4 76.382L1164.89 75.5139L1163.96 77.14ZM1143.52 119.7L1142.47 121.261L1144.27 122.458L1145.21 120.512L1143.52 119.7ZM1121.68 109.9L1122.2 108.098L1122.2 108.098L1121.68 109.9ZM1082.76 110.18L1083.81 111.728L1083.82 111.722L1083.83 111.717L1082.76 110.18ZM1083.88 132.58L1082.76 134.088L1082.8 134.115L1082.83 134.141L1083.88 132.58ZM1109.08 144.06L1109.75 142.31L1109.74 142.306L1109.08 144.06ZM1142.4 164.5L1141.07 165.826L1141.08 165.834L1141.08 165.842L1142.4 164.5ZM1134.84 247.1L1133.57 245.716L1133.56 245.725L1134.84 247.1ZM1074.92 263.424C1060.33 263.424 1047.09 261.486 1035.17 257.635L1034.02 261.205C1046.36 265.194 1060 267.176 1074.92 267.176V263.424ZM1035.2 257.643C1023.22 253.589 1012.56 248.254 1003.2 241.648L1001.03 244.712C1010.71 251.546 1021.71 257.038 1033.99 261.197L1035.2 257.643ZM1003.85 243.893L1022.61 198.253L1019.14 196.827L1000.38 242.467L1003.85 243.893ZM1019.71 199.011C1027.87 205.466 1036.89 210.777 1046.74 214.948L1048.21 211.492C1038.65 207.449 1029.93 202.308 1022.04 196.069L1019.71 199.011ZM1046.78 214.964C1056.89 218.966 1067.11 220.976 1077.44 220.976V217.224C1067.6 217.224 1057.85 215.314 1048.17 211.476L1046.78 214.964ZM1077.44 220.976C1084.52 220.976 1090.26 219.738 1094.42 217.033L1092.37 213.887C1089.07 216.035 1084.16 217.224 1077.44 217.224V220.976ZM1094.44 217.021C1098.85 214.081 1101.15 209.965 1101.15 204.82H1097.4C1097.4 208.635 1095.78 211.612 1092.35 213.899L1094.44 217.021ZM1101.15 204.82C1101.15 199.366 1098.9 194.969 1094.49 191.814L1092.3 194.866C1095.73 197.311 1097.4 200.567 1097.4 204.82H1101.15ZM1094.52 191.839C1090.58 188.885 1083.01 185.075 1072.01 180.413L1070.54 183.867C1081.57 188.539 1088.74 192.195 1092.27 194.841L1094.52 191.839ZM1072.02 180.418C1055.72 173.379 1043.65 165.661 1035.67 157.323L1032.96 159.917C1041.41 168.752 1053.98 176.715 1070.53 183.862L1072.02 180.418ZM1035.69 157.339C1028.05 149.169 1024.15 138.275 1024.15 124.46H1020.4C1020.4 139.018 1024.53 150.898 1032.94 159.901L1035.69 157.339ZM1024.15 124.46C1024.15 104.596 1030.96 89.4984 1044.43 78.8943L1042.12 75.9457C1027.6 87.3683 1020.4 103.631 1020.4 124.46H1024.15ZM1044.43 78.8943C1058.02 68.2099 1076.14 62.7758 1099 62.7758V59.0242C1075.55 59.0242 1056.53 64.6034 1042.12 75.9457L1044.43 78.8943ZM1099 62.7758C1111.52 62.7758 1123.48 64.4333 1134.87 67.7414L1135.92 64.1386C1124.17 60.7267 1111.86 59.0242 1099 59.0242V62.7758ZM1134.9 67.749C1146.37 70.8954 1155.73 74.5763 1163.02 78.7661L1164.89 75.5139C1157.24 71.117 1147.56 67.3313 1135.89 64.131L1134.9 67.749ZM1162.26 76.3279L1141.82 118.888L1145.21 120.512L1165.65 77.9521L1162.26 76.3279ZM1144.56 118.139C1138.21 113.909 1130.75 110.569 1122.2 108.098L1121.15 111.702C1129.4 114.085 1136.5 117.278 1142.47 121.261L1144.56 118.139ZM1122.2 108.098C1113.67 105.635 1105.84 104.384 1098.72 104.384V108.136C1105.41 108.136 1112.88 109.312 1121.15 111.702L1122.2 108.098ZM1098.72 104.384C1091.61 104.384 1085.85 105.722 1081.68 108.643L1083.83 111.717C1087.12 109.411 1092.01 108.136 1098.72 108.136V104.384ZM1081.7 108.632C1077.64 111.408 1075.56 115.347 1075.56 120.26H1079.31C1079.31 116.587 1080.78 113.806 1083.81 111.728L1081.7 108.632ZM1075.56 120.26C1075.56 125.935 1078.02 130.586 1082.76 134.088L1084.99 131.072C1081.14 128.227 1079.31 124.665 1079.31 120.26H1075.56ZM1082.83 134.141C1087.51 137.258 1096.09 141.149 1108.41 145.814L1109.74 142.306C1097.42 137.638 1089.2 133.875 1084.92 131.019L1082.83 134.141ZM1108.4 145.81C1122.22 151.155 1133.09 157.843 1141.07 165.826L1143.72 163.174C1135.28 154.73 1123.93 147.792 1109.75 142.31L1108.4 145.81ZM1141.08 165.842C1148.86 173.445 1152.84 183.842 1152.84 197.26H1156.59C1156.59 183.052 1152.35 171.608 1143.71 163.158L1141.08 165.842ZM1152.84 197.26C1152.84 217.927 1146.37 234.001 1133.57 245.716L1136.1 248.484C1149.81 235.933 1156.59 218.78 1156.59 197.26H1152.84ZM1133.56 245.725C1120.98 257.406 1101.56 263.424 1074.92 263.424V267.176C1102.03 267.176 1122.56 261.06 1136.11 248.475L1133.56 245.725Z" fill="url(#paint0_linear_1629_6792)" mask="url(#path-1-outside-1_1629_6792)"/>
<defs>
<linearGradient id="paint0_linear_1629_6792" x1="618.551" y1="65.5242" x2="618.551" y2="305.058" gradientUnits="userSpaceOnUse">
<stop stop-color="#D6D6D6"/>
<stop offset="1" stop-color="#D6D6D6" stop-opacity="0"/>
</linearGradient>
</defs>
</svg>
